<svg width="132" height="88" viewBox="0 0 132 88" fill="none" xmlns="http://www.w3.org/2000/svg">
<path d="M64.0331 27.5586H67.4049C69.7765 27.7896 72.1522 28.2724 74.3329 29.2589C74.7315 29.4538 75.1879 29.5998 75.6242 29.4153C78.36 28.7071 81.2249 28.8651 84.0055 29.1924C87.2594 29.5573 90.5342 29.3143 93.7905 29.1218C95.9913 28.9429 98.2017 29.0047 100.408 29.0047C102.173 29.0079 103.933 29.1771 105.695 29.2669C108.656 29.4306 111.617 29.1426 114.564 28.8788C114.903 28.9124 115.316 28.7312 115.618 28.959C116.098 29.3471 116.466 29.8605 116.769 30.3946V30.7619C115.94 31.2985 115.074 31.7749 114.173 32.1776C114.417 32.7582 114.676 33.3325 114.895 33.9244C114.112 34.5997 113.068 34.7794 112.116 35.1002C112.19 35.6865 112.602 36.4123 112.055 36.8791C111.244 37.528 110.102 37.3996 109.226 37.8985C108.943 38.4664 109.312 39.266 108.853 39.7737C107.918 40.4282 106.679 40.1009 105.659 40.522C105.555 40.5701 105.503 40.6792 105.471 40.7827C105.32 41.2623 105.287 41.7844 105.048 42.2352C104.853 42.5375 104.497 42.726 104.142 42.7557C103.096 42.8343 102.044 42.7565 100.999 42.8343C100.631 43.3099 100.629 43.9948 100.222 44.4552C98.9291 44.9372 97.5191 44.5795 96.1845 44.7568C95.9455 45.1682 95.9095 45.6719 95.6624 46.0793C95.3625 46.4876 94.7577 46.429 94.3158 46.4836C93.3269 46.567 92.3668 46.2919 91.3964 46.1668C91.1477 46.6303 90.8734 47.1493 90.3272 47.3137C89.2653 47.5334 88.2572 47.1068 87.2402 46.8814C87.0565 47.2359 86.9057 47.6505 86.5288 47.847C85.8013 48.1422 85.0249 47.8318 84.3384 47.5768C82.9886 51.9415 79.5719 55.4897 75.459 57.3833C74.9681 57.6704 74.264 57.7635 74.037 58.3626C73.8806 58.6449 73.7474 58.9377 73.6087 59.228C73.0416 59.0267 72.4882 58.7829 71.8987 58.6497C71.6413 59.0684 71.3806 59.4855 71.1151 59.8993C70.609 59.6435 70.1094 59.374 69.6025 59.1213C69.2536 59.52 68.9071 59.921 68.563 60.3236C68.1179 59.9899 67.6752 59.6547 67.2252 59.3283C66.8234 59.6948 66.4408 60.0822 66.0334 60.4423H65.8834C65.5417 60.0734 65.1929 59.7108 64.8143 59.3796C64.3772 59.6916 63.9385 60.002 63.4989 60.31C63.1557 59.9162 62.814 59.5216 62.4747 59.1253C61.9735 59.3876 61.473 59.6499 60.9685 59.9041C60.6862 59.4839 60.4047 59.0652 60.1231 58.6457C59.5649 58.7845 59.0356 59.0107 58.499 59.2144C58.2183 58.7885 58.0346 58.2006 57.4916 58.0466C53.6402 56.5981 50.1923 53.888 48.1912 50.2588C47.6129 49.2554 47.2512 48.1518 46.9103 47.0506C46.0112 47.365 45.0648 47.7323 44.0984 47.5423C43.5618 47.4155 43.4455 46.7883 43.1937 46.3721C41.9962 46.5076 40.8324 46.9103 39.6157 46.8758C39.3519 46.8573 39.0816 46.7563 38.9027 46.5566C38.6196 46.2173 38.5827 45.7337 38.2916 45.4024C37.0067 45.2332 35.6625 45.5708 34.4089 45.1915C33.7825 44.9581 33.8795 44.1384 33.4633 43.7342C31.8007 43.1888 29.9183 43.597 28.331 42.7709C27.9757 42.4012 28.0286 41.8149 27.8867 41.3473C26.6435 41.0738 25.3707 40.9198 24.158 40.5188C24.069 40.4843 23.984 40.4362 23.9142 40.3696C23.8019 39.8338 23.7883 39.2844 23.7177 38.7431C23.7185 38.6244 23.5942 38.5835 23.5075 38.5385C22.586 38.1664 21.5778 38.0284 20.6916 37.5665C20.4429 37.4774 20.3146 37.2144 20.3427 36.9625C20.3892 36.5447 20.5697 36.1589 20.6924 35.7603C19.6056 35.1636 18.4434 34.7256 17.3214 34.2035C17.4465 33.5258 17.6133 32.8537 17.8748 32.2152C16.9412 31.8062 16.0133 31.3659 15.2305 30.7002V30.4123C15.6034 29.8572 15.9643 29.2493 16.5354 28.8755C16.9027 28.7986 17.2845 28.8763 17.655 28.8852C20.6563 29.2076 23.6816 29.4322 26.6997 29.2477C30.0057 28.9774 33.3261 28.9445 36.6402 29.036C40.271 29.2148 43.9163 29.6062 47.5479 29.2268C50.3439 28.9285 53.2096 28.6839 55.9766 29.3311C56.5918 29.5701 57.1732 29.2092 57.7315 28.9975C59.7454 28.209 61.8804 27.7511 64.0331 27.5586ZM57.6328 29.842C58.0034 30.0353 58.3779 30.2342 58.7829 30.3433C59.6532 30.2029 60.4809 29.8797 61.3463 29.7129C62.6889 29.3808 64.0716 29.2669 65.4487 29.1851C67.9182 29.1506 70.3765 29.6102 72.708 30.4099C73.2486 30.6408 73.7699 30.2206 74.207 29.9439C72.9895 29.3616 71.6653 29.0376 70.3572 28.7328C69.005 28.4224 67.6214 28.2732 66.2371 28.2163C63.3032 28.2371 60.3646 28.7625 57.6328 29.842ZM16.7311 29.4667C16.2354 29.6415 15.9098 30.089 15.5922 30.4836C16.0317 30.6882 16.4696 30.8999 16.9292 31.0595C18.5934 31.6979 20.4117 31.5127 22.1537 31.6241C26.2369 31.6915 30.3185 31.8198 34.3993 31.9658C36.6714 32.0613 38.9468 32.0396 41.2166 32.1816C41.2487 32.0629 41.2808 31.9442 41.3121 31.8255C40.0224 31.6265 38.7359 31.3916 37.4358 31.2696C34.3463 31.0042 31.2424 30.9552 28.1433 30.9119C27.7864 30.9488 27.4584 30.7996 27.1913 30.5815C28.0142 30.5093 28.8395 30.4323 29.6672 30.4467C32.6524 30.4965 35.64 30.6104 38.6132 30.8951C40.9415 31.2079 43.2682 31.6161 45.6254 31.5993C48.0067 31.7453 50.3912 31.4252 52.7708 31.6298C53.4486 31.6979 54.1511 31.8078 54.7487 32.1535C55.0759 32.5272 55.3398 33.0261 55.209 33.5394C55.0534 35.0064 53.7493 36.0506 53.5873 37.5127C53.544 38.0276 53.872 38.4271 54.2233 38.7519C54.5602 38.4351 54.8706 38.0926 55.1497 37.7229C54.6372 37.1358 54.7046 36.2471 55.1713 35.6584C55.7665 34.6198 56.8396 34.0102 57.5815 33.0959C57.9937 32.5978 58.5022 32.0789 58.5913 31.4076C58.491 30.9288 57.9817 30.7018 57.5751 30.5342C55.4432 29.696 53.0997 29.6712 50.8435 29.7434C48.6227 29.8476 46.405 30.0209 44.1842 30.0971C41.2784 30.0112 38.3846 29.6896 35.4788 29.5966C32.6292 29.441 29.7875 29.7811 26.9403 29.8131C24.6376 29.9102 22.3325 29.7794 20.0395 29.5781C18.9383 29.5043 17.8323 29.3078 16.7311 29.4667ZM105.851 29.8356C104.249 29.7979 102.648 29.7265 101.049 29.6383C97.4911 29.4009 93.9332 29.7562 90.385 29.9872C88.8884 30.1139 87.3829 30.1331 85.8879 29.9856C82.8562 29.8564 79.8028 29.4987 76.78 29.9198C75.6771 30.1043 74.5278 30.3264 73.5966 30.9865C73.2798 31.2239 73.3969 31.6546 73.5598 31.9466C74.1236 32.974 75.0451 33.7247 75.8753 34.5267C76.4495 35.1202 77.0623 35.7883 77.2026 36.6345C77.278 37.0435 76.9997 37.3619 76.8297 37.7004C77.0807 38.0766 77.3719 38.4222 77.6694 38.7631C77.963 38.5442 78.2902 38.2899 78.3536 37.9041C78.4891 36.815 77.7464 35.9383 77.3069 35.0184C76.9452 34.2965 76.5145 33.4047 76.9067 32.6107C77.0895 32.1062 77.6405 31.9474 78.1009 31.7966C79.7226 31.43 81.4021 31.5776 83.0503 31.6097C84.3705 31.6995 85.6922 31.5889 87.014 31.568C89.1314 31.5399 91.2183 31.1445 93.3157 30.8903C94.8788 30.6906 96.4564 30.6657 98.0268 30.5518C100.288 30.4941 102.556 30.3649 104.812 30.6047C104.51 30.8157 104.146 30.9312 103.776 30.9119C100.938 30.9384 98.1006 31.0162 95.271 31.2287C93.7287 31.325 92.2104 31.6169 90.6825 31.8279C90.7475 32.0468 90.8109 32.2642 90.8839 32.4815C90.8774 32.3676 90.871 32.2529 90.867 32.1383C97.844 31.961 104.819 31.6731 111.798 31.5592C113.397 31.5664 115.003 31.2456 116.422 30.4941C116.029 29.8869 115.389 29.2758 114.605 29.4073C111.689 29.5757 108.777 29.9559 105.851 29.8356ZM59.1976 30.9256C59.2706 31.6033 59.3091 32.354 58.8463 32.9162C57.8935 34.2412 56.4827 35.1619 55.5387 36.4965C55.412 36.6834 55.3486 36.9016 55.2868 37.1165C56.145 36.3939 57.0032 35.656 57.9857 35.1034C61.9903 32.7967 66.9967 32.3861 71.3485 33.9196C73.3408 34.5845 75.1342 35.7386 76.7094 37.1141C76.5586 36.6938 76.3637 36.2816 76.0437 35.9624C75.0347 34.7569 73.6488 33.8683 72.8788 32.4687C72.6551 32.0645 72.7922 31.5816 72.7786 31.1437C68.4652 29.4209 63.5936 29.5966 59.1976 30.9256ZM85.5631 32.1671C85.6954 32.4406 85.8871 32.727 86.22 32.7558C87.6741 32.9435 89.2605 33.1392 90.5839 32.3732C90.527 32.1864 90.466 32.0003 90.3978 31.8174C88.7913 32.0059 87.1704 31.9939 85.5631 32.1671ZM41.5358 31.884C41.5013 32.0468 41.4685 32.2104 41.438 32.3741C42.0219 32.6556 42.6322 32.9619 43.2995 32.9186C44.1673 32.8866 45.0408 32.8609 45.8989 32.7141C46.1885 32.6788 46.2903 32.3716 46.4163 32.1543C44.7953 31.9899 43.1648 31.9089 41.5358 31.884ZM18.182 32.1222C17.8772 32.5954 17.5636 33.1392 17.57 33.7103C17.955 34.072 18.5132 34.1458 19.0009 34.2925C20.459 34.7072 21.9829 34.8002 23.4915 34.7818C25.8888 34.8267 28.2789 34.6214 30.6738 34.57C34.4755 34.4545 38.2715 34.1995 42.0732 34.0976C42.0371 34.2011 42.0002 34.3038 41.9649 34.4072C42.09 34.3471 42.2152 34.2853 42.3395 34.2228L42.4197 33.4207C41.7195 33.0349 41.0233 32.4847 40.1764 32.5433C36.1036 32.4382 32.0292 32.4093 27.9573 32.3187C24.6978 32.2858 21.4415 32.119 18.182 32.1222ZM46.6408 32.1142C46.5366 32.3789 46.4532 32.6508 46.389 32.9275C46.6184 33.0798 46.8197 33.2932 47.0828 33.3878C47.4766 33.3934 47.8455 33.2178 48.2249 33.1336C47.795 33.5667 47.0322 33.8233 47.0683 34.5572C47.3057 34.6142 47.5447 34.6887 47.7918 34.6791C48.4101 34.7184 48.8906 34.2909 49.4311 34.068C48.9379 34.6631 48.0243 34.9663 47.9482 35.83C48.3797 36.0169 48.8601 36.1412 49.3269 35.9921C49.9493 35.7531 50.481 35.3344 51.0047 34.931C50.5636 35.5549 49.9565 36.0322 49.4865 36.6313C49.2755 36.9056 49.537 37.3587 49.8787 37.3467C50.7473 37.4149 51.3384 36.6762 51.9239 36.1565C51.5854 36.8823 50.9261 37.5007 50.9887 38.3589C51.2646 38.3789 51.5349 38.3926 51.8124 38.411C52.0386 38.2113 52.268 38.0116 52.4917 37.8079C52.4203 38.164 52.2158 38.573 52.3907 38.9211C52.7588 39.3053 53.3475 39.1048 53.8175 39.0887C53.5071 38.5409 53.0925 37.9723 53.2946 37.3002C53.4566 36.5767 53.9378 35.976 54.2883 35.336C54.6468 34.7465 55.0623 34.0992 54.8978 33.371C54.6821 32.9571 54.2193 32.7654 53.8007 32.6195C52.1148 32.1078 50.3334 32.2473 48.5978 32.1759C47.9458 32.1391 47.2929 32.1302 46.6408 32.1142ZM78.1891 32.6099C77.6871 32.7919 76.9909 33.0855 77.0334 33.7175C77.2371 35.174 78.5998 36.1805 78.7522 37.6603C78.7642 38.2257 78.3688 38.6621 78.1731 39.1633C78.6239 39.1104 79.2262 39.2756 79.5767 38.8874C79.8004 38.5706 79.5807 38.1728 79.547 37.8295C79.7371 38.0164 79.9296 38.2017 80.1245 38.3862C80.345 38.3773 80.787 38.3597 81.0075 38.3517C81.0693 37.5191 80.479 36.9016 80.094 36.2303C80.5359 36.5992 80.945 37.0347 81.4895 37.2561C81.8352 37.4109 82.2162 37.2705 82.5731 37.2216C82.4945 36.9337 82.5178 36.5936 82.3012 36.3658C81.8697 35.9046 81.419 35.4587 81.046 34.9478C81.7582 35.4852 82.529 36.2704 83.5147 36.0201C83.8235 36.0274 84.0296 35.7218 83.9622 35.4338C83.5628 34.9205 83.0206 34.5452 82.5643 34.0872C82.9284 34.2605 83.2853 34.4497 83.6591 34.6021C84.0585 34.7746 84.4996 34.6334 84.9086 34.5596C84.9119 33.8161 84.1804 33.5162 83.7072 33.1103C84.2197 33.2106 84.9295 33.6493 85.3546 33.1191C85.7444 32.8681 85.4516 32.4462 85.377 32.1158C82.9837 32.3019 80.5343 31.9987 78.1891 32.6099ZM91.6658 32.5465C90.8959 32.5224 90.2134 32.9467 89.607 33.375C92.5633 33.545 95.5221 33.6645 98.4808 33.8017C101.983 33.9188 105.483 34.1409 108.99 34.153C110.879 34.2252 112.82 34.2508 114.64 33.6613C114.441 33.152 114.156 32.6844 113.884 32.212C106.477 32.2177 99.0727 32.5176 91.6658 32.5465ZM45.7401 33.128C44.8451 33.2595 43.9371 33.3092 43.0501 33.4857C42.6483 33.5795 42.54 34.0728 42.6074 34.4265C42.7942 34.6831 43.1078 34.8074 43.3942 34.9157C44.1962 34.8877 44.9718 34.6502 45.7586 34.5075C46.1468 34.4056 46.5863 34.3727 46.9151 34.1185C46.9336 33.9268 46.8437 33.7471 46.701 33.6236C46.4251 33.4031 46.1371 33.0558 45.7401 33.128ZM85.928 33.1512C85.5751 33.3694 85.1068 33.6589 85.0851 34.1177C85.3867 34.3767 85.8077 34.4064 86.1783 34.4971C86.8632 34.6238 87.5401 34.7994 88.2299 34.9061C88.7071 35.0015 89.0737 34.6663 89.4554 34.4529C89.3375 34.0952 89.3479 33.5506 88.8908 33.4616C87.9163 33.2763 86.921 33.152 85.928 33.1512ZM64.9129 33.7736C61.7304 34.0022 58.5455 35.1267 56.153 37.2825C54.8329 38.48 53.7461 39.9975 53.3299 41.7531C52.916 43.7045 53.2112 45.8355 54.2883 47.531C55.1633 49.0413 56.4995 50.2291 57.96 51.1595C60.6846 52.8317 63.9497 53.6177 67.1378 53.3346C70.6957 53.0683 74.2896 51.6255 76.6805 48.9065C77.9854 47.4372 78.8685 45.5099 78.8276 43.5192C78.8588 41.312 77.7544 39.2347 76.2378 37.6932C73.2927 34.7834 68.9937 33.4801 64.9129 33.7736ZM89.5428 33.833C89.6166 34.2797 89.6367 34.7313 89.6126 35.1828C93.2844 35.6873 96.9874 35.907 100.674 36.2744C103.076 36.4396 105.463 36.7805 107.865 36.9377C109.291 36.8992 110.88 37.0925 112.156 36.3073C112.095 35.8934 112.03 35.4643 111.787 35.1106C111.428 34.9141 110.984 34.9887 110.594 34.931C104.5 34.5765 98.399 34.3543 92.3067 33.9813C91.3843 33.9396 90.466 33.8145 89.5428 33.833ZM38.7632 34.7377C32.8762 35.1756 26.9724 35.2983 21.0757 35.5646C20.8359 36.0089 20.6082 36.4645 20.4718 36.9537C22.0254 37.6058 23.7498 37.7654 25.4164 37.6018C31.3571 37.0877 37.2746 36.3129 43.2113 35.7659C42.6587 36.3578 41.8037 36.3778 41.0538 36.4588C35.6673 37.1005 30.2872 37.7951 24.8911 38.3485C24.5767 38.4086 24.0497 38.3725 23.9783 38.7936C23.7842 39.2155 23.9045 39.7657 24.3818 39.902C26.0468 40.4041 27.8378 40.4979 29.5517 40.194C32.1977 39.7617 34.8163 39.1842 37.435 38.6123C39.6117 38.1929 41.7805 37.7317 43.9692 37.378C43.6239 37.1974 43.2973 36.9833 42.9939 36.7388C43.083 36.4059 43.184 36.0763 43.2971 35.7506C42.8303 35.3312 42.4036 34.8034 41.7772 34.6254C40.7715 34.5805 39.7673 34.692 38.7632 34.7377ZM44.8258 35.178C44.3871 35.2887 43.9468 35.4274 43.5706 35.6841C43.391 35.9343 43.3533 36.2527 43.2715 36.5423C43.9027 36.7917 44.5908 37.1278 45.2758 36.908C45.8187 36.7267 46.3353 36.4781 46.8646 36.2632C47.2849 36.0691 47.8335 35.9255 47.8736 35.3657C47.5407 35.2029 47.2103 35.0256 46.855 34.9197C46.1644 34.8026 45.4859 35.0064 44.8258 35.178ZM85.142 34.9125C84.6857 35.02 84.186 35.2646 84.1066 35.7843C84.9832 36.2006 85.8687 36.6056 86.783 36.9321C87.4599 37.1494 88.1176 36.7596 88.7368 36.5391C88.6333 36.2728 88.6012 35.976 88.4641 35.725C88.2636 35.49 87.9235 35.4475 87.654 35.3376C86.8424 35.0833 86.005 34.7994 85.142 34.9125ZM88.7873 35.6335C88.833 36.0642 88.8715 36.4965 88.8868 36.9296C93.8955 37.6603 98.8794 38.5482 103.881 39.327C105.452 39.4946 107.059 39.4842 108.619 39.2219C109.292 39.0583 108.817 38.1905 108.761 37.7349C106.468 37.3932 104.154 37.2208 101.855 36.9361C98.6436 36.604 95.4346 36.2543 92.2265 35.8934C91.0828 35.7747 89.9423 35.5429 88.7873 35.6335ZM47.1477 36.5286C46.4106 36.8567 45.6848 37.212 44.9702 37.5865C45.0263 37.86 45.0833 38.1327 45.141 38.407C45.7064 38.6035 46.3144 38.8297 46.9175 38.6332C47.6907 38.3324 48.4101 37.9041 49.0951 37.4389C49.3541 37.2729 49.2948 36.8134 49.0229 36.6794C48.4663 36.361 47.738 36.211 47.1477 36.5286ZM83.0287 36.6545C82.7616 36.7636 82.7343 37.0836 82.6397 37.3194C83.3984 37.7654 84.1323 38.2626 84.9391 38.6204C85.4364 38.8489 86.0195 38.719 86.5071 38.5185C86.84 38.395 87.002 38.0212 86.9835 37.6852C86.917 37.4903 86.69 37.4381 86.5376 37.3371C85.8518 36.9954 85.1613 36.661 84.4483 36.3835C83.9598 36.2784 83.4626 36.4372 83.0287 36.6545ZM87.2522 37.6563C87.1455 37.8552 87.1287 38.0878 87.075 38.3043C87.2843 38.2859 87.4976 38.2803 87.7038 38.334C91.1445 39.2933 94.623 40.1097 98.0702 41.0449C100.152 41.6256 102.331 42.1076 104.5 41.8341C105.175 41.7355 105.238 40.9062 105.357 40.3776C104.479 40.129 103.579 39.9766 102.688 39.7953C99.1674 39.1321 95.644 38.492 92.1198 37.8552C90.8317 37.6314 89.53 37.4093 88.2179 37.4414C87.8979 37.4662 87.5209 37.4494 87.2522 37.6563ZM39.3992 38.7358C35.6216 39.4914 31.8688 40.364 28.104 41.1773C28.1145 41.6617 28.2612 42.236 28.7954 42.3787C30.0979 42.7148 31.4694 42.7757 32.8072 42.6586C34.2862 42.4605 35.6922 41.928 37.119 41.5157C39.8163 40.7506 42.4951 39.9205 45.1755 39.0984C44.987 38.6388 44.882 38.1528 44.7649 37.6723C42.949 37.8769 41.1869 38.3773 39.3992 38.7358ZM49.1376 37.9723C48.3845 38.4014 47.6835 38.9171 46.9512 39.3799C47.0338 39.6205 47.0138 39.963 47.2536 40.125C47.5808 40.1956 47.9241 40.1843 48.2585 40.1908C49.2715 40.1434 49.9565 39.3053 50.6157 38.6428C50.9101 38.4455 50.7088 38.0004 50.4176 37.929C49.9966 37.8761 49.549 37.8632 49.1376 37.9723ZM81.5898 37.9338C81.2489 37.9907 81.1278 38.496 81.3869 38.7166C81.9042 39.2195 82.4392 39.7167 83.0607 40.0889C83.6005 40.2934 84.1844 40.1707 84.737 40.1113C84.9832 39.9782 84.9431 39.6197 85.0498 39.4047C84.413 38.9965 83.7874 38.5706 83.157 38.1536C82.7295 37.7654 82.1063 37.9049 81.5898 37.9338ZM85.9665 39.4023C88.0246 40.2116 90.0457 41.1139 92.0797 41.9817C93.2001 42.4597 94.2893 43.0115 95.429 43.4446C96.9128 43.9555 98.5466 44.0927 100.082 43.7494C100.459 43.5016 100.613 43.0444 100.772 42.6418C100.191 42.3907 99.5748 42.2392 98.97 42.0587C95.733 41.0963 92.4887 40.1587 89.2493 39.2058C88.5844 39.0438 87.9299 38.8233 87.2482 38.7495C86.7894 38.8882 86.4012 39.201 85.9665 39.4023ZM50.866 39.0527C50.2356 39.4601 49.7391 40.0344 49.2202 40.5685C49.383 40.8484 49.4768 41.1997 49.7463 41.3986C50.1674 41.5245 50.7 41.5919 51.0176 41.2101C51.5854 40.6479 52.1324 40.0247 52.4524 39.2836C52.0041 38.9572 51.3881 38.8152 50.866 39.0527ZM79.6136 39.5347C79.9665 40.1643 80.4413 40.7305 80.9786 41.2126C81.3315 41.5735 81.8801 41.4066 82.3229 41.4925C82.4247 41.1692 82.7199 40.8589 82.6557 40.4987C82.4648 40.1001 82.063 39.8491 81.7614 39.5435C81.3885 39.2339 80.9778 38.8152 80.4389 38.942C80.0972 38.8866 79.539 39.1168 79.6136 39.5347ZM42.8287 40.2501C40.8814 40.9302 38.9011 41.5141 36.9698 42.2408C35.8975 42.6771 34.7514 42.9153 33.7135 43.4366C33.825 43.7751 33.9188 44.1352 34.1394 44.4199C34.4714 44.6365 34.8981 44.6012 35.2799 44.6405C36.6458 44.6284 38.1167 44.7359 39.3695 44.0774C41.1982 43.1896 42.9891 42.2255 44.8234 41.3489C45.5308 40.9968 46.2222 40.6054 46.9729 40.3488C46.8149 40.0231 46.7595 39.5146 46.3256 39.4537C45.1025 39.355 43.9781 39.9301 42.8287 40.2501ZM52.4388 39.8226C52.0634 40.2677 51.7675 40.7738 51.4876 41.2815C51.3905 41.474 51.2702 41.709 51.3961 41.9175C51.571 42.3466 52.0763 42.4461 52.4797 42.5407C52.6834 41.4836 53.0411 40.4723 53.5023 39.5026C53.1446 39.5932 52.7412 39.5924 52.4388 39.8226ZM78.4113 39.4914C78.8797 40.4578 79.3312 41.4411 79.5045 42.5111C80.0042 42.5295 80.5792 42.1967 80.6554 41.6842C80.4188 41.0241 80.0002 40.4378 79.5855 39.8763C79.2903 39.5555 78.8067 39.5844 78.4113 39.4914ZM85.2944 39.6205C85.1132 40.0576 84.948 40.5541 84.4635 40.7281C86.7028 41.9111 88.6999 43.4847 90.8454 44.8201C91.6089 45.2933 92.5168 45.396 93.3902 45.4955C94.1041 45.5644 94.8724 45.6775 95.5606 45.408C95.7627 45.1546 95.7539 44.8033 95.8084 44.5025C93.0301 43.1543 90.243 41.8237 87.4439 40.518C86.7413 40.1891 86.0668 39.7625 85.2944 39.6205ZM46.1083 41.1925C43.6211 42.5359 41.0851 43.7847 38.6028 45.1377C38.622 45.57 38.8281 46.0096 39.3029 46.0697C40.3905 46.1555 41.4877 45.9526 42.5239 45.627C43.8441 45.0543 44.9381 44.0927 46.1179 43.2898C47.1317 42.5311 48.2385 41.8558 49.059 40.8749C48.0877 40.5605 46.9857 40.6607 46.1083 41.1925ZM83.1145 40.8107C82.7471 41.1644 82.6317 41.705 82.2435 42.0483C84.0737 43.1599 85.539 44.764 87.342 45.9125C87.9516 46.336 88.7135 46.4106 89.4193 46.571C90.0104 46.7506 90.5887 46.4731 91.1205 46.2414C91.0162 45.9855 90.8863 45.7321 90.6304 45.5989C88.7256 44.1889 86.836 42.7581 84.9375 41.3401C84.4194 40.9455 83.7818 40.664 83.1145 40.8107ZM45.2605 44.517C44.598 45.0768 43.8465 45.566 43.3677 46.3063C44.3462 47.1388 45.8468 46.8645 46.8133 46.1491C48.4037 44.9757 49.614 43.37 51.2205 42.2159C50.4842 42.0114 49.5555 42.272 49.0726 41.5189C47.7685 42.4742 46.531 43.5176 45.2605 44.517ZM81.0332 42.0459C80.7829 42.3266 80.5383 42.6137 80.3009 42.9049C81.4486 43.7863 82.5041 44.7808 83.5524 45.7762C84.1756 46.3272 84.8228 46.9119 85.6481 47.13C86.0708 47.3089 86.5216 47.1412 86.9234 46.9897C86.8769 46.3641 86.3283 46.036 85.916 45.6575C84.713 44.6445 83.5829 43.5481 82.379 42.5359C82.0189 42.183 81.5 42.1437 81.0332 42.0459ZM51.1291 42.7894C49.8458 43.9162 48.7366 45.2171 47.5632 46.4531C47.734 46.6143 47.9032 46.8068 48.1455 46.8557C48.848 46.9463 49.5699 46.8525 50.2308 46.5991C51.2229 46.1619 51.7827 45.1859 52.5198 44.4448C52.4941 44.0205 52.4661 43.5978 52.4123 43.1759C51.9792 43.0645 51.5614 42.9033 51.1291 42.7894ZM79.5967 43.1006C79.535 43.7911 79.4676 44.4825 79.3986 45.173C80.1485 45.7665 80.7268 46.583 81.6066 47.0049C82.0253 47.1517 82.4736 47.2567 82.9228 47.2142C83.3046 47.3442 83.5019 47.0089 83.6855 46.7675C82.8314 45.8307 81.8825 44.9846 81.054 44.0237C80.6578 43.5978 80.236 43.0925 79.5967 43.1006ZM51.6095 46.6769C51.895 47.2198 52.6674 47.1669 53.1751 47.2607C52.9754 46.5189 52.774 45.7746 52.4965 45.0575C52.1027 45.5179 51.4667 45.9967 51.6095 46.6769ZM79.3561 45.6855C79.1283 46.3103 78.8933 46.9327 78.6567 47.5543C79.1516 47.4998 79.7924 47.4965 80.0723 47.0009C80.2207 46.4555 79.7243 46.0136 79.3561 45.6855ZM49.4584 47.6177C51.0063 51.5324 54.3845 54.5641 58.2801 56.0599C58.8118 55.1841 59.4695 54.3492 59.7133 53.3346C58.2889 52.3898 56.7666 51.5773 55.505 50.4056C54.6837 49.7455 54.0966 48.8672 53.4381 48.0596C53.1342 47.8671 52.7371 47.8936 52.4019 47.7933C51.879 47.7107 51.4475 47.3714 51.0497 47.0466C50.5235 47.2495 49.9926 47.438 49.4584 47.6177ZM80.6402 47.3113C80.3932 47.5238 80.1606 47.7628 79.8678 47.912C79.405 48.1237 78.8677 48.0427 78.4001 48.2288C77.8563 48.8368 77.4809 49.5875 76.889 50.1569C76.002 50.9959 75.0347 51.7554 73.9856 52.3802C73.4836 52.6713 72.939 52.9159 72.5235 53.3314C72.3455 53.5303 72.4818 53.8118 72.5652 54.0284C72.8628 54.6459 73.2245 55.229 73.5638 55.8241C75.1237 55.2387 76.6123 54.4093 77.8491 53.2833C79.5727 51.7963 81.0404 49.9364 81.8192 47.7805C81.4246 47.6297 81.0316 47.4709 80.6402 47.3113ZM48.1912 47.608C48.3805 48.127 48.5521 48.6563 48.8272 49.1375C49.5667 50.4681 50.2789 51.8492 51.3833 52.9224C52.4428 53.9289 53.5007 54.9636 54.7687 55.7103C55.7215 56.2661 56.688 56.8179 57.725 57.2013C57.8694 56.9294 57.9977 56.6494 58.0988 56.3583C57.0529 55.8554 55.9838 55.3902 55.0125 54.7462C53.9931 54.1415 53.1422 53.3073 52.2672 52.5189C50.8363 51.1619 49.7896 49.4407 49.0526 47.6217C48.8368 47.6185 48.4061 47.612 48.1912 47.608ZM82.1472 47.8527C81.2217 50.3318 79.4034 52.3641 77.3695 54.0067C76.2683 54.9162 74.9834 55.5579 73.6881 56.1402C73.8252 56.4425 73.9704 56.7393 74.1156 57.0384C76.1736 56.3808 77.9229 55.0069 79.4965 53.5672C81.1431 52.0361 82.3814 50.0743 83.0816 47.9393C82.7688 47.9112 82.4584 47.8815 82.1472 47.8527ZM72.1065 52.5181C68.1925 54.0901 63.6786 54.0444 59.7735 52.47C58.6835 52.0898 57.7299 51.4225 56.7441 50.8395C57.6914 51.7803 59.0709 52.0906 60.0004 53.0483C60.233 53.2929 60.0822 53.6675 59.9924 53.9482C59.528 54.974 58.8631 55.8971 58.3867 56.9181C58.1533 57.356 58.2127 57.8878 58.4076 58.3305C58.495 58.4773 58.6442 58.6361 58.8327 58.5695C59.3861 58.4428 59.8817 58.0594 60.1456 57.5574C60.7664 56.4666 60.91 55.1857 61.5019 54.0813C61.5949 54.1198 61.6879 54.1583 61.7818 54.1976C61.5789 55.1929 61.1289 56.1089 60.7656 57.0497C60.5859 57.6159 60.379 58.3169 60.7864 58.8374C60.8763 59.0564 61.1506 59.2184 61.3792 59.1181C61.9213 58.8936 62.3713 58.4372 62.5341 57.8677C62.8429 56.7665 62.8365 55.6052 63.1845 54.5112C63.2551 54.5104 63.3963 54.5096 63.4661 54.5096C63.503 55.355 63.2142 56.169 63.0169 56.9815C62.9006 57.5181 62.7033 58.0707 62.8469 58.6241C63.0081 58.9826 63.3129 59.2545 63.5816 59.5352C63.8743 59.3579 64.1574 59.1638 64.4149 58.9361C64.7108 58.5928 64.8263 58.1348 64.8512 57.6913C64.9145 56.7096 64.8351 55.7167 64.9923 54.7414C65.0693 54.7438 65.2241 54.7478 65.3011 54.7502C65.3605 55.9011 64.9298 57.0168 64.9923 58.1653C64.9883 58.7981 65.4391 59.3082 65.9283 59.6467C66.4545 59.5568 66.8491 59.0612 67.0295 58.588C67.1907 57.2678 66.5315 55.9765 66.8298 54.6636C66.9172 54.7775 67.0167 54.8874 67.0736 55.0221C67.2782 56.1265 67.0961 57.271 67.3463 58.3682C67.4899 58.9393 68.0658 59.2344 68.5077 59.5512C68.6625 59.3684 68.8117 59.1807 68.9552 58.9882C69.402 58.507 69.1509 57.7932 69.0563 57.2269C68.8774 56.3142 68.4163 55.3943 68.6817 54.4494C69.3386 55.4416 69.0908 56.7385 69.495 57.8228C69.6378 58.5535 70.358 58.8847 70.9443 59.2128C71.1649 58.8118 71.452 58.4171 71.5202 57.956C71.3549 56.6438 70.3692 55.5402 70.443 54.1824C71.225 55.0943 71.2106 56.3735 71.7752 57.3953C72.0672 58.0723 72.8106 58.3786 73.4787 58.5599C73.6785 58.0739 73.8862 57.5293 73.6841 57.0072C73.3135 56.1754 72.8612 55.3822 72.4048 54.5946C72.222 54.2521 71.9035 53.9554 71.857 53.556C72.0639 52.8823 72.7802 52.6384 73.2887 52.247C74.3947 51.4675 75.6451 50.8138 76.4463 49.6877C75.1871 50.8788 73.7579 51.9423 72.1065 52.5181Z" fill="black"/>
<path d="M64.592 33.9427C68.4555 33.5842 72.5427 34.6453 75.491 37.2351C77.0638 38.605 78.2733 40.4922 78.55 42.5895C78.8836 45.1488 77.6717 47.6985 75.8599 49.4502C74.413 50.9187 72.5403 51.8948 70.5945 52.5276C66.2691 53.8373 61.3061 53.2799 57.5678 50.6653C55.2948 49.0676 53.4765 46.5355 53.402 43.6811C53.2584 41.68 54.1438 39.7326 55.4472 38.2585C57.7057 35.5925 61.1866 34.2683 64.592 33.9427ZM63.2831 36.3945C61.432 36.8012 59.4943 37.5182 58.3329 39.1078C58.6449 39.5008 59.0315 39.8305 59.3122 40.2483C59.3579 42.5229 59.3996 44.8087 59.2865 47.0809C59.0154 47.4924 58.6305 47.8172 58.3377 48.2126C60.0565 49.9178 62.5043 50.5762 64.8391 50.8666C66.7439 50.9933 68.6977 50.9115 70.5175 50.2843C71.16 50.0365 71.7575 49.6779 72.3053 49.2617C73.0784 48.5647 73.6495 47.5573 73.5436 46.485C73.5797 44.9988 72.3598 43.9297 71.2362 43.163C71.2313 43.118 71.2225 43.029 71.2185 42.9849C71.9756 42.4491 72.8539 41.8596 73.0921 40.9028C73.2453 40.1176 73.1923 39.2378 72.7239 38.5608C72.0374 37.4765 70.8271 36.8766 69.6345 36.5188C67.5716 35.9213 65.3756 35.9991 63.2831 36.3945Z" fill="black"/>
<path d="M65.1517 37.1438C66.1864 37.0435 67.3357 36.9793 68.2428 37.5897C69.0497 38.115 69.2774 39.1681 69.2197 40.0712C69.2478 41.1379 68.7032 42.3097 67.6325 42.6642C66.6379 42.9417 65.5504 42.9578 64.5655 42.6241C63.6936 42.3354 63.0785 41.4708 63.0095 40.5653C62.878 39.6373 62.9341 38.5666 63.6239 37.8528C64.0473 37.4742 64.5751 37.1871 65.1517 37.1438ZM65.3916 43.7181C66.7582 43.5304 68.538 43.6988 69.2823 45.0503C69.798 46.2566 69.7932 47.7756 69.0497 48.8929C68.3776 49.869 67.0959 50.0398 66.0051 50.0085C65.2247 49.9395 64.4058 49.7735 63.7851 49.2642C62.8419 48.4405 62.7961 47.0442 62.9221 45.8964C63.1202 44.7102 64.2318 43.8512 65.3916 43.7181Z" fill="black"/>
<path d="M57.6344 29.8416C60.3661 28.762 63.3048 28.2367 66.2387 28.2158C67.623 28.2728 69.0065 28.4219 70.3587 28.7323C71.6669 29.0371 72.9911 29.3611 74.2085 29.9434C73.7714 30.2201 73.2501 30.6404 72.7095 30.4094C70.378 29.6098 67.9197 29.1502 65.4503 29.1847C64.0732 29.2665 62.6904 29.3804 61.3478 29.7124C60.4824 29.8793 59.6547 30.2025 58.7845 30.3428C58.3795 30.2338 58.0049 30.0349 57.6344 29.8416ZM16.7326 29.4662C17.8339 29.3074 18.9399 29.5039 20.0411 29.5777C22.3341 29.779 24.6392 29.9097 26.9418 29.8127C29.7891 29.7806 32.6307 29.4405 35.4804 29.5961C38.3862 29.6892 41.2799 30.0108 44.1857 30.0966C46.4066 30.0204 48.6242 29.8472 50.8451 29.7429C53.1012 29.6707 55.4448 29.6956 57.5766 30.5337C57.9832 30.7013 58.4925 30.9283 58.5928 31.4071C58.5038 32.0785 57.9953 32.5974 57.583 33.0954C56.8411 34.0098 55.768 34.6193 55.1729 35.658C54.7061 36.2467 54.6387 37.1353 55.1512 37.7224C54.8721 38.0922 54.5617 38.4346 54.2249 38.7514C53.8736 38.4266 53.5456 38.0272 53.5889 37.5123C53.7509 36.0502 55.055 35.0059 55.2106 33.539C55.3413 33.0257 55.0774 32.5268 54.7502 32.153C54.1527 31.8074 53.4501 31.6975 52.7724 31.6293C50.3927 31.4248 48.0083 31.7448 45.627 31.5988C43.2698 31.6157 40.9431 31.2074 38.6147 30.8946C35.6416 30.6099 32.654 30.496 29.6688 30.4463C28.8411 30.4319 28.0158 30.5089 27.1929 30.581C27.46 30.7992 27.788 30.9484 28.1449 30.9115C31.244 30.9548 34.3479 31.0037 37.4373 31.2692C38.7375 31.3911 40.0239 31.6261 41.3136 31.825C41.2823 31.9437 41.2503 32.0624 41.2182 32.1811C38.9484 32.0392 36.673 32.0608 34.4008 31.9654C30.32 31.8194 26.2384 31.6911 22.1553 31.6237C20.4132 31.5122 18.595 31.6975 16.9308 31.0591C16.4712 30.8995 16.0333 30.6877 15.5938 30.4832C15.9114 30.0886 16.237 29.641 16.7326 29.4662ZM105.852 29.8351C108.778 29.9554 111.69 29.5753 114.607 29.4069C115.391 29.2753 116.03 29.8865 116.424 30.4936C115.004 31.2451 113.399 31.5659 111.799 31.5587C104.82 31.6726 97.8455 31.9606 90.8686 32.1378C90.8726 32.2525 90.879 32.3672 90.8854 32.4811C90.8124 32.2637 90.749 32.0464 90.6841 31.8274C92.212 31.6165 93.7302 31.3245 95.2726 31.2283C98.1022 31.0157 100.94 30.9379 103.777 30.9115C104.148 30.9307 104.511 30.8152 104.814 30.6043C102.558 30.3645 100.289 30.4936 98.0284 30.5514C96.458 30.6653 94.8804 30.6901 93.3172 30.8898C91.2198 31.1441 89.1329 31.5395 87.0155 31.5676C85.6938 31.5884 84.372 31.6991 83.0519 31.6093C81.4037 31.5772 79.7242 31.4296 78.1025 31.7961C77.6421 31.9469 77.0911 32.1057 76.9082 32.6102C76.516 33.4042 76.9467 34.2961 77.3084 35.0179C77.748 35.9379 78.4907 36.8145 78.3551 37.9037C78.2917 38.2895 77.9645 38.5437 77.671 38.7627C77.3734 38.4218 77.0823 38.0761 76.8312 37.7C77.0013 37.3615 77.2796 37.0431 77.2042 36.634C77.0638 35.7879 76.4511 35.1198 75.8768 34.5263C75.0467 33.7242 74.1251 32.9735 73.5613 31.9461C73.3985 31.6542 73.2814 31.2235 73.5982 30.9861C74.5294 30.326 75.6787 30.1038 76.7815 29.9194C79.8044 29.4983 82.8578 29.856 85.8895 29.9851C87.3845 30.1327 88.8899 30.1135 90.3865 29.9867C93.9348 29.7557 97.4926 29.4004 101.05 29.6378C102.65 29.7261 104.251 29.7974 105.852 29.8351Z" fill="white"/>
<path d="M59.198 30.925C63.594 29.5961 68.4656 29.4204 72.7789 31.1432C72.7926 31.5811 72.6554 32.0639 72.8792 32.4682C73.6492 33.8677 75.0351 34.7564 76.0441 35.9619C76.3641 36.2811 76.559 36.6933 76.7098 37.1136C75.1345 35.7381 73.3412 34.584 71.3489 33.9191C66.997 32.3856 61.9907 32.7962 57.9861 35.1029C57.0036 35.6555 56.1454 36.3934 55.2872 37.116C55.349 36.9011 55.4123 36.6829 55.5391 36.496C56.4831 35.1614 57.8939 34.2407 58.8467 32.9157C59.3095 32.3535 59.271 31.6028 59.198 30.925ZM85.5635 32.1666C87.1708 31.9934 88.7917 32.0054 90.3982 31.8169C90.4664 31.9998 90.5273 32.1858 90.5843 32.3727C89.2609 33.1387 87.6745 32.943 86.2204 32.7553C85.8875 32.7264 85.6958 32.4401 85.5635 32.1666ZM41.5362 31.8835C43.1652 31.9083 44.7957 31.9893 46.4166 32.1538C46.2907 32.3711 46.1889 32.6783 45.8993 32.7136C45.0411 32.8604 44.1677 32.886 43.2999 32.9181C42.6326 32.9614 42.0223 32.655 41.4384 32.3735C41.4688 32.2099 41.5017 32.0463 41.5362 31.8835ZM18.1824 32.1217C21.4419 32.1185 24.6982 32.2853 27.9577 32.3182C32.0296 32.4088 36.104 32.4377 40.1768 32.5428C41.0237 32.4842 41.7199 33.0344 42.4201 33.4202L42.3399 34.2222C42.2155 34.2848 42.0904 34.3465 41.9653 34.4067C42.0006 34.3032 42.0375 34.2006 42.0736 34.0971C38.2719 34.199 34.4758 34.454 30.6742 34.5695C28.2793 34.6208 25.8892 34.8262 23.4919 34.7813C21.9832 34.7997 20.4594 34.7067 19.0013 34.292C18.5136 34.1452 17.9554 34.0714 17.5704 33.7097C17.564 33.1387 17.8776 32.5949 18.1824 32.1217ZM46.6412 32.1137C47.2933 32.1297 47.9461 32.1385 48.5982 32.1754C50.3338 32.2468 52.1152 32.1072 53.801 32.619C54.2197 32.7649 54.6825 32.9566 54.8982 33.3705C55.0627 34.0987 54.6472 34.746 54.2887 35.3355C53.9382 35.9755 53.457 36.5762 53.295 37.2997C53.0928 37.9718 53.5075 38.5404 53.8179 39.0882C53.3479 39.1043 52.7592 39.3048 52.3911 38.9206C52.2162 38.5725 52.4207 38.1635 52.4921 37.8074C52.2683 38.0111 52.039 38.2108 51.8128 38.4105C51.5353 38.392 51.265 38.3784 50.9891 38.3584C50.9265 37.5002 51.5858 36.8818 51.9243 36.156C51.3388 36.6757 50.7477 37.4144 49.8791 37.3462C49.5374 37.3582 49.2759 36.9051 49.4869 36.6308C49.9569 36.0316 50.564 35.5544 51.0051 34.9304C50.4814 35.3339 49.9496 35.7525 49.3273 35.9915C48.8605 36.1407 48.38 36.0164 47.9485 35.8295C48.0247 34.9657 48.9383 34.6626 49.4315 34.0674C48.8909 34.2904 48.4105 34.7179 47.7921 34.6786C47.5451 34.6882 47.3061 34.6136 47.0687 34.5567C47.0326 33.8228 47.7954 33.5662 48.2252 33.1331C47.8459 33.2173 47.4769 33.3929 47.0831 33.3873C46.8201 33.2927 46.6188 33.0793 46.3894 32.9269C46.4535 32.6502 46.5369 32.3783 46.6412 32.1137ZM78.1895 32.6093C80.5347 31.9982 82.9841 32.3013 85.3774 32.1153C85.452 32.4457 85.7448 32.8676 85.355 33.1186C84.9299 33.6488 84.2201 33.2101 83.7076 33.1098C84.1808 33.5156 84.9122 33.8156 84.909 34.5591C84.5 34.6329 84.0589 34.774 83.6594 34.6016C83.2857 34.4492 82.9288 34.2599 82.5647 34.0867C83.021 34.5447 83.5632 34.92 83.9626 35.4333C84.03 35.7212 83.8239 36.0268 83.5151 36.0196C82.5294 36.2698 81.7586 35.4846 81.0464 34.9473C81.4193 35.4582 81.8701 35.9041 82.3016 36.3653C82.5181 36.5931 82.4949 36.9331 82.5735 37.2211C82.2166 37.27 81.8356 37.4103 81.4899 37.2556C80.9453 37.0342 80.5363 36.5987 80.0944 36.2297C80.4794 36.9011 81.0697 37.5186 81.0079 38.3511C80.7873 38.3592 80.3454 38.3768 80.1248 38.3856C79.93 38.2012 79.7375 38.0159 79.5474 37.829C79.5811 38.1723 79.8008 38.5701 79.5771 38.8869C79.2266 39.2751 78.6242 39.1099 78.1735 39.1628C78.3692 38.6615 78.7646 38.2252 78.7526 37.6598C78.6002 36.18 77.2375 35.1735 77.0338 33.7169C76.9913 33.0849 77.6874 32.7914 78.1895 32.6093ZM91.6662 32.546C99.0731 32.5171 106.478 32.2171 113.884 32.2115C114.156 32.6839 114.442 33.1515 114.641 33.6608C112.821 34.2503 110.879 34.2246 108.99 34.1525C105.484 34.1404 101.984 33.9183 98.4812 33.8012C95.5224 33.664 92.5637 33.5445 89.6074 33.3745C90.2137 32.9462 90.8963 32.5219 91.6662 32.546Z" fill="white"/>
<path d="M45.741 33.1279C46.138 33.0557 46.4259 33.403 46.7018 33.6235C46.8446 33.747 46.9344 33.9267 46.916 34.1184C46.5871 34.3726 46.1476 34.4055 45.7594 34.5074C44.9726 34.6501 44.197 34.8875 43.395 34.9156C43.1087 34.8073 42.7951 34.683 42.6082 34.4264C42.5408 34.0727 42.6491 33.5794 43.0509 33.4856C43.938 33.3091 44.8459 33.2594 45.741 33.1279ZM85.9289 33.1511C86.9218 33.1519 87.9171 33.2762 88.8916 33.4615C89.3488 33.5505 89.3383 34.0951 89.4563 34.4528C89.0745 34.6662 88.7079 35.0014 88.2307 34.906C87.541 34.7993 86.8641 34.6237 86.1791 34.4969C85.8086 34.4063 85.3875 34.3766 85.0859 34.1176C85.1076 33.6588 85.576 33.3693 85.9289 33.1511ZM64.9138 33.7735C68.9946 33.48 73.2935 34.7833 76.2386 37.6931C77.7553 39.2346 78.8597 41.3119 78.8284 43.5191C78.8693 45.5098 77.9863 47.4371 76.6813 48.9064C74.2904 51.6253 70.6965 53.0682 67.1386 53.3345C63.9505 53.6176 60.6854 52.8316 57.9609 51.1594C56.5004 50.229 55.1642 49.0412 54.2891 47.5309C53.212 45.8354 52.9168 43.7044 53.3307 41.753C53.747 39.9973 54.8337 38.4799 56.1539 37.2824C58.5464 35.1265 61.7313 34.0021 64.9138 33.7735ZM64.593 33.9427C61.1875 34.2684 57.7066 35.5925 55.4481 38.2585C54.1448 39.7327 53.2593 41.68 53.4029 43.6811C53.4775 46.5356 55.2957 49.0676 57.5687 50.6653C61.307 53.28 66.27 53.8374 70.5954 52.5276C72.5412 51.8948 74.414 50.9187 75.8608 49.4502C77.6727 47.6986 78.8845 45.1489 78.5509 42.5895C78.2742 40.4922 77.0647 38.605 75.4919 37.2351C72.5436 34.6453 68.4564 33.5842 64.593 33.9427ZM89.5437 33.8329C90.4668 33.8144 91.3852 33.9395 92.3075 33.9812C98.3998 34.3542 104.501 34.5763 110.595 34.9309C110.985 34.9886 111.429 34.914 111.788 35.1105C112.031 35.4642 112.095 35.8933 112.157 36.3072C110.881 37.0924 109.292 36.8991 107.866 36.9376C105.463 36.7804 103.077 36.4395 100.674 36.2743C96.9882 35.9069 93.2852 35.6872 89.6134 35.1827C89.6375 34.7311 89.6175 34.2796 89.5437 33.8329ZM38.764 34.7376C39.7682 34.6918 40.7723 34.5804 41.7781 34.6253C42.4045 34.8033 42.8312 35.3311 43.298 35.7505C43.1849 36.0762 43.0838 36.4058 42.9948 36.7387C43.2988 36.9833 43.6244 37.1974 43.9701 37.3779C41.7813 37.7316 39.6126 38.1928 37.4358 38.6122C34.8172 39.1841 32.1985 39.7615 29.5526 40.1938C27.8386 40.4978 26.0476 40.404 24.3826 39.9019C23.9054 39.7656 23.7851 39.2154 23.9792 38.7935C24.0506 38.3724 24.5775 38.4085 24.8919 38.3483C30.288 37.7949 35.6681 37.1004 41.0546 36.4587C41.8046 36.3777 42.6595 36.3577 43.2121 35.7658C37.2754 36.3128 31.358 37.0875 25.4172 37.6016C23.7506 37.7653 22.0262 37.6057 20.4727 36.9536C20.609 36.4644 20.8368 36.0088 21.0766 35.5645C26.9732 35.2982 32.877 35.1755 38.764 34.7376Z" fill="white"/>
<path d="M44.8272 35.1776C45.4873 35.006 46.1658 34.8023 46.8564 34.9194C47.2117 35.0252 47.5421 35.2025 47.875 35.3653C47.8349 35.9251 47.2863 36.0687 46.866 36.2628C46.3367 36.4777 45.8202 36.7264 45.2772 36.9076C44.5922 37.1274 43.9041 36.7913 43.2729 36.5419C43.3547 36.2524 43.3924 35.934 43.572 35.6837C43.9482 35.4271 44.3885 35.2883 44.8272 35.1776ZM85.1435 34.9122C86.0065 34.7991 86.8438 35.083 87.6555 35.3372C87.9249 35.4471 88.265 35.4896 88.4655 35.7246C88.6027 35.9757 88.6347 36.2724 88.7382 36.5387C88.119 36.7593 87.4614 37.1491 86.7844 36.9317C85.8701 36.6053 84.9847 36.2002 84.108 35.784C84.1874 35.2643 84.6871 35.0196 85.1435 34.9122ZM88.7887 35.6332C89.9437 35.5426 91.0842 35.7744 92.2279 35.8931C95.4361 36.254 98.645 36.6037 101.856 36.9357C104.156 37.2204 106.47 37.3929 108.763 37.7345C108.818 38.1901 109.293 39.0579 108.621 39.2215C107.06 39.4838 105.454 39.4942 103.882 39.3266C98.8808 38.5478 93.8969 37.66 88.8882 36.9293C88.873 36.4962 88.8345 36.0639 88.7887 35.6332ZM63.2846 36.3943C65.3771 35.9989 67.5731 35.9211 69.636 36.5186C70.8286 36.8764 72.0389 37.4763 72.7254 38.5606C73.1938 39.2376 73.2468 40.1174 73.0936 40.9026C72.8554 41.8594 71.9771 42.4489 71.22 42.9847C71.224 43.0288 71.2328 43.1178 71.2377 43.1628C72.3613 43.9295 73.5812 44.9986 73.5451 46.4848C73.651 47.5571 73.0799 48.5645 72.3068 49.2615C71.759 49.6777 71.1615 50.0363 70.519 50.2841C68.6992 50.9113 66.7454 50.9931 64.8406 50.8664C62.5058 50.576 60.058 49.9176 58.3392 48.2124C58.632 47.817 59.017 47.4922 59.288 47.0807C59.4011 44.8085 59.3594 42.5227 59.3137 40.2481C59.033 39.8303 58.6464 39.5006 58.3344 39.1076C59.4958 37.518 61.4335 36.801 63.2846 36.3943ZM65.151 37.1434C64.5743 37.1867 64.0466 37.4739 63.6231 37.8524C62.9333 38.5663 62.8772 39.637 63.0087 40.5649C63.0777 41.4705 63.6929 42.3351 64.5647 42.6238C65.5496 42.9574 66.6371 42.9414 67.6317 42.6639C68.7024 42.3094 69.247 41.1376 69.2189 40.0709C69.2767 39.1678 69.0489 38.1147 68.242 37.5894C67.3349 36.979 66.1856 37.0432 65.151 37.1434ZM65.3908 43.7178C64.231 43.8509 63.1194 44.7099 62.9213 45.8961C62.7954 47.0438 62.8411 48.4402 63.7843 49.2639C64.4051 49.7732 65.2239 49.9392 66.0043 50.0082C67.0951 50.0395 68.3768 49.8686 69.0489 48.8925C69.7924 47.7753 69.7972 46.2562 69.2815 45.05C68.5372 43.6985 66.7575 43.5301 65.3908 43.7178ZM47.1491 36.5283C47.7394 36.2107 48.4677 36.3606 49.0243 36.6791C49.2962 36.813 49.3556 37.2726 49.0965 37.4386C48.4116 37.9038 47.6921 38.3321 46.919 38.6328C46.3158 38.8293 45.7079 38.6032 45.1424 38.4067C45.0847 38.1324 45.0277 37.8597 44.9716 37.5862C45.6862 37.2116 46.4121 36.8563 47.1491 36.5283ZM83.0301 36.6542C83.464 36.4368 83.9613 36.278 84.4497 36.3831C85.1627 36.6606 85.8533 36.9951 86.539 37.3367C86.6914 37.4378 86.9184 37.4899 86.9849 37.6848C87.0034 38.0209 86.8414 38.3946 86.5085 38.5181C86.0209 38.7186 85.4378 38.8486 84.9405 38.62C84.1337 38.2623 83.3998 37.765 82.6411 37.3191C82.7357 37.0833 82.763 36.7633 83.0301 36.6542ZM87.2536 37.6559C87.5223 37.449 87.8993 37.4659 88.2193 37.441C89.5314 37.4089 90.8331 37.6311 92.1212 37.8548C95.6454 38.4917 99.1688 39.1317 102.689 39.795C103.58 39.9762 104.481 40.1286 105.358 40.3773C105.239 40.9058 105.176 41.7351 104.502 41.8338C102.332 42.1073 100.154 41.6252 98.0716 41.0446C94.6244 40.1094 91.1459 39.2929 87.7052 38.3337C87.4991 38.2799 87.2857 38.2855 87.0764 38.304C87.1301 38.0874 87.147 37.8548 87.2536 37.6559ZM39.4006 38.7355C41.1884 38.377 42.9505 37.8765 44.7663 37.672C44.8834 38.1524 44.9884 38.6384 45.1769 39.098C42.4965 39.9201 39.8177 40.7502 37.1204 41.5154C35.6936 41.9276 34.2876 42.4602 32.8086 42.6583C31.4708 42.7754 30.0993 42.7144 28.7968 42.3784C28.2627 42.2356 28.1159 41.6613 28.1055 41.1769C31.8703 40.3636 35.623 39.491 39.4006 38.7355ZM49.139 37.9719C49.5505 37.8629 49.998 37.8757 50.4191 37.9286C50.7102 38 50.9115 38.4451 50.6172 38.6425C49.9579 39.3049 49.2729 40.1431 48.26 40.1904C47.9255 40.184 47.5822 40.1952 47.255 40.1246C47.0152 39.9626 47.0353 39.6201 46.9526 39.3795C47.6849 38.9168 48.3859 38.401 49.139 37.9719ZM81.5912 37.9334C82.1077 37.9046 82.7309 37.765 83.1584 38.1532C83.7888 38.5703 84.4144 38.9962 85.0512 39.4044C84.9446 39.6193 84.9847 39.9779 84.7384 40.111C84.1858 40.1703 83.6019 40.2931 83.0622 40.0885C82.4406 39.7164 81.9056 39.2191 81.3883 38.7162C81.1292 38.4957 81.2503 37.9904 81.5912 37.9334ZM85.968 39.402C86.4027 39.2007 86.7909 38.8879 87.2496 38.7491C87.9314 38.8229 88.5858 39.0435 89.2507 39.2055C92.4902 40.1583 95.7344 41.0959 98.9715 42.0583C99.5762 42.2388 100.192 42.3904 100.774 42.6414C100.615 43.0441 100.46 43.5012 100.084 43.7491C98.548 44.0923 96.9142 43.9552 95.4304 43.4443C94.2907 43.0112 93.2016 42.4594 92.0811 41.9814C90.0471 41.1135 88.026 40.2112 85.968 39.402ZM50.8674 39.0523C51.3895 38.8149 52.0055 38.9569 52.4538 39.2833C52.1338 40.0244 51.5868 40.6476 51.019 41.2098C50.7014 41.5916 50.1688 41.5242 49.7478 41.3983C49.4783 41.1994 49.3844 40.8481 49.2216 40.5682C49.7405 40.034 50.237 39.4597 50.8674 39.0523ZM79.615 39.5343C79.5404 39.1165 80.0986 38.8863 80.4403 38.9416C80.9793 38.8149 81.3899 39.2336 81.7629 39.5431C82.0644 39.8487 82.4662 40.0998 82.6571 40.4984C82.7213 40.8585 82.4261 41.1689 82.3243 41.4921C81.8816 41.4063 81.333 41.5731 80.9801 41.2122C80.4427 40.7302 79.9679 40.1639 79.615 39.5343ZM42.8302 40.2497C43.9795 39.9297 45.1039 39.3547 46.3271 39.4533C46.761 39.5143 46.8163 40.0228 46.9743 40.3484C46.2236 40.605 45.5322 40.9964 44.8248 41.3485C42.9906 42.2252 41.1996 43.1892 39.3709 44.0771C38.1182 44.7356 36.6472 44.6281 35.2813 44.6401C34.8996 44.6008 34.4729 44.6361 34.1408 44.4196C33.9203 44.1348 33.8264 43.7747 33.7149 43.4363C34.7528 42.9149 35.8989 42.6767 36.9712 42.2404C38.9026 41.5138 40.8828 40.9299 42.8302 40.2497ZM52.4402 39.8223C52.7426 39.5921 53.146 39.5929 53.5037 39.5022C53.0425 40.4719 52.6848 41.4833 52.4811 42.5404C52.0777 42.4457 51.5724 42.3463 51.3976 41.9172C51.2716 41.7087 51.3919 41.4737 51.489 41.2812C51.7689 40.7735 52.0649 40.2674 52.4402 39.8223ZM78.4127 39.491C78.8081 39.584 79.2918 39.5552 79.5869 39.876C80.0016 40.4374 80.4202 41.0237 80.6568 41.6838C80.5806 42.1963 80.0056 42.5291 79.5059 42.5107C79.3327 41.4408 78.8811 40.4575 78.4127 39.491ZM85.2958 39.6201C86.0682 39.7621 86.7427 40.1888 87.4453 40.5176C90.2444 41.8233 93.0315 43.1539 95.8098 44.5022C95.7553 44.8029 95.7641 45.1542 95.562 45.4077C94.8738 45.6772 94.1055 45.5641 93.3917 45.4951C92.5182 45.3956 91.6103 45.293 90.8468 44.8198C88.7013 43.4844 86.7042 41.9108 84.4649 40.7278C84.9494 40.5537 85.1146 40.0573 85.2958 39.6201ZM46.1097 41.1921C46.9871 40.6604 48.0891 40.5601 49.0604 40.8745C48.2399 41.8554 47.1331 42.5308 46.1193 43.2895C44.9395 44.0923 43.8455 45.054 42.5254 45.6266C41.4891 45.9523 40.3919 46.1552 39.3044 46.0694C38.8296 46.0092 38.6234 45.5697 38.6042 45.1374C41.0865 43.7843 43.6226 42.5356 46.1097 41.1921ZM83.1159 40.8104C83.7832 40.6636 84.4208 40.9451 84.9389 41.3397C86.8374 42.7577 88.727 44.1886 90.6318 45.5986C90.8877 45.7317 91.0176 45.9851 91.1219 46.241C90.5901 46.4728 90.0118 46.7503 89.4207 46.5706C88.715 46.4102 87.953 46.3356 87.3435 45.9122C85.5405 44.7636 84.0751 43.1596 82.2449 42.0479C82.6331 41.7046 82.7486 41.1641 83.1159 40.8104ZM45.2619 44.5166C46.5324 43.5173 47.7699 42.4738 49.074 41.5186C49.5569 42.2717 50.4856 42.011 51.2219 42.2155C49.6154 43.3697 48.4051 44.9754 46.8147 46.1488C45.8482 46.8642 44.3476 47.1385 43.3691 46.306C43.8479 45.5657 44.5995 45.0764 45.2619 44.5166ZM81.0346 42.0455C81.5014 42.1434 82.0203 42.1827 82.3804 42.5356C83.5843 43.5477 84.7144 44.6441 85.9174 45.6571C86.3297 46.0357 86.8783 46.3637 86.9248 46.9893C86.523 47.1409 86.0722 47.3085 85.6495 47.1297C84.8242 46.9115 84.177 46.3268 83.5538 45.7758C82.5055 44.7805 81.4501 43.7859 80.3023 42.9045C80.5397 42.6134 80.7844 42.3262 81.0346 42.0455ZM51.1305 42.789C51.5628 42.9029 51.9806 43.0641 52.4137 43.1756C52.4675 43.5975 52.4956 44.0201 52.5212 44.4444C51.7841 45.1855 51.2243 46.1616 50.2322 46.5987C49.5713 46.8522 48.8495 46.946 48.1469 46.8554C47.9047 46.8064 47.7354 46.6139 47.5646 46.4527C48.738 45.2168 49.8472 43.9159 51.1305 42.789ZM79.5981 43.1002C80.2374 43.0922 80.6592 43.5975 81.0555 44.0233C81.884 44.9842 82.8328 45.8303 83.687 46.7671C83.5033 47.0085 83.306 47.3438 82.9242 47.2139C82.4751 47.2564 82.0267 47.1513 81.6081 47.0045C80.7282 46.5827 80.1499 45.7662 79.4 45.1727C79.469 44.4821 79.5364 43.7908 79.5981 43.1002ZM51.6109 46.6765C51.4681 45.9964 52.1042 45.5176 52.498 45.0572C52.7755 45.7742 52.9768 46.5185 53.1765 47.2604C52.6688 47.1666 51.8964 47.2195 51.6109 46.6765ZM79.3575 45.6852C79.7257 46.0132 80.2221 46.4551 80.0738 47.0005C79.7938 47.4962 79.153 47.4994 78.6581 47.5539C78.8948 46.9324 79.1298 46.31 79.3575 45.6852ZM49.4598 47.6173C49.994 47.4376 50.5249 47.2492 51.0511 47.0462C51.4489 47.3711 51.8804 47.7103 52.4033 47.7929C52.7386 47.8932 53.1356 47.8667 53.4396 48.0592C54.098 48.8669 54.6851 49.7451 55.5064 50.4052C56.768 51.577 58.2903 52.3894 59.7147 53.3343C59.4709 54.3488 58.8132 55.1838 58.2815 56.0596C54.386 54.5638 51.0078 51.5321 49.4598 47.6173ZM80.6416 47.3109C81.033 47.4705 81.426 47.6293 81.8206 47.7801C81.0418 49.936 79.5741 51.7959 77.8505 53.2829C76.6137 54.409 75.1252 55.2383 73.5652 55.8238C73.2259 55.2287 72.8642 54.6456 72.5666 54.028C72.4832 53.8115 72.3469 53.5299 72.5249 53.331C72.9404 52.9156 73.485 52.671 73.9871 52.3798C75.0361 51.755 76.0034 50.9955 76.8904 50.1566C77.4824 49.5871 77.8577 48.8364 78.4015 48.2285C78.8691 48.0424 79.4065 48.1234 79.8692 47.9116C80.162 47.7625 80.3946 47.5235 80.6416 47.3109Z" fill="white"/>
<path d="M48.1914 47.6074C48.4064 47.6114 48.8371 47.6178 49.0528 47.6211C49.7899 49.4401 50.8365 51.1613 52.2674 52.5183C53.1424 53.3067 53.9934 54.1409 55.0128 54.7456C55.984 55.3896 57.0532 55.8548 58.099 56.3577C57.998 56.6488 57.8696 56.9288 57.7253 57.2006C56.6882 56.8173 55.7218 56.2655 54.7689 55.7096C53.5009 54.9629 52.443 53.9283 51.3835 52.9217C50.2791 51.8486 49.5669 50.4675 48.8274 49.1369C48.5523 48.6557 48.3807 48.1263 48.1914 47.6074ZM82.1474 47.852C82.4586 47.8809 82.769 47.9106 83.0818 47.9387C82.3816 50.0737 81.1433 52.0355 79.4967 53.5666C77.9231 55.0063 76.1738 56.3802 74.1158 57.0378C73.9706 56.7387 73.8255 56.4419 73.6883 56.1395C74.9836 55.5573 76.2685 54.9156 77.3697 54.0061C79.4037 52.3635 81.2219 50.3312 82.1474 47.852Z" fill="white"/>
<path d="M72.1084 52.5179C73.7598 51.942 75.189 50.8785 76.4482 49.6875C75.647 50.8136 74.3966 51.4672 73.2906 52.2468C72.7821 52.6382 72.0659 52.882 71.859 53.5557C71.9055 53.9552 72.2239 54.2519 72.4068 54.5944C72.8631 55.382 73.3155 56.1752 73.686 57.0069C73.8881 57.5291 73.6804 58.0736 73.4807 58.5597C72.8126 58.3784 72.0691 58.072 71.7772 57.3951C71.2125 56.3733 71.227 55.0941 70.445 54.1821C70.3712 55.54 71.3569 56.6436 71.5221 57.9557C71.4539 58.4169 71.1668 58.8115 70.9462 59.2125C70.36 58.8845 69.6397 58.5533 69.497 57.8226C69.0927 56.7382 69.3406 55.4413 68.6837 54.4492C68.4182 55.394 68.8794 56.314 69.0582 57.2267C69.1529 57.7929 69.4039 58.5067 68.9572 58.988C68.8136 59.1805 68.6644 59.3681 68.5096 59.551C68.0677 59.2342 67.4918 58.9391 67.3483 58.368C67.098 57.2708 67.2801 56.1263 67.0756 55.0219C67.0186 54.8871 66.9192 54.7773 66.8318 54.6634C66.5334 55.9763 67.1927 57.2676 67.0315 58.5878C66.851 59.061 66.4564 59.5566 65.9303 59.6465C65.441 59.308 64.9903 58.7979 64.9943 58.1651C64.9317 57.0166 65.3624 55.9009 65.3031 54.75C65.2261 54.7476 65.0713 54.7436 64.9943 54.7412C64.8371 55.7164 64.9165 56.7094 64.8531 57.6911C64.8283 58.1346 64.7128 58.5926 64.4168 58.9358C64.1594 59.1636 63.8762 59.3577 63.5835 59.535C63.3148 59.2543 63.01 58.9824 62.8488 58.6238C62.7053 58.0704 62.9026 57.5178 63.0189 56.9813C63.2162 56.1688 63.5049 55.3547 63.468 54.5094C63.3982 54.5094 63.2571 54.5102 63.1865 54.511C62.8384 55.605 62.8448 56.7663 62.536 57.8675C62.3732 58.437 61.9233 58.8933 61.3811 59.1179C61.1525 59.2182 60.8782 59.0561 60.7884 58.8372C60.3809 58.3167 60.5879 57.6157 60.7675 57.0494C61.1309 56.1086 61.5808 55.1927 61.7837 54.1974C61.6899 54.1581 61.5968 54.1196 61.5038 54.0811C60.9119 55.1855 60.7683 56.4664 60.1476 57.5571C59.8837 58.0592 59.388 58.4426 58.8346 58.5693C58.6461 58.6359 58.497 58.4771 58.4095 58.3303C58.2146 57.8876 58.1553 57.3558 58.3887 56.9179C58.8651 55.8969 59.53 54.9738 59.9944 53.9479C60.0842 53.6672 60.235 53.2927 60.0024 53.0481C59.0728 52.0904 57.6933 51.78 56.7461 50.8392C57.7318 51.4223 58.6854 52.0896 59.7754 52.4698C63.6805 54.0442 68.1944 54.0899 72.1084 52.5179Z" fill="white"/>
</svg>
