<svg width="16" height="16" viewBox="0 0 16 16" fill="none" xmlns="http://www.w3.org/2000/svg">
<path d="M8.33203 3.33301C11.092 3.33301 13.332 5.57301 13.332 8.33301C13.332 11.093 11.092 13.333 8.33203 13.333C5.57203 13.333 3.33203 11.093 3.33203 8.33301C3.33203 5.57301 5.57203 3.33301 8.33203 3.33301ZM8.33203 4.33301C6.12203 4.33301 4.33203 6.12301 4.33203 8.33301C4.33203 10.543 6.12203 12.333 8.33203 12.333C10.542 12.333 12.332 10.543 12.332 8.33301C12.332 6.12301 10.542 4.33301 8.33203 4.33301ZM8.33203 5.83301C9.24203 5.83301 10.0385 6.31951 10.476 7.04701L9.61903 7.56151C9.48416 7.33663 9.2927 7.15104 9.06373 7.02323C8.83476 6.89543 8.57629 6.82988 8.31409 6.83312C8.05189 6.83637 7.79512 6.90829 7.56938 7.04172C7.34365 7.17515 7.15683 7.36542 7.02757 7.59357C6.8983 7.82172 6.8311 8.07976 6.83267 8.34198C6.83424 8.6042 6.90452 8.86142 7.03651 9.088C7.16849 9.31459 7.35757 9.50261 7.58488 9.63333C7.8122 9.76405 8.06981 9.8329 8.33203 9.83301C8.5911 9.83318 8.84579 9.7662 9.07126 9.63861C9.29673 9.51102 9.48528 9.32718 9.61853 9.10501L10.476 9.61901C10.195 10.0883 9.76785 10.4525 9.25999 10.6557C8.75213 10.8589 8.19164 10.8899 7.66448 10.7439C7.13732 10.5979 6.6726 10.283 6.3416 9.84753C6.0106 9.41205 5.83159 8.88001 5.83203 8.33301C5.83203 6.95301 6.95203 5.83301 8.33203 5.83301Z" fill="#667085"/>
</svg>
