<svg width="132" height="88" viewBox="0 0 132 88" fill="none" xmlns="http://www.w3.org/2000/svg">
<path d="M81.4324 14.667C82.4043 14.667 83.1901 15.4444 83.1901 16.4059V69.0807C83.1901 70.0414 82.4043 70.8196 81.4324 70.8196H49.9562C48.9852 70.8196 48.1992 70.0415 48.1992 69.0807V16.4059C48.1992 15.4444 48.9852 14.667 49.9562 14.667H81.4324Z" fill="white"/>
<path d="M48.8828 22.4756H82.5302V68.9755C82.5302 69.3622 82.4642 69.6012 82.2034 69.8606C81.9203 70.142 81.672 70.1672 81.2237 70.1672L49.8874 70.1703C49.6405 70.1703 49.4512 70.0916 49.2467 69.9188C48.9936 69.7018 48.8828 69.4314 48.8828 69.1452V22.4756Z" fill="#FFF200"/>
<path d="M48.8828 20.1357H82.5302V22.5247H48.8828V20.1357Z" fill="#ED1C24"/>
<path d="M48.8828 17.7422H82.5302V20.1312H48.8828V17.7422Z" fill="white"/>
<path d="M49.834 15.3125H81.5571C82.0651 15.3125 82.5336 15.8022 82.5336 16.2802V17.8053H48.8828L48.8859 16.4641V16.3525C48.8859 15.8118 49.3026 15.366 49.834 15.3125Z" fill="#009A4E"/>
<path d="M81.4324 14.667C82.4043 14.667 83.1901 15.4444 83.1901 16.4059V69.0807C83.1901 70.0414 82.4043 70.8196 81.4324 70.8196H49.9562C48.9852 70.8196 48.1992 70.0415 48.1992 69.0807V16.4059C48.1992 15.4444 48.9852 14.667 49.9562 14.667H81.4324ZM81.4324 15.3611H49.9562C49.3728 15.3611 48.9012 15.8296 48.9012 16.4059V69.0807C48.9012 69.6577 49.3729 70.123 49.9562 70.123H81.4324C82.0159 70.123 82.4874 69.6577 82.4874 69.0807V16.4059C82.4874 15.8297 82.0159 15.3611 81.4324 15.3611Z" fill="black"/>
<path d="M65.076 25.4268C65.076 25.4268 65.0547 25.6295 65.0084 25.7483C64.9628 25.8582 64.8441 25.9322 64.8519 26.006C64.8598 26.0784 64.9369 26.1657 65.0563 26.2261C65.1735 26.2874 65.2206 26.3346 65.3409 26.3653C65.4525 26.3929 65.594 26.4745 65.6341 26.381C65.6742 26.2859 65.6137 26.1703 65.5461 26.0595C65.4281 25.8661 65.3685 25.8189 65.1947 25.5532C65.1577 25.4959 65.1287 25.4345 65.076 25.4268Z" fill="black"/>
<path d="M64.1966 46.3176C64.2084 46.283 64.4867 46.4592 64.6313 46.5441C64.9355 46.7264 65.0723 46.8349 65.3412 47.0361C65.5542 47.1981 65.6572 47.2814 65.8711 47.4653C66.1335 47.6917 66.2751 47.8851 66.3459 47.8411C66.4481 47.7185 66.1785 47.36 65.9402 47.1652C65.7084 46.9733 65.4686 46.8177 65.2838 46.6966C65.0456 46.5377 65.0243 46.5016 64.6683 46.2625C64.2854 46.0063 63.9553 45.6841 63.9553 45.6841L63.5834 45.3917L63.001 44.9003L62.3532 44.3037L61.8643 43.7588C61.8643 43.7588 61.4838 43.2935 61.4233 43.2038C61.362 43.115 61.1827 42.8272 61.035 42.5836C60.9029 42.365 60.6467 42.0255 60.6231 41.9964C60.4847 41.8289 60.1687 41.8965 59.8015 41.6804C59.3558 41.417 59.2481 41.1764 59.2481 41.1764C59.2481 41.1764 59.2315 41.1412 59.2142 41.1223C59.1977 41.1025 59.1639 41.0782 59.1639 41.0782L58.9304 40.9155L58.7967 40.8274C58.7967 40.8274 58.6954 40.7433 58.568 40.689C58.4399 40.6324 58.1545 40.4665 58.1545 40.4665L57.6443 40.1411C57.6443 40.1411 57.4446 39.9808 57.3786 39.9273C57.311 39.8762 57.1852 39.8032 57.1852 39.8032C57.1852 39.8032 57.105 39.763 57.0807 39.7615C57.0564 39.7598 56.9503 39.7504 56.9503 39.7504C56.9503 39.7504 56.852 39.7245 56.7521 39.8417C56.6523 39.9596 56.6767 39.8967 56.8394 40.5602C56.9038 40.8211 56.8975 41.7417 56.9667 42.0222C57.0547 42.3823 57.3079 42.8477 57.3338 42.9027C57.3591 42.957 57.3771 43.1582 57.3771 43.1582C57.3771 43.1582 57.3661 43.321 57.3834 43.424C57.4605 43.8996 58.1561 43.5866 58.3095 44.2392C58.4605 44.883 58.2191 45.5253 58.2191 45.5253C58.2191 45.5253 58.0697 45.8445 57.8582 45.8947C57.6476 45.9436 57.3206 45.4766 57.084 45.0985C56.8505 44.7266 56.6595 44.2392 56.5982 44.0843C56.5369 43.9294 56.5046 43.8956 56.4339 43.7833C56.3293 43.6158 56.2452 43.6465 56.1281 43.3823C56.0101 43.1182 56.1147 43.0121 56.0621 42.7818C56.0314 42.6545 56.0039 42.6403 55.9638 42.4578C55.9253 42.2763 55.8734 41.6985 55.8734 41.6985L55.7995 41.1608C55.7995 41.1608 55.7735 40.9155 55.7398 40.7614C55.6227 40.2237 55.5818 39.7033 55.5818 39.7033L55.5598 39.4895L55.552 39.2687C55.552 39.2687 55.5449 39.1625 55.5709 39.0532C55.5968 38.9441 55.6496 38.8536 55.6496 38.8536C55.6496 38.8536 55.7581 38.672 55.7769 38.6264C55.795 38.5832 56.0167 38.3253 56.0167 38.3253C56.0167 38.3253 56.133 38.2287 56.3225 38.1131C56.5128 37.9975 56.6833 38.0054 56.6833 38.0054C56.6833 38.0054 56.7336 38.0006 57.0702 38.0423C57.4066 38.0839 58.0984 38.2679 58.273 38.3128C58.4451 38.3593 58.6511 38.4315 58.7847 38.5061C59.1691 38.7152 59.2855 38.6265 58.9797 38.3868C58.7736 38.2256 58.7156 38.1532 58.5496 38.0024C58.4096 37.8734 58.2996 37.7877 58.1951 37.669C58.0905 37.5479 57.7926 37.1085 57.7926 37.1085L57.6063 36.8334C57.6063 36.8334 57.5065 36.7203 57.4899 36.7123C57.4674 36.697 57.4454 36.681 57.4239 36.6644C57.4239 36.6644 57.3005 36.6706 57.1731 36.6463C57.0442 36.6203 56.9844 36.8012 56.9844 36.8012C56.9844 36.8012 56.7077 37.3176 56.4263 37.6337C55.9704 38.147 55.6433 38.4961 55.4759 38.7696C55.2409 39.1486 55.2928 39.5637 55.1717 39.7554C55.101 39.8679 55.0624 39.8844 55.0239 39.9826C54.906 40.2806 55.3344 40.4441 55.2362 40.7742C55.0797 41.2978 53.8534 41.8158 53.6906 41.7293C53.5215 41.6405 53.6599 40.9323 53.7165 40.7034C53.7747 40.4732 53.9468 40.1336 53.9626 40.1163C53.9776 40.0997 54.0193 40.0195 54.0317 39.952C54.0451 39.8844 54.0498 39.7311 54.0577 39.6462C54.0656 39.5604 54.1009 39.4253 54.1009 39.4253C54.1009 39.4253 54.1056 39.3962 54.2141 39.1612C54.3233 38.9246 54.7227 38.3743 55.0089 37.8492C55.1975 37.5064 55.2761 37.2989 55.4648 36.9553C55.6385 36.6402 55.9364 36.159 55.9364 36.159C55.9364 36.159 56.0622 35.9137 56.1211 35.8225C56.1809 35.7289 56.3066 35.5521 56.4246 35.3776C56.5433 35.2038 56.5723 35.0733 56.7272 34.9302C56.8553 34.8108 56.9426 34.7471 57.11 34.6936C57.3592 34.6111 57.5299 34.6552 57.7845 34.7259C58.0486 34.7982 58.2302 34.9193 58.4033 35.0624C58.5119 35.155 58.6124 35.2567 58.7035 35.3666L58.7876 35.4908L58.8395 35.5215L58.9999 35.6245L59.367 35.8673C59.367 35.8673 60.2381 36.4601 60.2868 36.4923C60.3332 36.5229 60.4896 36.6511 60.5202 36.6613C60.5525 36.6707 60.7844 36.4191 61.2396 36.1055C61.7663 35.74 61.9526 35.7675 62.1273 35.6724C62.2994 35.5773 62.3701 35.4987 62.5054 35.3635C62.7098 35.1591 62.7113 35.0498 62.9432 34.7645C63.1768 34.4799 63.3953 34.3203 63.3953 34.3203C63.3953 34.3203 63.4275 34.2881 63.8434 33.818C64.2584 33.3495 64.4424 32.9949 64.4424 32.9949L64.6704 32.5381C64.6704 32.5381 65.0005 31.8283 65.1067 31.5476C65.2136 31.2662 65.2136 31.1726 65.2136 31.1726C65.2136 31.1726 65.2292 31.0987 65.1491 30.9557C65.0665 30.8133 64.9816 30.8778 64.8236 30.9101C64.521 30.9746 64.337 30.8959 64.0313 30.8425C63.7514 30.796 63.6052 30.712 63.3245 30.6656C63.04 30.6177 62.8741 30.5706 62.5887 30.5981C62.5455 30.6028 62.4583 30.6208 62.4165 30.6349C62.2553 30.6884 62.2105 30.701 62.0911 30.7702C61.9527 30.8346 61.8615 30.8551 61.7082 30.859C61.602 30.8621 61.5377 30.8653 61.4394 30.8268C61.3718 30.8008 61.3333 30.7812 61.2798 30.7333C61.251 30.7086 61.226 30.6797 61.2059 30.6475C61.2028 30.6177 61.1933 30.6192 61.2225 30.5706C61.2508 30.521 61.2861 30.5123 61.2861 30.5123L61.4167 30.4801C61.4167 30.4801 61.6006 30.4322 61.6179 30.4274C61.6344 30.4227 61.8097 30.3661 61.8867 30.3417C61.9645 30.3174 62.0495 30.2725 62.0495 30.2725C62.0495 30.2725 62.0966 30.1971 62.0785 30.1539C62.0557 30.105 61.9512 30.1004 61.9512 30.1004C61.9512 30.1004 61.8049 30.1539 61.7885 30.1586C61.7727 30.1618 61.5392 30.2355 61.5392 30.2355C61.5392 30.2355 61.356 30.2757 61.2138 30.3094C61.0707 30.3416 60.8663 30.3582 60.8663 30.3582L60.805 30.3416C60.805 30.3416 60.7358 30.2952 60.7249 30.2466C60.7146 30.2034 60.7083 30.1711 60.7004 30.1216C60.6698 29.9407 60.6329 29.8314 60.6761 29.6531C60.6927 29.5784 60.7099 29.5367 60.7421 29.4676C60.7696 29.4102 60.7877 29.3772 60.8231 29.3229L60.9356 29.1389L61.1479 28.8253C61.2209 28.7514 61.269 28.7145 61.3609 28.6626C61.4961 28.5871 61.5747 28.5659 61.7437 28.547C61.9096 28.5289 61.9324 28.5305 62.1674 28.4778C62.404 28.4243 62.5715 28.3308 62.5715 28.3308C62.5715 28.3308 63.1368 28.1233 63.481 27.9542C63.8418 27.7774 63.9991 27.5886 64.3725 27.4425C64.5305 27.3812 64.6225 27.3521 64.7852 27.3105C64.8056 27.2971 64.8158 27.2845 64.8222 27.2601C64.8379 27.2011 64.7468 27.1736 64.6838 27.1798C64.6272 27.1845 64.4983 27.2443 64.4692 27.1798C64.4471 27.1304 64.587 27.1013 64.587 27.1013C64.587 27.1013 64.653 27.0706 64.6547 27.0337C64.6563 26.9771 64.5596 27.014 64.5163 27.0093C64.297 26.9848 64.2797 26.9448 64.1279 26.9079C63.9495 26.8631 63.8529 26.808 63.6673 26.8002C63.5038 26.7938 63.3505 26.8285 63.2476 26.8528C63.1462 26.8788 63.143 26.7789 63.1831 26.7593C63.4701 26.6256 63.4763 26.6146 63.6792 26.6052C63.79 26.6005 63.9449 26.6241 63.9622 26.6327C63.9787 26.6421 64.2004 26.6311 64.257 26.573C64.3152 26.5164 64.0754 26.5195 63.9622 26.4747C63.8577 26.4331 63.6981 26.4213 63.7012 26.352C63.7068 26.2828 63.7838 26.3214 63.8388 26.3073C63.9079 26.2907 63.9481 26.2923 64.0188 26.2829C64.1462 26.2657 64.1572 26.2538 64.3458 26.2382C64.5321 26.2201 64.801 26.2995 64.801 26.2995C64.801 26.2995 65.0832 26.4246 65.2216 26.4906C65.36 26.555 65.5274 26.5888 65.5274 26.5888C65.5274 26.5888 65.7238 26.6163 65.8733 26.5228C66.025 26.43 65.9393 26.3687 65.8866 26.283C65.8347 26.2028 65.7688 26.0865 65.8653 25.8664C65.9511 25.6745 65.9959 25.4505 66.0203 25.4301C66.051 25.4057 66.1697 25.5779 66.2467 25.6487C66.5226 25.9065 66.8875 26.0339 67.2318 26.5731C67.2585 26.6163 67.3859 26.5471 67.7852 26.6084C68.1845 26.6698 68.5336 27.0974 68.6217 27.1997C68.713 27.3026 68.8308 27.2971 68.8308 27.2971L69.0226 27.323L69.719 27.3348C69.719 27.3348 70.0351 27.2782 70.2175 27.3475C70.3448 27.3954 70.7693 27.6792 70.576 27.7868C70.4408 27.8623 70.3134 27.6965 70.1908 27.6886C70.0461 27.6792 69.9832 27.7067 69.8542 27.7389C69.5838 27.8065 69.0037 27.9818 69.2144 28.0525C69.23 28.0588 69.2599 28.0635 69.2599 28.0635L69.3637 28.0816C69.3637 28.0816 69.6185 28.1397 69.7725 28.2002C70.0051 28.2922 70.1153 28.3937 70.3291 28.5194C70.4516 28.5901 70.5052 28.6609 70.6387 28.701C70.7614 28.7365 70.84 28.701 70.9658 28.7223C71.1308 28.7514 71.2235 28.7852 71.3746 28.8575C71.5993 28.9652 71.6811 29.0957 71.8824 29.2403C71.983 29.3134 72.0678 29.3244 72.1433 29.4227C72.1607 29.4447 72.1749 29.4566 72.1828 29.4824C72.2096 29.5721 72.0349 29.5193 71.9422 29.5045C71.84 29.4872 71.7976 29.4368 71.7033 29.3936C71.5633 29.3276 71.4972 29.2552 71.3447 29.2277C71.2347 29.2065 71.1686 29.223 71.0555 29.2293C70.9454 29.234 70.8873 29.2505 70.7771 29.2521C70.5901 29.2552 70.4847 29.2388 70.3008 29.2001C70.0947 29.157 69.9925 29.0768 69.7882 29.0343C69.557 28.9863 69.1483 28.7883 69.1876 28.9863C69.208 29.0815 69.425 29.1616 69.425 29.1616C69.425 29.1616 69.5743 29.2418 69.7159 29.3047C69.8574 29.366 69.9359 29.4596 69.9359 29.4596L70.0334 29.532C70.0334 29.532 70.134 29.6704 70.2661 29.8267C70.395 29.9809 70.6245 29.9761 70.6245 29.9761C70.6245 29.9761 70.7629 29.9761 71.0615 30.0374C71.3587 30.0987 71.6653 30.2826 71.6653 30.2826C71.6653 30.2826 71.8964 30.4414 72.0316 30.601C72.1653 30.7607 72.0882 30.8408 72.071 30.8572C72.0553 30.8745 72.0615 30.8666 72.0427 30.8745C72.027 30.8824 71.8603 30.6733 71.8603 30.6733L71.7409 30.5719C71.7409 30.5719 71.6245 30.4901 71.4736 30.4414C71.3227 30.3934 71.2723 30.4256 71.2723 30.4256C71.2723 30.4256 70.9516 30.5153 70.6717 30.5074C70.395 30.4995 70.2504 30.3886 70.2504 30.3886L70.0743 30.2707C70.0743 30.2707 69.8101 30.0231 69.8006 30.1403C69.7942 30.2197 69.917 30.3077 69.917 30.3077C69.917 30.3077 70.0019 30.3933 70.0585 30.4477C70.1654 30.553 70.2096 30.6057 70.3321 30.7149C70.4548 30.825 70.5302 30.825 70.5302 30.825C70.5302 30.825 70.5962 30.8407 70.6214 30.8455C70.6466 30.8502 70.6906 30.862 70.6906 30.862C70.6906 30.862 70.7315 30.8778 70.9233 30.9557C71.1135 31.0326 71.3195 31.2001 71.3195 31.2001C71.3195 31.2001 71.3384 31.2159 71.3667 31.2214C71.3949 31.2245 71.4515 31.2529 71.4673 31.2576C71.4845 31.2614 71.5333 31.2614 71.6434 31.2772C71.7551 31.2937 71.7126 31.3645 71.7126 31.3645L71.6936 31.3911L71.6024 31.4524C71.6024 31.4524 71.4845 31.4863 71.4043 31.4902C71.3226 31.4949 71.2062 31.4494 71.2062 31.4494L70.9593 31.3566C70.9593 31.3566 70.7095 31.2906 70.6559 31.2819C70.6024 31.274 70.3792 31.2292 70.3415 31.2214C70.3054 31.2128 70.1937 31.1726 70.1639 31.1554C70.134 31.1389 70.079 31.1279 69.9438 31.0618C69.8101 30.9958 69.7566 30.9196 69.59 30.8668C69.4218 30.8134 69.3196 30.8025 69.1938 30.8897C68.9768 31.039 69.5208 31.0635 69.7913 31.1986C70.1907 31.3951 70.4154 31.5397 70.5098 31.7521C70.6056 31.9651 70.7016 32.0421 70.7016 32.0421C70.7016 32.0421 70.983 32.1837 71.1087 32.3322C71.1779 32.4123 71.1874 32.4784 71.2565 32.5586C71.4105 32.7394 71.7094 32.7291 71.7692 32.8824C71.8258 33.0254 71.527 32.961 71.3713 32.9468C71.0915 32.9193 71.0238 32.663 70.7628 32.5601C70.6151 32.5011 70.5208 32.5011 70.3697 32.4493C70.0946 32.3589 69.9657 32.2402 69.6905 32.1546C69.5238 32.1035 69.2219 31.8841 69.2597 32.0531C69.266 32.094 69.2911 32.1254 69.302 32.1499C69.3163 32.1742 69.3854 32.2638 69.3854 32.2638C69.3854 32.2638 69.4781 32.3865 69.5206 32.4188C69.5599 32.4526 69.7375 32.5862 69.9922 32.7245C70.2438 32.8629 70.4639 33.1286 70.4639 33.1286C70.4639 33.1286 70.5394 33.2372 70.5756 33.3127C70.6133 33.3976 70.5865 33.4235 70.6463 33.5414C70.7013 33.6586 70.7281 33.6813 70.8035 33.7537C70.989 33.9321 71.184 33.8967 71.4197 33.9935C71.4842 34.021 71.4889 34.0304 71.5581 34.1042C71.6273 34.1773 71.5455 34.2087 71.5455 34.2087C71.5455 34.2087 71.283 34.2764 71.1131 34.2621C70.8931 34.2449 70.794 34.1772 70.5802 34.0703C70.3632 33.9642 70.2501 33.7732 70.2281 33.7615C70.2092 33.7488 70.1557 33.6923 70.1148 33.6632C70.0741 33.6341 69.9686 33.6121 69.8743 33.5861C69.7784 33.5602 69.7248 33.5554 69.6291 33.5295C69.4986 33.4925 69.3633 33.4351 69.3019 33.4155C69.2406 33.3943 69.1007 33.3691 68.9985 33.4296C68.7941 33.5507 69.316 33.6324 69.478 33.8062C69.5613 33.8935 69.5959 33.9548 69.6746 34.0468C69.7344 34.1175 69.7595 34.1671 69.8335 34.2221C69.8837 34.259 69.9765 34.299 69.9765 34.299C69.9765 34.299 70.1022 34.3573 70.2861 34.4587C70.4701 34.5601 70.6854 34.8469 70.6854 34.8469L70.8159 35.0466L70.893 35.1606L70.9134 35.2133L70.9417 35.2777C70.9417 35.2777 71.0361 35.4004 71.1052 35.4404C71.1745 35.4821 71.1618 35.5183 71.1618 35.5183C71.1618 35.5183 71.154 35.5435 71.1052 35.571C71.0581 35.6002 71.0313 35.5757 70.9622 35.5553C70.893 35.5357 70.8474 35.4696 70.7877 35.4216C70.7248 35.3713 70.6588 35.2495 70.5472 35.1803C70.4481 35.1206 70.3192 35.0994 70.2689 35.0836C70.2201 35.0657 70.0975 34.9886 70.0487 34.9673C70.0016 34.9484 69.8743 34.8903 69.8743 34.8903C69.8743 34.8903 69.6291 34.7535 69.4937 34.7166C69.3586 34.6788 69.4449 34.7614 69.4449 34.7614C69.4449 34.7614 69.5661 34.9501 69.6823 35.0255C69.8334 35.1253 70.0456 35.2134 69.9764 35.2943C69.9291 35.347 69.8663 35.3281 69.7971 35.3202C69.684 35.3069 69.5471 35.1716 69.5471 35.1716C69.5471 35.1716 69.4906 35.1347 69.2375 35.0545C68.9858 34.9719 69.0786 35.1103 69.1368 35.185C69.1741 35.2309 69.2194 35.2695 69.2706 35.299L69.442 35.376L69.5206 35.4004C69.5206 35.4004 69.5898 35.4129 69.8178 35.4664C70.0457 35.5183 70.1716 35.6292 70.1716 35.6292C70.1716 35.6292 70.2941 35.7431 70.4639 35.8689C70.6368 35.9963 70.8066 36.0286 70.901 36.0412C70.9953 36.0529 70.9921 36.1189 70.9921 36.1189C70.9921 36.1189 71.0047 36.1795 70.9986 36.1992C70.9965 36.2094 70.991 36.2186 70.983 36.2254C70.9749 36.2321 70.9649 36.2359 70.9544 36.2362C70.9355 36.2362 70.9262 36.244 70.9011 36.2574C70.8759 36.27 70.7784 36.2857 70.7784 36.2857C70.7784 36.2857 70.5238 36.2779 70.3225 36.2283C70.1245 36.1795 69.9483 36.0412 69.9294 36.0334C69.9137 36.0255 69.7281 35.9226 69.5992 35.8817C69.4751 35.84 69.2754 35.8581 69.2533 35.866C69.233 35.8739 69.1637 35.8849 69.0458 35.9194C68.9264 35.9509 69.0757 35.9964 69.0757 35.9964L69.1606 36.0043L69.3634 36.02C69.3634 36.02 69.5741 36.0443 69.7517 36.1103C69.9294 36.1748 70.0458 36.3053 70.1637 36.4248C70.2391 36.4985 70.3224 36.5636 70.4121 36.619L70.5065 36.6803L70.5552 36.7172L70.5678 36.7494C70.5678 36.7494 70.5631 36.766 70.5552 36.7863C70.5474 36.8076 70.5175 36.8232 70.5175 36.8232C70.5175 36.8232 70.4735 36.8153 70.4547 36.8153C70.4326 36.8153 70.299 36.7446 70.2 36.7014C70.0978 36.6566 70.0459 36.6141 69.9358 36.5873C69.8415 36.5645 69.7158 36.5543 69.6873 36.563C69.6591 36.5709 69.4515 36.6 69.2911 36.6109C69.1309 36.6235 68.9924 36.6258 68.8037 36.6031C68.5349 36.5709 68.178 36.3585 68.1324 36.4176C68.0397 36.5417 68.3227 36.5771 68.461 36.6565C68.6497 36.7658 68.9767 36.8641 68.9767 36.8641C68.9767 36.8641 69.2157 36.9167 69.3556 36.9827C69.6622 37.1251 69.755 37.3357 70.0018 37.5574C70.137 37.6816 70.2471 37.735 70.4294 37.7618C70.5867 37.7847 70.5835 37.7658 70.8319 37.717C71.0819 37.6676 71.2329 37.4309 71.3052 37.5174C71.3194 37.534 71.313 37.5496 71.3099 37.5741C71.3052 37.5984 71.2848 37.6433 71.2848 37.6433C71.2848 37.6433 71.2565 37.6833 71.2125 37.7289C71.1669 37.7737 70.9955 37.8673 70.9059 37.9042C70.8163 37.9412 70.5962 38.0025 70.3195 37.9938C70.0427 37.9859 69.6529 37.7737 69.6529 37.7737L69.3731 37.6557C69.3731 37.6557 69.2441 37.5952 69.1561 37.5622C68.9234 37.4741 68.7756 37.482 68.5366 37.4191C68.3888 37.3791 68.2914 37.3374 68.1577 37.3099C68.0225 37.2808 68.0996 37.3343 68.1121 37.3531C68.175 37.4387 68.2598 37.4662 68.3668 37.5158C68.5084 37.585 68.6074 37.5709 68.752 37.6322C68.914 37.6975 69.0555 37.7895 69.1452 37.8477C69.2332 37.9043 69.2993 37.9688 69.3857 38.0584L69.6828 38.3131C69.6828 38.3131 69.752 38.3697 69.7599 38.3933C69.7677 38.4177 69.8007 38.4789 69.785 38.5773C69.7677 38.6756 69.6875 38.6064 69.6875 38.6064L69.609 38.5561L69.5303 38.4838L69.406 38.3808C69.406 38.3808 69.2992 38.2841 69.1151 38.1905C68.9328 38.0954 68.7127 38.0718 68.7127 38.0718C68.7127 38.0718 68.5177 38.0428 68.524 38.1041C68.5334 38.1646 68.5772 38.1701 68.7314 38.2102C68.887 38.2503 68.9892 38.3289 68.9892 38.3289C68.9892 38.3289 69.1481 38.4469 69.2628 38.5773C69.3759 38.7079 69.409 38.8344 69.409 38.8344C69.409 38.8344 69.4672 38.9413 69.6135 39.0827C69.7597 39.2258 69.8368 39.1763 69.8288 39.2456C69.8209 39.3147 69.7564 39.3273 69.7564 39.3273C69.7564 39.3273 69.7187 39.324 69.7031 39.324C69.6873 39.324 69.6496 39.3029 69.6087 39.2871C69.5679 39.2714 69.4138 39.1645 69.4138 39.1645C69.4138 39.1645 69.1717 38.9681 69.145 38.9492C69.0588 38.8856 68.9728 38.8216 68.8871 38.7573C68.8871 38.7573 68.7519 38.6709 68.6559 38.6221C68.5572 38.5755 68.4559 38.5346 68.3525 38.4995C68.2802 38.4759 68.1449 38.468 68.1449 38.468C68.1449 38.468 67.983 38.4437 67.884 38.4067C67.7284 38.3469 67.5475 38.181 67.5271 38.1732C67.5051 38.1646 67.3604 38.115 67.3321 38.1197C67.3039 38.1229 67.2378 38.3965 67.2222 38.5545C67.1561 39.2164 67.3321 39.6558 67.6057 40.2628C68.0003 41.1447 69.0993 42.2414 69.0993 42.2414C69.0993 42.2414 69.376 42.3978 69.4924 42.4913C69.821 42.7485 70.365 43.1124 70.8477 43.5935C71.2596 44.0062 71.8069 44.738 71.8069 44.738C71.8069 44.738 72.1243 45.1798 72.2722 45.4927C72.4515 45.8763 72.5962 46.4613 72.5962 46.4613C72.5962 46.4613 72.6087 46.5619 72.6182 46.584C72.6307 46.6043 72.6589 46.6311 72.6779 46.6311L72.8697 46.6374C72.8886 46.6374 73.1071 46.6218 73.2518 46.5855C73.3949 46.5493 73.7345 46.3937 73.9609 46.2758C74.1841 46.1563 74.453 45.9299 74.453 45.9299C74.453 45.9299 74.5048 45.8858 74.7659 45.5934C75.0301 45.301 75.1998 44.8624 75.2642 44.6965C75.3272 44.5323 75.3791 44.2155 75.4168 43.6745C75.4576 43.1314 75.3838 42.559 75.3838 42.559C75.3838 42.559 75.2848 41.7603 75.2249 41.4882C75.1652 41.2179 75.0206 40.7745 75.0206 40.7745C75.0206 40.7745 74.92 40.38 74.8885 40.1308C74.8554 39.8815 74.8508 39.4759 74.8508 39.4759C74.8508 39.4759 74.8508 39.2276 74.9309 38.7685C75.0142 38.3117 75.2942 37.851 75.2942 37.851C75.2942 37.851 75.3728 37.6961 75.6748 37.3345C75.9844 36.9642 76.0834 36.9061 76.3884 36.6851C76.6307 36.5114 76.9434 36.2316 77.0458 36.2976C77.1589 36.3683 76.9355 36.5098 76.8601 36.5837C76.6699 36.7724 76.3146 37.1057 76.0269 37.608C75.7753 38.0428 75.681 38.3304 75.6183 38.6143C75.5552 38.8974 75.5821 39.2086 75.5899 39.3147C75.5994 39.4209 75.6575 39.3824 75.6575 39.3824C75.6575 39.3824 76.2691 38.891 76.6008 38.5192C76.9609 38.1167 77.2816 37.4005 77.4073 37.3943C77.4922 37.3888 77.5315 37.5806 77.5111 37.6694C77.4326 38.0412 77.4059 38.0876 77.2846 38.3344C77.1464 38.6174 77.0176 38.7432 76.8257 39.0043C76.6243 39.2779 76.5254 39.3824 76.3635 39.7447C76.1294 40.2659 76.266 40.6685 76.266 40.6685C76.266 40.6685 76.2943 40.913 76.4043 40.9098C76.5884 40.9035 76.9923 40.3933 77.2565 39.9758C77.4516 39.67 77.5223 39.3163 77.6497 39.1307C77.766 38.9664 77.8683 39.398 77.8179 39.6527C77.7597 39.9553 77.6103 40.2274 77.2818 40.6558C76.9611 41.0739 76.9705 41.4718 76.9705 41.4718C76.9705 41.4718 76.9375 41.6534 76.9107 42.0496C76.8856 42.4441 76.9988 43.0433 76.9988 43.0433C76.9988 43.0433 77.0992 43.544 77.1199 43.9237C77.1388 44.3057 77.1261 45.1729 76.7691 45.8481C76.6277 46.1185 76.3242 46.4928 76.3242 46.4928C76.3242 46.4928 76.0899 46.7334 75.8981 46.8732C75.7061 47.0132 75.2455 47.2318 75.2455 47.2318C75.2455 47.2318 74.9265 47.3418 74.8824 47.3513C74.8352 47.3639 74.807 47.4031 74.807 47.4031C74.807 47.4031 74.8352 47.4645 74.8478 47.4897C74.8587 47.5149 74.9483 47.7349 74.9483 47.7349C74.9483 47.7349 75.0442 48.0462 75.0804 48.2931C75.1165 48.5399 75.074 48.5965 75.0396 48.7852C75.0049 48.9661 74.9265 48.8826 74.9059 49.2379C74.8886 49.5525 75.0302 49.7096 75.0049 50.0619C74.9941 50.216 74.8195 49.867 74.7345 49.7192C74.5553 49.3983 74.5977 48.9046 74.5946 48.7821C74.5898 48.6595 74.5803 48.5241 74.5348 48.3701C74.4798 48.1688 74.3964 48.0132 74.3037 47.8906C74.2093 47.7695 74.1103 47.7004 74.0773 47.713C74.0443 47.724 74.0411 47.7884 74.0411 47.8199C74.0395 47.8545 74.1055 47.9708 74.1197 47.9961C74.137 48.0196 74.2549 48.235 74.2549 48.235C74.2549 48.235 74.3067 48.4017 74.3272 48.7257C74.3477 49.0464 74.2486 49.4457 74.2486 49.4457C74.2486 49.4457 74.1196 49.8938 73.9845 50.158C73.8333 50.4488 73.4986 50.845 73.4986 50.845C73.4986 50.845 73.258 51.0652 73.0771 51.4267C72.8996 51.7883 73.0521 51.9456 72.986 51.9927C72.9168 52.0383 72.7752 51.7836 72.7375 51.6122C72.7013 51.4519 72.7186 51.3764 72.7847 51.1971C72.8461 51.0242 72.9908 50.7741 72.9908 50.7741L73.2061 50.4078C73.2061 50.4078 73.4671 49.911 73.5489 49.5493C73.6307 49.1909 73.5363 48.7916 73.5363 48.7916C73.5363 48.7916 73.5254 48.6596 73.4358 48.6658C73.3445 48.6705 73.2817 48.7492 73.2439 48.8451C73.1699 49.0431 73.2754 49.007 73.1621 49.3372C73.0742 49.5965 73.0489 49.562 73.0017 49.716C72.9451 49.9 72.9152 50.0886 72.9185 50.2035C72.9232 50.3166 72.8604 50.2695 72.8604 50.2695C72.8604 50.2695 72.7503 50.065 72.7503 49.8104C72.7503 49.6721 72.7566 49.5935 72.7724 49.455C72.7975 49.2333 72.8887 48.8938 72.8887 48.8938C72.8887 48.8938 72.9862 48.5589 72.9657 48.2538C72.9423 47.9457 72.8353 47.8892 72.8353 47.8892C72.8353 47.8892 72.8071 47.8483 72.6875 47.8545C72.5697 47.864 72.5759 48.0762 72.5759 48.0762C72.5759 48.0762 72.5398 48.3797 72.4926 48.5683C72.3621 49.0887 72.1877 49.3623 71.8794 49.8009C71.5996 50.1972 71.2208 50.5463 71.0304 50.7098C70.8417 50.8765 70.26 51.2994 70.26 51.2994L69.5777 51.7537C69.5777 51.7537 69.3073 52.0179 69.1845 52.3324C69.0588 52.6453 69.065 52.8905 69.1373 53.1782C69.2098 53.4675 69.3135 53.5995 69.3685 53.6812C69.4219 53.76 69.5274 53.9013 69.5619 54.0681C69.5839 54.1702 69.5683 54.2315 69.5745 54.3353C69.581 54.4265 69.5934 54.4768 69.5903 54.5696C69.5871 54.7142 69.6138 54.8163 69.5305 54.9343C69.4707 55.0239 69.3072 55.1025 69.3072 55.1025C69.3072 55.1025 69.1218 55.1842 69.0115 55.2518C67.8511 55.9515 67.4393 56.4059 66.7853 57.1857C66.5777 57.4356 66.7303 57.42 66.5086 57.7156C66.3741 57.8918 66.0636 57.8918 65.9512 58.1023C65.7948 58.39 66.3034 58.6731 65.7161 58.9262C64.9591 59.2533 63.6565 59.0189 63.6305 58.9168C63.5598 58.6369 63.8852 58.3131 64.0008 58.1842C64.5306 57.6055 65.0039 57.5913 65.1776 57.1119C65.2153 57.0097 65.2004 56.9217 65.6225 56.6087C65.9189 56.3901 67.1028 55.4987 67.6201 54.9044C67.7978 54.7 67.9502 54.5649 68.0273 54.3447C68.106 54.1213 67.9502 53.9815 67.9502 53.9815L67.738 53.6355L67.3308 52.9075C67.3308 52.9075 67.1595 52.5208 67.0667 52.2975C66.9708 52.0742 66.7931 51.4736 66.7931 51.4736C66.7931 51.4736 66.6627 50.9328 66.6405 50.5805C66.6013 49.9485 66.6878 49.5807 66.8545 48.9675C67.0699 48.172 67.5588 47.8386 67.7538 47.0493C67.8105 46.8198 67.823 46.4267 67.7066 46.4456C67.5965 46.466 67.5871 46.7757 67.5023 46.9834C67.1878 47.7663 66.7727 48.1091 66.5448 48.9203C66.3923 49.469 66.3294 49.7946 66.3309 50.3637C66.3326 50.6891 66.3199 50.6294 66.4032 51.1938C66.4362 51.4013 66.4865 51.5129 66.5479 51.7157C66.5919 51.8604 66.7098 52.1308 66.7098 52.1308C66.7098 52.1308 66.8718 52.4877 66.9284 52.7377C66.9456 52.8242 66.9678 52.8728 66.9613 52.9594C66.9504 53.1087 66.9771 53.1402 66.9048 53.2754C66.8152 53.4437 66.8701 53.5427 66.584 53.6055C66.3293 53.6589 65.8089 53.4892 65.8089 53.4892C65.8089 53.4892 63.6699 52.8414 62.3044 53.0284C62.0339 53.0646 61.8885 53.1637 61.6166 53.1589C61.3689 53.1558 61.2431 52.9623 60.9955 53.0363C60.9452 53.0505 60.9295 53.0866 60.8839 53.1165C60.5223 53.3681 60.799 53.7863 59.8462 53.5693C59.2613 53.4356 58.5531 53.0773 58.6756 52.8523C58.8399 52.5536 59.06 52.5049 59.5224 52.3146C60.0168 52.1133 60.7589 52.17 60.9051 52.1606C61.0836 52.1463 61.3399 52.0222 61.659 52.0143C62.2109 52.0048 62.3091 52.0709 62.3091 52.0709L63.246 52.1541L65.0393 52.1763C65.0393 52.1763 65.36 52.1527 65.4873 52.1274C65.6163 52.1022 65.7177 51.8491 65.7883 51.728C65.8576 51.6087 65.7852 51.4325 65.7852 51.4325L65.7319 51.3492L65.5612 51.0741L65.246 50.5426L64.8962 49.8446C64.8962 49.8446 64.6674 49.3588 64.5456 49.0396C64.4245 48.722 64.3538 48.5427 64.2736 48.2143C64.1895 47.8761 64.1375 47.6026 64.1266 47.3307C64.1133 46.9402 64.0874 46.6368 64.1966 46.3176Z" fill="black"/>
<path d="M75.8346 45.6696C76.2118 45.1853 76.2482 44.7356 76.2701 44.102C76.2874 43.6414 76.113 42.9315 76.113 42.9315L76.0893 42.8796C76.0893 42.8796 76.0233 42.7939 75.9826 42.9071C75.9888 43.007 76.0015 43.0872 76.0015 43.0872L76.0234 44.0015C76.0234 44.0015 75.9951 44.4621 75.838 44.9369C75.5738 45.7388 74.8726 46.0956 74.7705 46.385C74.5956 46.8644 75.3834 46.2528 75.8346 45.6696ZM71.8789 47.1491C71.8789 47.1491 71.7248 47.1932 71.7217 47.3456C71.7186 47.4981 71.7594 47.6302 71.7547 47.8142C71.7516 48.0485 71.5362 48.3188 71.6745 48.4069C71.9119 48.5579 72.1162 47.495 72.044 47.3378C71.9716 47.1804 71.9009 47.1474 71.8789 47.1491ZM69.2156 54.5181C69.2156 54.5181 69.1714 54.4946 69.0851 54.5276C69.0003 54.5605 69.0064 54.6487 69.0064 54.6487C69.0064 54.6487 68.9891 54.7431 69.0583 54.7526C69.1276 54.7651 69.2407 54.5953 69.2407 54.5764C69.2407 54.5575 69.2156 54.5181 69.2156 54.5181ZM66.7094 56.2995C66.7094 56.2995 66.6842 56.3247 66.7063 56.3419C66.7298 56.3624 66.7629 56.3372 66.7629 56.3372C66.7629 56.3372 67.1952 55.9992 67.4515 55.7618C67.7219 55.5071 68.1119 55.0685 68.1119 55.0685C68.1119 55.0685 68.1386 55.0354 68.1088 55.0071C68.0772 54.9788 68.0034 55.0228 67.9421 55.0511C67.8886 55.0794 67.8571 55.1092 67.8164 55.1424C67.7786 55.177 67.6497 55.309 67.6497 55.309L67.3163 55.6329L67.1056 55.831L66.9013 56.0259L66.8163 56.1235C66.8163 56.1235 66.7943 56.1612 66.7881 56.1706C66.7817 56.1815 66.7598 56.2098 66.7598 56.2098C66.7598 56.2098 66.7282 56.2398 66.7282 56.2492C66.7282 56.2571 66.7188 56.2649 66.7188 56.2744C66.7165 56.283 66.7133 56.2914 66.7094 56.2995ZM65.9618 56.7901C65.9618 56.7901 65.9154 56.7524 65.8424 56.7885C65.7685 56.8278 65.6899 56.9283 65.6834 56.9394C65.6765 56.9537 65.6363 57.0071 65.6639 57.0542C65.6914 57.1014 65.7849 57.0321 65.799 57.0291C65.8124 57.0291 65.9343 56.9317 65.9343 56.9317C65.9343 56.9317 66.0051 56.8875 65.9618 56.7901ZM64.5303 58.2396C64.5303 58.2396 64.469 58.1265 64.3888 58.1736C64.3085 58.2208 64.2646 58.2366 64.1907 58.3387C64.1781 58.3559 64.0987 58.4583 64.0845 58.4849C64.0704 58.5102 63.991 58.6611 64.1522 58.6721C64.4289 58.6877 64.2472 58.5102 64.3424 58.4409C64.4194 58.3875 64.564 58.4016 64.5657 58.345C64.5672 58.2885 64.5303 58.2396 64.5303 58.2396ZM59.6249 52.4474C59.6249 52.4474 59.459 52.4884 59.4464 52.545C59.433 52.6047 59.5431 52.6613 59.5604 52.6644C59.58 52.6676 59.617 52.7116 59.7278 52.6361C59.837 52.5623 59.8323 52.4993 59.8323 52.4993C59.8323 52.4993 59.8968 52.4239 59.6249 52.4474ZM62.3229 52.3594C62.3229 52.3594 62.3212 52.2981 62.2041 52.3061C62.0846 52.3124 62.0595 52.3343 62.0563 52.3532C62.0524 52.3705 62.0627 52.4004 62.1688 52.4098C62.2765 52.4161 62.3197 52.4097 62.3229 52.3594ZM64.8738 52.4333C64.6592 52.4317 64.7268 52.4381 64.5948 52.4444C64.355 52.4569 64.2245 52.4474 63.9879 52.4317C63.6561 52.4097 63.1428 52.3279 63.1428 52.3279C63.1428 52.3279 63.0783 52.3123 63.0524 52.3547C63.0288 52.394 63.1152 52.4851 63.1923 52.5088C63.6128 52.6394 63.6356 52.6174 63.9218 52.622C64.0814 52.6236 64.1702 52.6078 64.3291 52.5984C64.5303 52.5828 64.6238 52.6141 64.8431 52.556C64.9005 52.5418 64.9556 52.435 64.8738 52.4333ZM66.3108 52.0072C66.3108 52.0072 66.2676 51.9571 66.1787 52.001C66.0908 52.0434 66.0373 52.1393 66.0373 52.1393C66.0373 52.1393 65.9957 52.2053 66.0845 52.196C66.1709 52.1834 66.2487 52.1457 66.2691 52.1332C66.2919 52.1204 66.3564 52.0607 66.3108 52.0072ZM65.0601 34.7589C65.0601 34.7589 65.667 34.1906 66.1016 33.4391C66.3594 32.991 66.4718 31.9478 66.2502 32.2072C66.1503 32.3259 66.0293 32.8668 65.8374 33.2676C65.5639 33.8383 64.9798 34.6465 64.9798 34.6465C64.9798 34.6465 64.8542 34.9154 65.0601 34.7589ZM62.6342 36.2031C62.6342 36.2031 62.5697 36.2534 62.5988 36.3336C62.6295 36.4154 62.7529 36.3541 62.7529 36.3541C62.7529 36.3541 63.0336 36.248 63.3276 36.237C63.6223 36.2244 64.0312 36.3124 64.0312 36.3124C64.0312 36.3124 64.2261 36.3658 64.2583 36.3784C64.2905 36.3918 64.3967 36.4429 64.4148 36.4491C64.4306 36.4562 64.5319 36.5058 64.5886 36.4547C64.6452 36.4027 64.234 36.0294 63.8143 35.9728C63.1153 35.8776 62.6564 36.1787 62.6564 36.1787L62.6342 36.2031ZM59.7554 38.6644C59.8048 38.7069 60.0384 38.262 60.2333 37.9805C60.3764 37.7746 60.6375 37.4303 60.6375 37.4303C60.6375 37.4303 60.7553 37.2723 60.5557 37.3604C60.4748 37.3965 60.2531 37.5655 60.0966 37.8761C59.9645 38.1401 59.7035 38.6227 59.7554 38.6644ZM58.1407 36.7313C58.1407 36.7313 58.0903 36.9035 58.2917 37.1189C58.4944 37.3351 58.5463 37.5134 58.6753 37.3846C58.7107 37.3492 58.5495 37.0583 58.4678 36.9774C58.3836 36.8972 58.3239 36.8312 58.3239 36.8312L58.2712 36.7879L58.2036 36.7502L58.165 36.7346C58.165 36.7346 58.1548 36.7251 58.1407 36.7313ZM57.4865 35.0805C57.4865 35.0805 57.268 35.1213 57.2146 35.2274C57.1603 35.3336 57.4661 35.2691 57.4661 35.2691C57.4661 35.2691 57.6689 35.2801 57.6737 35.2031C57.6784 35.1245 57.6478 35.1166 57.4865 35.0805ZM54.0143 40.8349C53.9027 40.8027 53.8839 41.0221 53.8688 41.0927C53.8563 41.1634 53.9192 41.305 53.9451 41.305C53.9702 41.3034 54.059 41.1651 54.0637 41.0975C54.0685 41.0283 54.1126 40.8656 54.0143 40.8349ZM57.6203 45.1209C57.6203 45.1209 57.4206 44.9628 57.3899 45.0257C57.3601 45.0886 57.5543 45.366 57.5543 45.366C57.5543 45.366 57.614 45.4573 57.706 45.4163C57.7963 45.3724 57.7641 45.2717 57.7641 45.2717C57.7641 45.2717 57.7028 45.1428 57.6203 45.1209ZM56.1149 40.4859C56.1149 40.4859 56.0638 40.4726 56.0457 40.5338C56.0268 40.5951 56.0284 40.695 56.015 40.816C56.0041 40.9104 56.0395 41.1619 56.0395 41.1619C56.0395 41.1619 56.0591 41.3616 56.0992 41.4804C56.1424 41.6108 56.2572 41.7964 56.2572 41.7964C56.2572 41.7964 56.3004 41.8915 56.3538 41.8868C56.4065 41.8813 56.3939 41.8192 56.3939 41.8192C56.3939 41.8192 56.2265 41.1558 56.2218 41.0881C56.2021 40.8673 56.2021 40.5984 56.2021 40.5984L56.2005 40.5582C56.2005 40.5582 56.1989 40.4874 56.1149 40.4859ZM56.3758 38.4617C56.3758 38.4617 56.2838 38.4444 56.199 38.6212C56.1134 38.8005 56.1314 38.8728 56.1392 38.8807C56.1456 38.8886 56.2131 38.887 56.3216 38.7212C56.4294 38.5568 56.4049 38.4939 56.4049 38.4939C56.4049 38.4939 56.3986 38.4617 56.3758 38.4617ZM58.9056 40.2957C58.9056 40.2957 59.0164 40.4614 58.8042 40.423C58.5912 40.3845 58.1439 40.0315 57.9615 39.9364C57.7814 39.8413 57.485 39.8113 57.6093 39.6998C57.6321 39.6809 57.6383 39.6627 57.6737 39.6613C57.7107 39.6597 57.8333 39.7076 57.8411 39.7131C57.8474 39.7162 58.1626 39.8467 58.1743 39.8499C58.1854 39.8546 58.3623 39.9301 58.488 40.0039C58.6138 40.0785 58.8181 40.2216 58.8181 40.2216L58.9056 40.2957ZM64.8023 45.3725C64.8604 45.5548 64.1309 44.9872 63.7402 44.6861C62.7049 43.8889 61.4376 42.2546 61.5956 42.11C61.7261 41.9913 62.2457 42.7397 63.0075 43.5642C63.8219 44.4432 64.7684 45.2639 64.8023 45.3725ZM67.8476 44.5909C67.6213 44.8322 67.5411 45.1413 67.6715 45.3724C67.7989 45.5971 67.8382 45.0437 67.9798 44.881C68.1024 44.7386 68.1778 44.7615 68.3791 44.6184C68.7219 44.3771 68.1339 44.2836 67.8476 44.5909ZM66.5521 39.4325C66.3965 39.4073 66.4012 39.6439 66.4232 39.8114C66.527 40.5613 66.8635 41.1391 67.313 41.6831C67.5867 42.0149 68.3367 42.606 68.423 42.511C68.4546 42.4771 67.7093 41.9009 67.2344 41.1605C66.898 40.6354 66.7187 40.1912 66.6763 39.758C66.6717 39.7029 66.6842 39.4537 66.5521 39.4325ZM63.6482 28.3174C63.3101 28.5006 62.7237 28.6618 62.7237 28.6618C62.7237 28.6618 62.6969 28.72 62.7725 28.7138C63.2749 28.6736 63.4666 28.6107 63.734 28.4928C64.0012 28.3773 64.1954 28.0565 64.1954 28.0565C64.1954 28.0565 64.3039 27.8568 64.1027 28.0212C64.0397 28.0714 63.8337 28.216 63.6482 28.3174ZM67.7266 27.0291C67.7266 27.0291 67.6119 27.0038 67.5348 27.0519C67.4577 27.1006 67.4797 27.1392 67.4797 27.1392C67.4797 27.1392 67.5993 27.2303 67.6841 27.2453C67.769 27.2579 67.9514 27.3373 67.9452 27.276C67.9373 27.2132 67.8352 27.1007 67.7989 27.0701C67.766 27.0377 67.7266 27.0291 67.7266 27.0291ZM65.807 30.5509C65.8265 30.591 66.1693 30.4975 66.3014 30.4235C66.4045 30.3653 66.4452 30.1703 66.4452 30.1703C66.4452 30.1703 66.4735 29.9817 66.4296 30.0547C66.2338 30.3748 65.788 30.5099 65.807 30.5509ZM65.796 29.6712C65.9343 29.4055 65.4162 29.9471 65.1521 30.087C64.9909 30.172 64.7284 30.2851 64.7284 30.2851C64.7284 30.2851 64.6592 30.3716 64.7559 30.3637C64.8525 30.3574 65.0986 30.4408 65.2983 30.2866C65.3456 30.2489 65.553 29.947 65.553 29.947C65.553 29.947 65.7298 29.7969 65.796 29.6712ZM65.7157 30.8016C65.7267 30.8449 66.3076 30.8306 66.4531 30.7867C66.5679 30.7552 66.6307 30.5525 66.6307 30.5525C66.6307 30.5525 66.6999 30.3748 66.6401 30.4345C66.3769 30.7034 65.7056 30.7584 65.7157 30.8016ZM56.3852 36.1229C56.3852 36.1229 56.2972 36.0907 56.188 36.2549C56.0794 36.4185 55.5905 37.1614 55.677 37.2706C55.7799 37.3995 56.2036 36.6071 56.3327 36.4594C56.4631 36.3092 56.4096 36.1583 56.4096 36.1583C56.4096 36.1583 56.4081 36.1244 56.3852 36.1229ZM67.0364 49.5169C66.9829 49.7637 67.0458 50.2685 67.1308 50.3674C67.3383 50.6174 67.2109 49.976 67.2408 49.7511C67.2659 49.5421 67.291 49.4697 67.3949 49.2464C67.5804 48.8439 67.145 48.9917 67.0364 49.5169ZM65.2518 28.0503C65.2518 28.0503 65.0908 28.055 64.965 28.1242C64.8376 28.1934 64.8061 28.2917 64.8061 28.2917C64.8061 28.2917 64.7802 28.3624 64.7976 28.4009C64.8345 28.485 65.009 28.3577 65.1308 28.3993C65.229 28.4347 65.2763 28.4638 65.3517 28.5541C65.4177 28.6328 65.5333 28.746 65.6057 28.6815C65.6803 28.6186 65.6529 28.4574 65.6529 28.4574C65.6529 28.4574 65.5671 28.1949 65.4548 28.121C65.3415 28.0456 65.2518 28.0503 65.2518 28.0503ZM62.5744 29.8968C62.5744 29.8968 62.4839 29.9109 62.5052 30.021C62.5265 30.1287 62.5854 30.1122 62.5854 30.1122C62.5854 30.1122 62.7726 30.0319 62.7615 29.9196C62.7481 29.8064 62.5744 29.8968 62.5744 29.8968ZM61.267 29.3104C61.267 29.3104 61.1688 29.3144 61.0996 29.4361C61.0565 29.5151 61.0205 29.5977 60.9919 29.683C60.9919 29.683 60.9597 29.8419 61.0162 29.8921C61.0737 29.9416 61.1365 29.7892 61.219 29.7294C61.2685 29.6941 61.2992 29.6783 61.3503 29.6422C61.4203 29.5941 61.5343 29.6554 61.5264 29.514C61.5163 29.3716 61.3654 29.3041 61.267 29.3104ZM65.4916 27.7893C65.4916 27.7893 65.2692 27.7571 65.2778 27.8427C65.2857 27.9228 65.3982 27.8749 65.4704 27.9072C65.5412 27.9394 65.5884 27.952 65.6449 28.0039C65.6866 28.0408 65.6818 28.1131 65.733 28.1147C65.8037 28.1163 65.7896 28.0872 65.7896 28.0872C65.7896 28.0872 65.7251 27.8953 65.6411 27.8412C65.5577 27.7861 65.4916 27.7893 65.4916 27.7893ZM67.9734 28.6862C67.942 28.8073 67.9231 28.8489 67.9231 28.8489C67.9231 28.8489 67.8603 29.095 68.1087 29.0045C68.3571 28.9133 68.2281 28.9518 68.4073 28.8646C68.5835 28.7782 68.5803 28.8261 68.7093 28.8324C68.7532 28.834 68.7815 28.8355 68.8477 28.823C68.9042 28.8103 68.8806 28.7443 68.7549 28.7105C68.6198 28.6751 68.4546 28.683 68.2629 28.6814C68.1496 28.6799 68.0065 28.5652 67.9734 28.6862ZM68.0835 27.7767C68.0835 27.7767 67.9703 27.7507 67.8917 27.7995C67.8146 27.8474 67.8382 27.8859 67.8382 27.8859C67.8382 27.8859 67.9562 27.9796 68.0426 27.9921C68.1276 28.007 68.3099 28.0856 68.3037 28.0228C68.2941 27.9615 68.1936 27.8475 68.1574 27.8169C68.1213 27.7861 68.0835 27.7767 68.0835 27.7767ZM68.5207 29.485C68.5207 29.485 68.3995 29.4605 68.3162 29.5069C68.2345 29.5525 68.2564 29.5895 68.2564 29.5895C68.2564 29.5895 68.3854 29.6761 68.4766 29.6894C68.5678 29.7019 68.7627 29.7758 68.7549 29.7169C68.7471 29.6587 68.6369 29.551 68.6007 29.522C68.5646 29.4927 68.5207 29.485 68.5207 29.485ZM68.5584 30.1043C68.5584 30.1043 68.4294 30.0753 68.3414 30.1287C68.2534 30.1814 68.2799 30.2239 68.2799 30.2239C68.2799 30.2239 68.4137 30.3253 68.5112 30.3395C68.6071 30.3544 68.8147 30.4393 68.8052 30.3717C68.7974 30.3041 68.681 30.1815 68.6401 30.1485C68.6024 30.1137 68.5584 30.1043 68.5584 30.1043ZM68.6165 30.7081C68.6165 30.7081 68.4766 30.6759 68.3821 30.7356C68.2863 30.7953 68.3161 30.8433 68.3161 30.8433C68.3161 30.8433 68.4607 30.9565 68.5646 30.9738C68.6699 30.9904 68.8947 31.087 68.8854 31.0107C68.8759 30.9353 68.7501 30.7953 68.7061 30.7584C68.6652 30.719 68.6165 30.7081 68.6165 30.7081ZM68.6039 31.4549C68.6039 31.4549 68.464 31.425 68.3696 31.484C68.2737 31.5422 68.3005 31.5901 68.3005 31.5901C68.3005 31.5901 68.4482 31.7032 68.552 31.7206C68.6558 31.7372 68.8806 31.8339 68.8712 31.7583C68.8602 31.6821 68.736 31.5422 68.6935 31.5052C68.6495 31.4667 68.6039 31.4549 68.6039 31.4549ZM68.5017 32.9108C68.5017 32.9108 68.3602 32.8802 68.2658 32.94C68.1715 32.9989 68.1998 33.0462 68.1998 33.0462C68.1998 33.0462 68.3444 33.1601 68.4483 33.1767C68.5536 33.1924 68.7785 33.2906 68.7691 33.2136C68.7596 33.1381 68.634 32.9989 68.5898 32.9604C68.5646 32.9374 68.5345 32.9205 68.5017 32.9108ZM68.5962 32.1829C68.5962 32.1829 68.4357 32.146 68.3225 32.2151C68.2139 32.2826 68.247 32.3377 68.247 32.3377C68.247 32.3377 68.4153 32.4697 68.5363 32.4887C68.6558 32.5083 68.9169 32.6192 68.9074 32.5327C68.8948 32.4439 68.7501 32.2827 68.6999 32.2395C68.6699 32.2132 68.6345 32.1938 68.5962 32.1829ZM68.4325 33.5696C68.4325 33.5696 68.3161 33.542 68.2376 33.5916C68.1589 33.6403 68.1842 33.6789 68.1842 33.6789C68.1842 33.6789 68.3037 33.774 68.3886 33.7866C68.475 33.8008 68.659 33.8801 68.6527 33.8173C68.6433 33.7543 68.5411 33.6403 68.505 33.6097C68.4703 33.5775 68.4325 33.5696 68.4325 33.5696ZM68.3225 34.2C68.3225 34.2 68.2281 34.1796 68.1621 34.2197C68.0994 34.2598 68.1181 34.292 68.1181 34.292C68.1181 34.292 68.2171 34.369 68.2879 34.3808C68.3585 34.3918 68.5143 34.4595 68.508 34.406C68.5016 34.3549 68.4136 34.2598 68.3853 34.2338C68.3671 34.2181 68.3456 34.2066 68.3225 34.2ZM68.1873 34.7755C68.1873 34.7755 68.1024 34.7559 68.0426 34.7928C67.986 34.8281 68.0018 34.8588 68.0018 34.8588C68.0018 34.8588 68.0914 34.928 68.1559 34.9375C68.2204 34.9492 68.3586 35.0082 68.3525 34.9618C68.3477 34.9154 68.2706 34.8281 68.2439 34.8053C68.2171 34.7818 68.1873 34.7755 68.1873 34.7755ZM68.052 35.2471C68.052 35.2471 67.964 35.2274 67.9075 35.2628C67.8476 35.2998 67.865 35.3288 67.865 35.3288C67.865 35.3288 67.9546 35.3995 68.0191 35.409C68.0836 35.4193 68.2219 35.4798 68.2157 35.4319C68.211 35.3855 68.1339 35.2999 68.1056 35.277C68.0803 35.2535 68.052 35.2471 68.052 35.2471ZM67.8871 35.7943C67.8871 35.7943 67.8179 35.7778 67.7691 35.8069C67.7219 35.8376 67.7377 35.8604 67.7377 35.8604C67.7377 35.8604 67.8099 35.9171 67.8618 35.9265C67.9138 35.9342 68.0269 35.9831 68.0208 35.9436C68.016 35.9068 67.9531 35.8376 67.9327 35.8179C67.9106 35.799 67.8871 35.7943 67.8871 35.7943ZM67.6905 36.306C67.6905 36.306 67.6308 36.2918 67.5899 36.317C67.5491 36.3429 67.5617 36.3641 67.5617 36.3641C67.5617 36.3641 67.6245 36.412 67.6686 36.4184C67.7126 36.4271 67.81 36.4688 67.8053 36.4349C67.8023 36.4027 67.7472 36.3429 67.7299 36.3272C67.7183 36.3177 67.7049 36.3105 67.6905 36.306ZM67.4877 36.7927C67.4877 36.7927 67.4263 36.7793 67.3855 36.8053C67.346 36.8296 67.3602 36.8501 67.3602 36.8501C67.3602 36.8501 67.42 36.8988 67.4656 36.9067C67.5112 36.913 67.6071 36.9546 67.6024 36.9232C67.5993 36.8886 67.5442 36.8296 67.5269 36.8132C67.5081 36.7973 67.4877 36.7927 67.4877 36.7927ZM54.3264 39.2682C54.3264 39.2682 54.225 39.4647 54.2753 39.5725C54.3248 39.681 54.4616 39.4003 54.4616 39.4003C54.4616 39.4003 54.603 39.1204 54.5457 39.0694C54.4876 39.0174 54.4538 39.162 54.3264 39.2682Z" fill="white"/>
<path d="M68.6368 64.5079V64.126C68.6368 63.258 69.0755 63.0883 70.3569 63.082C71.5361 63.0883 71.9527 63.236 71.9527 63.9845V66.8727H72.3881V67.5236H69.5078C68.9009 67.5236 68.5048 67.1069 68.5048 66.5944V66.0094C68.5048 65.5047 68.7626 65.0645 69.6651 65.0597H70.7908V64.1808C70.7908 63.7217 70.7594 63.6667 70.2988 63.6667H70.294C69.7423 63.6667 69.7061 63.7391 69.7061 64.1808V64.5078L68.6368 64.5079ZM69.9733 65.5441C69.747 65.5441 69.6133 65.7265 69.6133 65.9528V66.511C69.6133 66.7359 69.7093 66.9151 69.9733 66.9182H70.379C70.6023 66.9182 70.7847 66.849 70.7847 66.511L70.7878 65.5441H69.9733ZM65.8973 64.17V63.1605H64.2905V63.7612H64.7189V66.871H64.2905V67.5236H66.303V66.871H65.8973V65.2045C65.8973 65.049 66.8446 63.8525 66.8446 63.9907V65.6462H67.9578V63.7832C67.9578 63.3572 67.6794 63.0821 67.1716 63.0821C66.5678 63.082 66.1598 63.8414 65.8973 64.17ZM78.7056 66.868V63.1605H77.0657V63.7612H77.5248V66.868H77.0657V67.5236H79.1363V66.868H78.7056ZM61.763 64.17V63.1605H60.1562V63.7612H60.5847V66.871H60.1562V67.5236H62.1672V66.871H61.763V65.2045C61.763 65.049 62.7095 63.8525 62.7095 63.9907V65.6462H63.8219V63.7832C63.8219 63.3572 63.5451 63.0821 63.0366 63.0821C62.4343 63.082 62.0256 63.8414 61.763 64.17Z" fill="black"/>
<path fill-rule="evenodd" clip-rule="evenodd" d="M59.5429 66.0948H58.4156V66.4218C58.4156 66.8653 58.3417 66.8841 57.7922 66.8903H57.7843C57.1545 66.8935 57.19 66.8306 57.1971 66.4218V65.6466H59.5428V63.9628C59.5428 63.3526 59.0821 63.0964 57.8668 63.0918H57.6923C56.3803 63.098 56.0312 63.3968 56.0312 64.1515V66.6167C56.0312 67.4468 56.5217 67.5868 57.7166 67.6198H57.847C59.1513 67.5899 59.5428 67.5002 59.5428 66.7251L59.5429 66.0948ZM57.2097 64.0256C57.2097 63.7962 57.2789 63.6828 57.5415 63.6797H58.0359C58.2403 63.6797 58.3543 63.7709 58.3543 63.9343V65.1969H57.2096L57.2097 64.0256Z" fill="black"/>
<path d="M78.1133 62.2649V61.4756" stroke="black" stroke-width="0.687532" stroke-miterlimit="10"/>
<path d="M74.4327 64.1699V63.1604H72.8242V63.7611H73.2519V66.8709H72.8242V67.5235H74.8367V66.8709H74.4327V65.2044C74.4327 65.0489 75.3776 63.8524 75.3776 63.9906V65.6461H76.4923V63.7831C76.4923 63.3571 76.2123 63.082 75.7028 63.082C75.1024 63.0819 74.6935 63.8413 74.4327 64.1699Z" fill="black"/>
<path d="M54.6262 65.4033V64.8216H53.9997V66.8733H55.0853V67.5243H51.9023V66.8733H52.749V62.2651H52.084V61.4727H76.8757V62.2651H53.9997V64.1156H54.6262V63.5685H55.3471V65.4033H54.6262Z" fill="black"/>
<path fill-rule="evenodd" clip-rule="evenodd" d="M77.5078 61.4443H78.6901V62.2242H77.5078V61.4443Z" fill="black"/>
</svg>
