<svg width="132" height="88" viewBox="0 0 132 88" fill="none" xmlns="http://www.w3.org/2000/svg">
<path d="M116.464 42.5447C116.498 42.6462 116.498 42.7139 116.498 42.8154C116.498 42.7139 116.464 42.6462 116.464 42.5447ZM65.9997 24.9785C37.8059 24.9785 15.2305 33.4401 15.2305 44.0001C15.2305 54.5262 38.0089 63.0216 65.9997 63.0216C93.9905 63.0216 116.769 54.4924 116.769 44.0001C116.769 33.5077 93.9905 24.9785 65.9997 24.9785Z" fill="#D3D2D2"/>
<path d="M16.0078 43.9996C16.0078 54.0857 38.3801 62.2765 65.9986 62.2765C93.617 62.2765 115.989 54.1196 115.989 43.9996C115.989 33.9134 93.617 25.7227 65.9986 25.7227C38.3801 25.7227 16.0078 33.9134 16.0078 43.9996Z" fill="url(#paint0_radial_353_44522)"/>
<path d="M19.7656 43.9998C19.7656 44.6767 19.901 45.3536 20.1718 46.0306C20.0702 45.5906 20.0025 45.1506 20.0025 44.7106C20.0025 36.3506 40.6826 29.5813 66.2364 29.5813C89.7256 29.5813 109.119 35.3013 112.064 42.7475C110.101 34.929 90.2333 28.8029 65.9995 28.8029C40.4795 28.769 19.7656 35.6059 19.7656 43.9998Z" fill="url(#paint1_linear_353_44522)"/>
<path d="M113.892 44.0002C113.892 53.2064 92.4331 60.6864 65.9993 60.6864C42.4423 60.6864 22.8793 54.7633 18.8516 46.9787C21.9316 55.1017 42.0023 61.3633 66.3377 61.3633C92.8054 61.3633 114.23 53.951 114.23 44.8464C114.23 43.9325 113.993 43.0187 113.587 42.1387C113.79 42.7141 113.892 43.3571 113.892 44.0002Z" fill="url(#paint2_linear_353_44522)"/>
<path d="M74.9336 45.625C73.8505 46.7419 73.7828 48.1973 74.4936 48.8404C74.7305 49.0773 75.0351 49.1789 75.3397 49.2127C74.8659 48.6373 74.6628 47.4866 75.2382 46.6066C75.1367 46.3358 75.1028 46.0312 75.1705 45.7266C75.1705 45.6589 75.1367 45.5912 75.069 45.5912C75.0013 45.5573 74.9674 45.5912 74.9336 45.625Z" fill="url(#paint3_linear_353_44522)"/>
<path d="M86.0019 47.9941C86.0019 48.1634 86.0696 48.468 86.1035 48.7049C86.1712 48.6034 86.205 48.5018 86.2727 48.3664C86.3066 48.2649 86.3066 48.2649 86.2389 48.2311C86.1373 48.1972 86.0019 48.0957 86.0019 48.028C85.9681 48.028 85.9681 48.028 86.0019 47.9941Z" fill="url(#paint4_linear_353_44522)"/>
<path d="M87.2891 44.3389C87.6614 44.6773 87.8644 45.0835 87.8983 45.4896C87.8983 45.6589 88.0675 45.6927 88.1691 45.5235C88.2029 45.4896 88.2368 45.4219 88.2706 45.3543C88.2368 45.3204 88.2029 45.2866 88.1691 45.2189C88.0337 45.0496 87.6614 44.6773 87.2891 44.3389Z" fill="url(#paint5_linear_353_44522)"/>
<path d="M72.4297 43.6611C72.7005 44.0673 72.8358 44.6088 72.8358 45.3196C72.8358 45.4888 72.9712 45.4888 73.0389 45.3534C73.0728 45.2857 73.1405 45.2181 73.1743 45.1504C73.0051 44.5073 72.6666 43.8981 72.4297 43.6611Z" fill="url(#paint6_linear_353_44522)"/>
<path d="M82.346 47.385C81.3306 48.6034 80.7891 49.8557 80.7891 51.0742C80.7891 51.5142 80.9583 52.0557 81.3306 52.225C81.466 52.2926 81.5675 52.3265 81.7029 52.3603C81.6691 52.1911 81.6352 52.0219 81.6352 51.8865C81.6352 50.6342 82.0075 49.3819 83.0229 48.1296C84.2414 46.6403 85.5275 45.8957 86.4075 46.3019C86.3737 45.9634 86.2045 45.6926 85.8321 45.5234C85.6629 45.4557 85.4937 45.4219 85.2906 45.4219C84.4106 45.4219 83.3275 46.1665 82.346 47.385Z" fill="url(#paint7_linear_353_44522)"/>
<path d="M62.2437 44.7782C60.8898 45.2859 59.536 46.0982 58.5883 47.3506C57.5052 48.7721 57.2345 50.4982 57.9452 51.5136C58.1145 51.7506 58.3175 51.9198 58.5545 52.0213C58.1822 50.8367 58.4529 49.2459 59.3668 48.0275C60.3145 46.7752 61.3637 46.3013 62.5483 45.7598C62.7175 45.6921 62.7175 45.5906 62.6837 45.4552C62.616 45.2182 62.4806 44.609 62.4129 44.4736C62.4468 44.6429 62.4129 44.7444 62.2437 44.7782Z" fill="url(#paint8_linear_353_44522)"/>
<path d="M72.3982 48.6029C71.1459 50.5321 69.9613 52.3936 68.709 54.3567C68.6413 54.4582 68.5736 54.4921 68.472 54.5259H66.0013C65.8997 54.5259 65.8659 54.4921 65.832 54.4244C65.8997 54.729 66.0013 55.2705 66.0351 55.4059C66.069 55.5075 66.1366 55.5413 66.2043 55.5413H69.0136C69.1151 55.5413 69.2166 55.4736 69.2505 55.3721C70.4013 53.5782 71.6197 51.649 72.7705 49.8552C73.0413 50.769 73.1428 51.1752 73.6505 51.6152C74.1243 52.0552 74.5643 52.1567 75.2413 52.1567C75.8505 52.1567 76.4259 51.9198 77.1366 51.6152C77.4074 51.5136 77.6105 51.3782 77.8136 51.2428C77.8136 50.9044 77.8474 50.5659 77.9151 50.2613C77.9151 50.2275 77.8813 50.0244 77.712 50.1259C77.3736 50.3629 76.9674 50.5998 76.4259 50.8029C75.7828 51.0398 75.4782 51.1413 74.869 51.1413C74.1243 51.1413 73.4474 50.8028 72.9736 50.0582C72.7028 49.6521 72.6013 49.0429 72.5674 48.6029C72.5674 48.569 72.5336 48.5352 72.4997 48.5352C72.4659 48.569 72.432 48.569 72.3982 48.6029Z" fill="url(#paint9_linear_353_44522)"/>
<path d="M94.1928 49.6181C92.9743 51.1074 91.6543 52.4951 90.3681 53.4766C88.3712 55.0335 86.4081 55.4058 85.4266 54.4243C85.0543 54.052 84.8512 53.5443 84.8512 53.0704C84.8512 52.8335 84.7158 52.8335 84.6143 52.9351C83.4297 54.0858 81.3989 55.372 79.5374 54.4581C78.6235 53.9843 78.1158 53.1381 77.9127 52.1904C78.0143 52.8674 78.1835 53.8489 78.4881 54.4581C78.6912 54.8643 79.1651 55.3381 79.4697 55.4735C81.1281 56.2858 83.4635 55.372 84.9866 53.9166C84.9866 53.8828 85.0204 53.8828 85.0204 53.8828C85.0881 54.1535 85.1897 54.4581 85.1897 54.492C85.2912 54.8304 85.4604 55.1351 85.5958 55.3043C86.6451 56.4889 88.8112 55.9474 91.1128 54.1874C92.3989 53.2058 93.3466 52.2243 94.4974 50.8704C94.5312 50.8028 94.5312 50.7351 94.5312 50.5997C94.4635 50.2951 94.362 49.7874 94.2943 49.5166C94.2266 49.5166 94.2266 49.5843 94.1928 49.6181Z" fill="url(#paint10_linear_353_44522)"/>
<path d="M78.4563 45.5235C78.3547 46.2681 77.9486 46.9112 77.2716 47.2496C76.6963 47.5204 76.0193 47.4866 75.5455 47.0466C75.4101 46.9112 75.3086 46.7419 75.207 46.5727C75.3424 47.1143 75.444 47.5204 75.5793 47.7573C76.0193 48.4343 76.7978 48.6035 77.644 48.1296C78.2532 47.7912 78.7947 47.0804 78.727 45.9635C78.6932 45.3881 78.524 44.8127 78.2532 44.3389C78.4563 44.7112 78.524 45.1173 78.4563 45.5235Z" fill="url(#paint11_linear_353_44522)"/>
<path d="M95.817 38.5508C95.4447 39.2277 87.9986 50.5323 87.5247 51.7169C87.3894 52.0892 87.3555 52.36 87.5247 52.5631C87.694 52.7661 87.897 52.8338 88.1678 52.8338C88.2017 52.6985 88.2355 52.5292 88.3032 52.36C88.777 51.1754 95.7494 40.6154 96.1217 39.9384C96.1555 39.8708 96.1555 39.8031 96.1217 39.7692C96.0878 39.6677 95.8509 38.5508 95.8509 38.4492C95.8509 38.4831 95.8509 38.5169 95.817 38.5508Z" fill="url(#paint12_linear_353_44522)"/>
<path d="M64.9492 43.8311L65.0169 43.8987C65.4569 44.5757 65.6938 45.4895 65.7277 46.4711C65.7615 46.6741 65.8292 46.6741 65.9308 46.5726C66.0323 46.4711 66.1 46.3695 66.2015 46.3018C66.0661 45.7941 65.8631 45.3203 65.66 44.8803C65.5923 44.6772 65.2538 44.1018 64.9492 43.8311Z" fill="url(#paint13_linear_353_44522)"/>
<path d="M68.7408 46.0643C67.1501 47.2827 65.7962 49.1781 65.1193 50.0243C64.7131 50.532 64.3408 51.2427 63.2916 52.3935C61.6331 54.1874 59.4331 55.2366 57.3347 54.492C56.1839 54.1197 55.3378 53.172 55.0331 52.0212C54.9655 51.7843 54.8301 51.7504 54.7285 51.8858C54.3901 52.3258 53.6793 52.9351 53.1039 53.3412C53.0362 53.3751 52.867 53.4766 52.7316 53.4089C52.5962 53.3412 52.1901 52.732 52.0885 52.5627C52.0885 52.5289 52.0547 52.5289 52.0547 52.4951C52.1901 53.2397 52.2239 53.3412 52.427 53.6797C52.6639 54.052 52.9008 54.3227 52.9347 54.3566C53.0701 54.4243 53.2055 54.3566 53.2731 54.3227C53.7131 54.0858 54.5931 53.4089 54.9993 52.9351C55.1008 52.8335 55.2362 52.9012 55.2701 53.0027C55.4393 53.5104 55.6762 53.8827 55.9131 54.3227C56.1839 54.7966 56.7593 55.2704 57.5039 55.4735C58.4516 55.7443 59.5008 55.7781 60.8547 55.2704C61.9378 54.8643 63.0885 54.0181 63.9685 53.0366C65.0178 51.8858 65.3901 51.1751 65.7962 50.6674C66.4731 49.8212 67.5562 48.332 69.0455 47.0458C69.5531 46.6058 70.1285 46.3012 70.5008 46.4366C70.7039 45.8951 70.6024 45.5904 70.3993 45.4212C70.3316 45.3874 70.2301 45.3535 70.1285 45.3535C69.7224 45.4212 69.2147 45.7258 68.7408 46.0643Z" fill="url(#paint14_linear_353_44522)"/>
<path d="M42.0726 44.5419C41.1588 45.0157 40.0757 45.7942 39.5342 46.8773C39.0942 47.7573 39.0265 48.8065 39.6696 49.8219C39.7372 49.8896 39.7711 49.9911 39.8388 50.0588C39.6357 49.2126 39.8726 48.3326 40.1772 47.6557C40.7188 46.5726 41.4634 46.0649 42.208 45.5911C42.5126 45.388 42.6819 45.1849 42.4788 44.6773C42.4111 44.5419 42.3772 44.2711 42.3434 44.0342C42.3772 44.2373 42.2757 44.4403 42.0726 44.5419Z" fill="url(#paint15_linear_353_44522)"/>
<path d="M48.8737 33.7446C46.2675 34.7262 45.1168 36.7908 45.6583 38.1785C45.7598 38.4492 45.9291 38.6523 46.166 38.7877C45.9968 37.5015 46.9445 35.4369 49.4491 34.5908C52.7321 33.5077 56.3875 34.1846 59.3321 34.8277C59.7383 34.5569 60.1106 34.3877 60.4491 34.1846C60.6183 34.0831 60.4152 33.9815 60.3814 33.9815C58.046 33.5415 55.6091 33 53.2398 33C51.7506 33 50.2952 33.2031 48.8737 33.7446Z" fill="url(#paint16_linear_353_44522)"/>
<path d="M59.807 41.4955C58.6224 41.5632 56.7947 41.7324 55.5424 41.9017C55.2378 41.9355 55.2039 42.0032 55.1362 42.1047C53.1393 45.3878 51.0408 48.9078 48.7055 51.2771C46.2008 53.8155 44.1362 54.4924 41.9362 54.4924C39.3978 54.5263 37.1301 53.0709 36.5547 50.5324C36.8593 51.954 37.7731 53.6463 38.8224 54.3909C39.9055 55.1355 40.9547 55.4063 42.1731 55.4063C44.6778 55.4401 46.9793 54.4247 49.4162 51.954C51.7516 49.5847 53.7824 46.2678 55.7455 42.9847C55.8131 42.8832 55.8808 42.8155 56.2193 42.7817C57.4716 42.6124 58.5885 42.5447 59.7055 42.4432C60.0439 42.4094 60.2808 42.3755 60.4162 42.5109C60.8224 42.9171 61.2624 43.2894 61.6008 43.4586C61.8039 43.4586 61.9732 43.4924 62.1085 43.6278C62.2439 43.594 62.3455 43.5263 62.447 43.4586C62.5824 43.3232 62.5824 43.154 62.5824 43.0186C62.5485 42.7478 62.447 42.2063 62.3793 42.0709C62.447 42.1724 62.4131 42.3417 62.2778 42.4771C62.1762 42.5786 62.0408 42.6801 61.8716 42.6801C61.7362 42.6801 61.6347 42.6124 61.4655 42.5447C61.0932 42.3417 60.6193 42.0032 60.3147 41.6309C60.247 41.5294 60.1793 41.4955 60.0439 41.4955C59.9085 41.4617 59.8747 41.4955 59.807 41.4955Z" fill="url(#paint17_linear_353_44522)"/>
<path d="M49.0419 43.4581C48.7711 43.6612 48.365 43.6273 48.1958 43.3565C48.1281 43.255 48.0942 43.1535 48.0942 43.0858C48.0604 43.5258 48.2296 44.135 48.365 44.3381C48.5004 44.575 48.9404 44.6765 49.2788 44.4396C50.0235 43.8642 50.7342 43.5596 51.4788 43.3904C51.6819 43.1196 51.885 42.815 52.1219 42.4765C52.1558 42.4427 52.1558 42.4088 52.1219 42.4088C52.1219 42.375 52.0881 42.375 52.0204 42.375C50.9711 42.4088 49.9896 42.7473 49.0419 43.4581Z" fill="url(#paint18_linear_353_44522)"/>
<path d="M80.7227 33.0342C80.7227 33.068 80.7565 33.068 80.7565 33.1019C80.7565 33.068 80.7565 33.0342 80.7227 33.0342Z" fill="url(#paint19_linear_353_44522)"/>
<path d="M80.8582 33.5074C80.8243 34.2182 80.2489 34.929 78.8612 35.6736C77.2705 36.5536 75.6458 36.7905 73.9197 36.8244C69.7566 36.8582 65.8643 35.2336 61.8705 34.3536C61.8705 34.5228 61.9043 34.7259 61.7689 34.8613C59.5351 36.5197 57.5382 38.1782 56.1843 40.5136C56.1505 40.5813 56.1505 40.6151 56.252 40.6151C56.6243 40.5813 56.9628 40.5813 57.3012 40.5474C58.5197 38.6182 59.8397 37.5351 61.8366 36.0459C61.972 35.9444 62.1412 35.8428 62.0735 35.4367C66.1012 36.3167 69.1474 37.8059 74.3597 37.8397C75.9166 37.8397 78.0828 37.332 79.2674 36.6213C80.6212 35.809 80.9935 35.1997 81.0274 34.5905C81.0274 34.3874 80.9935 34.0828 80.9597 33.9474C80.9258 33.7444 80.892 33.4736 80.8243 33.2705C80.8582 33.3044 80.8582 33.4059 80.8582 33.5074Z" fill="url(#paint20_linear_353_44522)"/>
<path d="M61.4655 38.4153C61.4317 38.4492 61.364 38.5169 61.2963 38.5507C60.8902 38.9569 60.7886 39.4984 60.8225 39.9046C60.8563 40.0738 60.924 40.1076 60.9917 40.0738C61.0594 40.0738 61.1609 40.0399 61.2286 40.0061C61.2625 39.7692 61.364 39.5661 61.5671 39.363C61.7363 39.2276 61.9394 39.1599 62.1086 39.1938C62.2778 38.8892 62.3117 38.5169 62.1086 38.3476C62.0409 38.2799 61.9394 38.2461 61.804 38.2461C61.7363 38.2799 61.6009 38.3138 61.4655 38.4153Z" fill="url(#paint21_linear_353_44522)"/>
<path d="M63.0558 39.8371C62.6835 40.5818 62.0404 40.9541 61.4312 41.1571C61.4312 41.1571 61.2958 41.191 61.3297 41.2925C61.3297 41.4279 61.7697 41.6987 62.0404 41.8679C62.0743 41.8679 62.142 41.8341 62.142 41.8341C62.4466 41.6987 62.9543 41.3941 63.2589 40.751C63.462 40.3448 63.5635 40.0064 63.462 39.2618C63.3943 38.7541 63.2927 38.2802 63.1573 38.0771C63.462 38.6187 63.3604 39.2956 63.0558 39.8371Z" fill="url(#paint22_linear_353_44522)"/>
<path d="M51.9523 36.418C52.02 36.5872 52.02 36.8918 51.8846 37.2303C50.7677 39.8364 48.6692 41.8672 46.0969 41.9687C44.54 42.0026 43.3892 41.2241 42.8477 40.0734C43.2538 40.9534 44.0661 41.7318 44.7769 42.1718C45.3184 42.5103 46.0292 42.7134 46.8077 42.6795C49.4815 42.578 51.5123 40.378 52.1892 38.5164C52.3584 38.0087 52.223 37.4672 52.1553 37.1287C52.0877 36.9595 52.0538 36.6549 51.9523 36.418Z" fill="url(#paint23_linear_353_44522)"/>
<path d="M116.464 42.5447C116.498 42.6462 116.498 42.7139 116.498 42.8154C116.498 42.7139 116.464 42.6462 116.464 42.5447ZM15.5689 44.237C15.5689 42.0031 16.5505 39.8031 18.6151 37.7047C25.892 30.3601 44.9136 25.4185 65.8982 25.317C93.7197 25.2154 116.363 33.5077 116.43 43.797C116.43 46.0308 115.415 48.197 113.35 50.2954C106.074 57.6401 87.0859 62.6154 66.1012 62.6831C38.2797 62.8185 15.6366 54.5262 15.5689 44.237ZM65.9997 24.9785C37.8059 24.9785 15.2305 33.4401 15.2305 44.0001C15.2305 54.5262 38.0089 63.0216 65.9997 63.0216C93.9905 63.0216 116.769 54.4924 116.769 44.0001C116.769 33.5077 93.9905 24.9785 65.9997 24.9785Z" fill="#4F4C4D"/>
<path d="M15.3984 43.9998C15.3984 44.5075 15.4661 44.9813 15.5677 45.489C15.5 45.0828 15.4323 44.6428 15.4323 44.2367C15.4323 41.969 16.4477 39.7013 18.5123 37.6028C25.8231 30.2244 44.8784 25.249 65.8969 25.1813C68.8077 25.1813 71.6846 25.249 74.46 25.4182C71.7184 25.249 68.8754 25.1475 65.9984 25.1475C37.94 25.1475 15.3984 33.5413 15.3984 43.9998Z" fill="url(#paint24_linear_353_44522)"/>
<path d="M116.567 43.797C116.567 46.0647 115.517 48.2985 113.419 50.397C106.142 57.7416 87.0867 62.7508 66.0682 62.8524C63.0898 62.8524 60.179 62.7847 57.3359 62.6154C60.1452 62.7847 63.0221 62.8862 65.9667 62.8862C93.8898 62.8862 116.567 54.357 116.567 44C116.567 43.5939 116.533 43.2216 116.465 42.8154C116.567 43.1539 116.567 43.4924 116.567 43.797Z" fill="url(#paint25_linear_353_44522)"/>
<path d="M18.0742 44C18.0742 53.2061 39.5327 60.6861 65.9665 60.6861C92.4342 60.6861 113.859 53.2061 113.859 44C113.893 34.7938 92.4681 27.3477 66.0004 27.3477C39.5327 27.3477 18.0742 34.7938 18.0742 44ZM19.7665 44C19.7665 35.5723 40.4465 28.7692 66.0004 28.7692C91.5204 28.7692 112.234 35.5723 112.234 44C112.234 52.4277 91.5542 59.2307 66.0004 59.2307C40.4804 59.2307 19.7665 52.4277 19.7665 44Z" fill="url(#paint26_linear_353_44522)"/>
<path d="M93.1108 38.3477C92.9077 38.3477 92.84 38.3815 92.7385 38.5507C92.4339 39.1261 88.8462 44.4738 88.2031 45.523C88.1016 45.6923 87.9662 45.6584 87.9323 45.4892C87.8646 44.88 87.3231 44.1692 86.4769 43.8307C85.8339 43.56 85.1908 43.5261 84.5477 43.5938C83.3631 43.763 82.3139 44.3723 81.4 45.083C80.0123 46.1323 78.7939 47.52 77.2708 48.5353C76.4246 49.0769 75.2739 49.5846 74.4954 48.84C73.7846 48.1969 73.8862 46.7415 74.9354 45.6246C75.0369 45.523 75.1723 45.5907 75.1723 45.7261C75.0708 46.2338 75.2062 46.7415 75.5785 47.08C76.0523 47.4861 76.7292 47.5538 77.3046 47.283C77.9816 46.9446 78.3877 46.3015 78.4892 45.5569C78.6585 44.4061 77.7785 43.4246 76.6954 43.323C75.8154 43.2553 74.9354 43.56 74.1231 44.2707C73.7169 44.6092 73.48 44.88 73.1077 45.3877C73.0062 45.523 72.8708 45.523 72.9046 45.3538C72.9385 43.8984 72.3293 43.0861 71.1446 43.0523C70.1969 43.0184 69.2154 43.5261 68.4369 44.1692C67.5908 44.8461 66.8462 45.76 66.0339 46.6061C65.9323 46.7077 65.8308 46.7077 65.8308 46.5046C65.7969 45.523 65.56 44.6092 65.12 43.9323C64.9508 43.6953 64.6123 43.5938 64.3416 43.7292C64.2062 43.7969 63.7662 44 63.4277 44.2707C63.2585 44.4061 63.1908 44.6092 63.2585 44.8461C63.6985 46.3015 63.5969 47.9261 63.0216 49.3138C62.48 50.6 61.4308 51.7169 60.2123 52.123C59.4 52.3938 58.5539 52.2584 58.0462 51.5477C57.3354 50.5661 57.6062 48.84 58.6893 47.3846C59.6369 46.1323 60.9908 45.32 62.3446 44.8123C62.5139 44.7446 62.5477 44.643 62.48 44.5077C62.4123 44.2707 62.2769 43.9661 62.2431 43.8307C62.1077 43.4923 61.7693 43.4584 61.3293 43.4923C60.3477 43.5938 59.4677 43.9323 58.5539 44.4061C56.2523 45.6246 55.1016 48.0277 54.5939 49.3138C54.3569 49.923 54.1539 50.2953 53.8831 50.6338C53.5108 51.1077 53.0708 51.5138 52.2246 52.2246C52.1569 52.2923 52.0893 52.4277 52.1569 52.563C52.2585 52.7323 52.6646 53.3415 52.8 53.4092C52.9354 53.4769 53.1046 53.3753 53.1723 53.3415C53.7477 52.9353 54.4585 52.3261 54.7969 51.8861C54.8985 51.7507 55.0339 51.8184 55.1016 52.0215C55.4062 53.1723 56.2523 54.0861 57.4031 54.4923C59.5016 55.203 61.7016 54.1877 63.36 52.3938C64.4093 51.243 64.7816 50.5323 65.1877 50.0246C65.8646 49.1784 67.2185 47.283 68.8093 46.0646C69.3846 45.6246 70.0954 45.2861 70.4339 45.4892C70.7046 45.6584 70.8062 46.0984 70.3662 46.9107C68.7416 49.8892 66.3385 53.4092 65.8985 54.2553C65.8308 54.3907 65.8985 54.5261 66.0339 54.5261H68.5046C68.64 54.5261 68.7077 54.4584 68.7416 54.3569C69.9939 52.3938 71.1785 50.5323 72.4308 48.603C72.4985 48.5015 72.5662 48.5692 72.5662 48.6369C72.6 49.0769 72.7016 49.6861 72.9723 50.0923C73.4462 50.8369 74.1231 51.1415 74.8677 51.1753C75.4769 51.1753 75.7816 51.1077 76.4246 50.8369C76.9662 50.6338 77.3723 50.3969 77.7108 50.16C77.9139 50.0246 77.9477 50.2615 77.9139 50.2953C77.6092 51.8523 77.9816 53.7138 79.5385 54.4584C81.4 55.3723 83.4308 54.0861 84.6154 52.9353C84.7169 52.8338 84.8523 52.8338 84.8523 53.0707C84.8862 53.5107 85.0892 54.0523 85.4277 54.4246C86.4092 55.4061 88.4062 55.0338 90.3693 53.4769C91.6554 52.4953 92.9754 51.1077 94.1939 49.6184C94.2277 49.5507 94.2616 49.483 94.1939 49.3815C94.0246 49.1784 93.7539 48.9753 93.5508 48.8061C93.4831 48.7384 93.3477 48.7723 93.28 48.8061C92.0277 49.9907 90.9446 51.3107 89.32 52.4277C88.7785 52.8 87.8985 53.1046 87.5262 52.5969C87.3908 52.3938 87.3908 52.123 87.5262 51.7507C88 50.5661 95.4462 39.2615 95.8185 38.5846C95.8862 38.483 95.8185 38.3815 95.6831 38.3815C94.9046 38.3477 93.8893 38.3477 93.1108 38.3477ZM81.3323 52.2584C80.96 52.0553 80.7908 51.5138 80.7908 51.1077C80.8246 49.8892 81.3662 48.6369 82.3477 47.4184C83.5662 45.9292 84.92 45.1507 85.8 45.5569C86.7139 45.9969 86.4093 47.0461 86.0031 47.8923C85.9693 47.96 85.9693 48.0277 86.0031 48.0615C86.0031 48.163 86.1385 48.2307 86.24 48.2646C86.2739 48.2646 86.3077 48.2984 86.2739 48.4C85.9692 49.0769 85.6646 49.483 85.2585 50.0584C84.8862 50.6 84.48 51.04 83.9723 51.4461C83.3969 51.92 82.6523 52.4277 81.9416 52.4277C81.7385 52.4277 81.5016 52.36 81.3323 52.2584Z" fill="url(#paint27_linear_353_44522)"/>
<path d="M53.58 31.4766C52.8692 31.4766 52.1584 31.5104 51.4476 31.5781C46.8784 31.9504 42.5461 34.5227 42.5123 38.4489C42.5123 40.4458 43.9338 42.0366 46.1 41.9689C48.6723 41.8673 50.7707 39.8366 51.8876 37.2304C52.2938 36.2489 51.5153 35.8427 51.1769 36.4181C50.5338 37.4335 49.5861 38.2119 48.6046 38.7196C47.3861 39.295 46.1 39.1596 45.7276 38.1781C45.1861 36.7904 46.3369 34.7258 48.943 33.7443C52.7 32.3566 56.66 33.2704 60.4507 33.9812C60.5184 33.9812 60.7215 34.0827 60.5184 34.1843C59.8415 34.5566 59.1646 34.8612 58.1153 35.7412C57.3707 36.3843 56.3892 37.2304 55.6446 38.1443C54.9 39.0581 54.3584 39.8704 53.6476 40.7843C53.5461 40.9196 53.4446 40.9196 53.4446 40.9196C51.7184 41.2243 50.06 41.3935 48.503 42.4766C48.1984 42.6796 48.063 43.0858 48.2323 43.3904C48.4015 43.6612 48.8076 43.695 49.0784 43.4919C50.0261 42.7812 51.0076 42.4427 52.1584 42.4089C52.1923 42.4089 52.2261 42.4089 52.26 42.4427V42.5104C50.5676 44.8458 50.1615 45.3873 48.8753 46.8427C48.2323 47.5873 47.5892 48.2304 46.8784 48.8735C44.0015 51.5473 40.8876 51.5135 39.7707 49.8212C39.0938 48.8058 39.1953 47.7566 39.6353 46.8766C40.1769 45.7935 41.26 45.015 42.1738 44.5412C42.5123 44.3719 42.6138 43.9319 42.2753 43.5596C42.0723 43.2889 41.5307 43.255 41.1584 43.3227C39.9738 43.5258 38.5861 44.4396 37.74 45.5227C36.8261 46.7412 36.3523 48.1966 36.4876 49.8212C36.7584 52.7996 39.1953 54.4919 41.9707 54.4919C44.1707 54.4581 46.2692 53.815 48.74 51.2766C51.0753 48.9073 53.2076 45.3873 55.1707 42.1043C55.2384 42.0027 55.2723 41.935 55.5769 41.9012C56.8292 41.7319 58.6569 41.5627 59.8415 41.495C60.1123 41.495 60.1461 41.495 60.2476 41.6304C60.5523 42.0027 61.0261 42.3412 61.3984 42.5443C61.5676 42.6458 61.6692 42.6796 61.8046 42.6796C61.9738 42.6796 62.1092 42.5781 62.2107 42.4766C62.3461 42.3412 62.38 42.1719 62.3123 42.0366C62.2446 41.9012 61.4323 41.4612 61.3984 41.2919C61.3646 41.1904 61.5 41.1566 61.5 41.1566C62.1092 40.9535 62.7184 40.5812 63.1246 39.8366C63.4969 39.1258 63.5646 38.1443 62.8876 37.6366C62.2784 37.1627 61.3646 37.2304 60.6538 37.9073C59.943 38.5504 59.7061 39.4643 59.8076 40.2766C59.8076 40.4119 59.8076 40.4796 59.6384 40.4796C58.5553 40.5812 57.5061 40.5812 56.3215 40.6489C56.2538 40.6489 56.2199 40.615 56.2538 40.5473C57.6076 38.2119 59.6046 36.5535 61.8384 34.895C61.9738 34.7935 61.94 34.5904 61.94 34.3873C65.9676 35.2673 69.8261 36.8919 73.9892 36.8581C75.7153 36.8581 77.3738 36.5873 78.9307 35.7073C80.3184 34.9627 80.8938 34.2519 80.9276 33.5412C80.9615 33.0335 80.623 32.7289 80.1153 32.8304C75.9184 33.8119 71.8907 33.7781 67.6938 33.2704C62.8876 32.6612 58.3184 31.4766 53.58 31.4766ZM60.823 39.9043C60.7553 39.4643 60.8907 38.855 61.3984 38.4489C61.6353 38.2458 61.9738 38.1781 62.143 38.3473C62.38 38.5504 62.2446 39.0243 62.0415 39.3289C61.8046 39.7012 61.3646 40.0058 60.9923 40.0735H60.9584C60.9246 40.1073 60.8569 40.0735 60.823 39.9043Z" fill="url(#paint28_linear_353_44522)"/>
<defs>
<radialGradient id="paint0_radial_353_44522" cx="0" cy="0" r="1" gradientUnits="userSpaceOnUse" gradientTransform="translate(65.5586 235.03) scale(219.206 213.749)">
<stop stop-color="#00050D"/>
<stop offset="0.7" stop-color="#051125"/>
<stop offset="0.904" stop-color="#173E7E"/>
<stop offset="0.955" stop-color="#4CA9E3"/>
<stop offset="1" stop-color="#4CA9E3"/>
</radialGradient>
<linearGradient id="paint1_linear_353_44522" x1="65.9118" y1="63.4633" x2="65.9118" y2="24.7703" gradientUnits="userSpaceOnUse">
<stop stop-color="#08142E"/>
<stop offset="0.809" stop-color="#17326E"/>
<stop offset="1" stop-color="#0D69A9"/>
</linearGradient>
<linearGradient id="paint2_linear_353_44522" x1="66.5226" y1="63.4835" x2="66.5226" y2="24.787" gradientUnits="userSpaceOnUse">
<stop stop-color="#08142E"/>
<stop offset="0.809" stop-color="#17326E"/>
<stop offset="1" stop-color="#0D69A9"/>
</linearGradient>
<linearGradient id="paint3_linear_353_44522" x1="74.6647" y1="56.8173" x2="74.6647" y2="30.0078" gradientUnits="userSpaceOnUse">
<stop stop-color="#08142E"/>
<stop offset="0.809" stop-color="#17326E"/>
<stop offset="1" stop-color="#0D69A9"/>
</linearGradient>
<linearGradient id="paint4_linear_353_44522" x1="86.1205" y1="56.9268" x2="86.1205" y2="29.76" gradientUnits="userSpaceOnUse">
<stop stop-color="#08142E"/>
<stop offset="0.809" stop-color="#17326E"/>
<stop offset="1" stop-color="#0D69A9"/>
</linearGradient>
<linearGradient id="paint5_linear_353_44522" x1="29255.8" y1="55.8628" x2="29255.8" y2="30.9765" gradientUnits="userSpaceOnUse">
<stop stop-color="#08142E"/>
<stop offset="0.809" stop-color="#17326E"/>
<stop offset="1" stop-color="#0D69A9"/>
</linearGradient>
<linearGradient id="paint6_linear_353_44522" x1="72.8215" y1="56.2232" x2="72.8215" y2="30.4989" gradientUnits="userSpaceOnUse">
<stop stop-color="#08142E"/>
<stop offset="0.809" stop-color="#17326E"/>
<stop offset="1" stop-color="#0D69A9"/>
</linearGradient>
<linearGradient id="paint7_linear_353_44522" x1="83.5719" y1="56.9231" x2="83.5719" y2="29.7999" gradientUnits="userSpaceOnUse">
<stop stop-color="#08142E"/>
<stop offset="0.809" stop-color="#17326E"/>
<stop offset="1" stop-color="#0D69A9"/>
</linearGradient>
<linearGradient id="paint8_linear_353_44522" x1="60.1097" y1="56.8968" x2="60.1097" y2="29.7794" gradientUnits="userSpaceOnUse">
<stop stop-color="#08142E"/>
<stop offset="0.809" stop-color="#17326E"/>
<stop offset="1" stop-color="#0D69A9"/>
</linearGradient>
<linearGradient id="paint9_linear_353_44522" x1="31682.3" y1="56.8925" x2="31682.3" y2="29.9606" gradientUnits="userSpaceOnUse">
<stop stop-color="#08142E"/>
<stop offset="0.809" stop-color="#17326E"/>
<stop offset="1" stop-color="#0D69A9"/>
</linearGradient>
<linearGradient id="paint10_linear_353_44522" x1="86.1786" y1="56.9246" x2="86.1786" y2="29.7952" gradientUnits="userSpaceOnUse">
<stop stop-color="#08142E"/>
<stop offset="0.809" stop-color="#17326E"/>
<stop offset="1" stop-color="#0D69A9"/>
</linearGradient>
<linearGradient id="paint11_linear_353_44522" x1="76.9917" y1="56.9326" x2="76.9917" y2="29.7861" gradientUnits="userSpaceOnUse">
<stop stop-color="#08142E"/>
<stop offset="0.809" stop-color="#17326E"/>
<stop offset="1" stop-color="#0D69A9"/>
</linearGradient>
<linearGradient id="paint12_linear_353_44522" x1="91.7941" y1="56.9" x2="91.7941" y2="29.7774" gradientUnits="userSpaceOnUse">
<stop stop-color="#08142E"/>
<stop offset="0.809" stop-color="#17326E"/>
<stop offset="1" stop-color="#0D69A9"/>
</linearGradient>
<linearGradient id="paint13_linear_353_44522" x1="65.5659" y1="56.6241" x2="65.5659" y2="30.1274" gradientUnits="userSpaceOnUse">
<stop stop-color="#08142E"/>
<stop offset="0.809" stop-color="#17326E"/>
<stop offset="1" stop-color="#0D69A9"/>
</linearGradient>
<linearGradient id="paint14_linear_353_44522" x1="61.3549" y1="56.9127" x2="61.3549" y2="29.9724" gradientUnits="userSpaceOnUse">
<stop stop-color="#08142E"/>
<stop offset="0.809" stop-color="#17326E"/>
<stop offset="1" stop-color="#0D69A9"/>
</linearGradient>
<linearGradient id="paint15_linear_353_44522" x1="40.9009" y1="56.8934" x2="40.9009" y2="29.772" gradientUnits="userSpaceOnUse">
<stop stop-color="#08142E"/>
<stop offset="0.809" stop-color="#17326E"/>
<stop offset="1" stop-color="#0D69A9"/>
</linearGradient>
<linearGradient id="paint16_linear_353_44522" x1="53.0245" y1="56.9252" x2="53.0245" y2="29.8095" gradientUnits="userSpaceOnUse">
<stop stop-color="#08142E"/>
<stop offset="0.809" stop-color="#17326E"/>
<stop offset="1" stop-color="#0D69A9"/>
</linearGradient>
<linearGradient id="paint17_linear_353_44522" x1="49.5089" y1="56.9054" x2="49.5089" y2="29.783" gradientUnits="userSpaceOnUse">
<stop stop-color="#08142E"/>
<stop offset="0.809" stop-color="#17326E"/>
<stop offset="1" stop-color="#0D69A9"/>
</linearGradient>
<linearGradient id="paint18_linear_353_44522" x1="50.1454" y1="56.9217" x2="50.1454" y2="29.7857" gradientUnits="userSpaceOnUse">
<stop stop-color="#08142E"/>
<stop offset="0.809" stop-color="#17326E"/>
<stop offset="1" stop-color="#0D69A9"/>
</linearGradient>
<linearGradient id="paint19_linear_353_44522" x1="80.7393" y1="56.421" x2="80.7393" y2="29.8752" gradientUnits="userSpaceOnUse">
<stop stop-color="#08142E"/>
<stop offset="0.809" stop-color="#17326E"/>
<stop offset="1" stop-color="#0D69A9"/>
</linearGradient>
<linearGradient id="paint20_linear_353_44522" x1="68.6077" y1="56.9096" x2="68.6077" y2="29.7902" gradientUnits="userSpaceOnUse">
<stop stop-color="#08142E"/>
<stop offset="0.809" stop-color="#17326E"/>
<stop offset="1" stop-color="#0D69A9"/>
</linearGradient>
<linearGradient id="paint21_linear_353_44522" x1="61.5708" y1="55.992" x2="61.5708" y2="30.3702" gradientUnits="userSpaceOnUse">
<stop stop-color="#08142E"/>
<stop offset="0.809" stop-color="#17326E"/>
<stop offset="1" stop-color="#0D69A9"/>
</linearGradient>
<linearGradient id="paint22_linear_353_44522" x1="62.4361" y1="56.9109" x2="62.4361" y2="29.7886" gradientUnits="userSpaceOnUse">
<stop stop-color="#08142E"/>
<stop offset="0.809" stop-color="#17326E"/>
<stop offset="1" stop-color="#0D69A9"/>
</linearGradient>
<linearGradient id="paint23_linear_353_44522" x1="47.5493" y1="56.917" x2="47.5493" y2="29.7936" gradientUnits="userSpaceOnUse">
<stop stop-color="#08142E"/>
<stop offset="0.809" stop-color="#17326E"/>
<stop offset="1" stop-color="#0D69A9"/>
</linearGradient>
<linearGradient id="paint24_linear_353_44522" x1="54.839" y1="72.0813" x2="43.1087" y2="28.3032" gradientUnits="userSpaceOnUse">
<stop stop-color="#B2B1B1"/>
<stop offset="0.35" stop-color="#DEDDDE"/>
<stop offset="0.65" stop-color="#DEDDDE"/>
<stop offset="1" stop-color="#B2B1B1"/>
</linearGradient>
<linearGradient id="paint25_linear_353_44522" x1="85.7054" y1="48.195" x2="74.0294" y2="4.61985" gradientUnits="userSpaceOnUse">
<stop stop-color="#B2B1B1"/>
<stop offset="0.35" stop-color="#DEDDDE"/>
<stop offset="0.65" stop-color="#DEDDDE"/>
<stop offset="1" stop-color="#B2B1B1"/>
</linearGradient>
<linearGradient id="paint26_linear_353_44522" x1="66.0044" y1="24.5102" x2="66.0044" y2="63.4027" gradientUnits="userSpaceOnUse">
<stop stop-color="white"/>
<stop offset="0.552" stop-color="white"/>
<stop offset="0.691" stop-color="#FAFAFA"/>
<stop offset="0.8" stop-color="#D3D2D2"/>
<stop offset="1" stop-color="#BDBCBC"/>
</linearGradient>
<linearGradient id="paint27_linear_353_44522" x1="73.961" y1="36.9632" x2="73.961" y2="56.2515" gradientUnits="userSpaceOnUse">
<stop stop-color="white"/>
<stop offset="0.552" stop-color="white"/>
<stop offset="0.691" stop-color="#EFEEEE"/>
<stop offset="0.8" stop-color="#E9E9E9"/>
<stop offset="1" stop-color="#D3D2D2"/>
</linearGradient>
<linearGradient id="paint28_linear_353_44522" x1="-32434.8" y1="29.6068" x2="-32434.8" y2="56.3632" gradientUnits="userSpaceOnUse">
<stop stop-color="white"/>
<stop offset="0.552" stop-color="white"/>
<stop offset="0.691" stop-color="#EFEEEE"/>
<stop offset="0.8" stop-color="#E9E9E9"/>
<stop offset="1" stop-color="#D3D2D2"/>
</linearGradient>
</defs>
</svg>
