<svg width="112" height="40" viewBox="0 0 112 40" fill="none" xmlns="http://www.w3.org/2000/svg">
<path d="M11.84 16.8L9.888 18.72H4.48V26.08H11.2V28H4.48C3.86133 28 3.328 27.7867 2.88 27.36C2.45333 26.912 2.24 26.3787 2.24 25.76V19.04C2.24 18.4213 2.45333 17.8987 2.88 17.472C3.328 17.024 3.86133 16.8 4.48 16.8H11.84ZM24.8038 28H22.5638V26.368L20.6438 28H15.8438C15.2251 28 14.6918 27.7867 14.2438 27.36C13.8171 26.912 13.6038 26.3787 13.6038 25.76V23.52C13.6038 22.9013 13.8171 22.3787 14.2438 21.952C14.6918 21.504 15.2251 21.28 15.8438 21.28H22.2438L20.3238 23.168H15.8438V26.08H22.5638V18.72H13.6038L15.5238 16.8H22.5638C23.1824 16.8 23.7051 17.024 24.1318 17.472C24.5798 17.8987 24.8038 18.4213 24.8038 19.04V28ZM38.2313 21.28H35.9913V18.72H31.5113V28H29.2713V16.8H31.5113V18.4L33.1113 16.8H35.9913C36.6099 16.8 37.1326 17.024 37.5593 17.472C38.0073 17.8987 38.2313 18.4213 38.2313 19.04V21.28ZM52.46 28H50.22V26.368L48.3 28H43.5C42.8813 28 42.348 27.7867 41.9 27.36C41.4733 26.912 41.26 26.3787 41.26 25.76V23.52C41.26 22.9013 41.4733 22.3787 41.9 21.952C42.348 21.504 42.8813 21.28 43.5 21.28H49.9L47.98 23.168H43.5V26.08H50.22V18.72H41.26L43.18 16.8H50.22C50.8387 16.8 51.3613 17.024 51.788 17.472C52.236 17.8987 52.46 18.4213 52.46 19.04V28ZM68.1275 28H65.8875V26.4L64.2875 28H59.1675C58.5488 28 58.0155 27.7867 57.5675 27.36C57.1408 26.912 56.9275 26.3787 56.9275 25.76V19.04C56.9275 18.4213 57.1408 17.8987 57.5675 17.472C58.0155 17.024 58.5488 16.8 59.1675 16.8H65.8875V11.68L68.1275 9.44V28ZM65.8875 26.08V17.12L64.2875 18.72H59.1675V26.08H65.8875ZM83.3275 16.8L78.9755 28H75.7115L71.4875 16.8H74.0475L77.0875 26.144H77.7275L80.7675 16.8H83.3275ZM97.565 28H88.605C87.9863 28 87.453 27.7867 87.005 27.36C86.5783 26.912 86.365 26.3787 86.365 25.76V19.04C86.365 18.4213 86.5783 17.8987 87.005 17.472C87.453 17.024 87.9863 16.8 88.605 16.8H95.325C95.9437 16.8 96.4663 17.024 96.893 17.472C97.341 17.8987 97.565 18.4213 97.565 19.04V21.28L95.325 23.52H88.925L90.845 21.6H95.325V18.72H88.605V26.08H97.565V28ZM110.044 21.28H107.804V18.72H103.324V28H101.084V16.8H103.324V18.4L104.924 16.8H107.804C108.422 16.8 108.945 17.024 109.372 17.472C109.82 17.8987 110.044 18.4213 110.044 19.04V21.28Z" fill="#101828"/>
</svg>
