<svg width="1016" height="932" viewBox="0 0 1016 932" fill="none" xmlns="http://www.w3.org/2000/svg">
<path fill-rule="evenodd" clip-rule="evenodd" d="M422.77 169.393C459.791 152.758 493.006 213.749 533.519 216.163C582.331 219.072 634.855 156.306 674.859 184.416C714.342 212.16 661.416 288.015 690.532 326.494C728.149 376.208 864.581 356.623 851.244 417.523C835.688 488.558 683.298 434.705 652.416 500.545C622.769 563.752 780.225 659.132 720.756 695.723C656.192 735.448 603.871 552.583 531.446 574.976C454.978 598.619 504.499 774.523 425.444 787.029C360.427 797.313 418.617 642.227 367.373 600.93C319.48 562.334 215.311 647.164 185.283 593.488C155.699 540.608 269.897 499.249 276.809 439.051C282.24 391.742 192.395 351.29 217.721 310.957C245.486 266.741 327.908 318.91 370.877 289.243C407.163 264.192 382.55 187.465 422.77 169.393Z" stroke="#E4E7EC"/>
<path fill-rule="evenodd" clip-rule="evenodd" d="M415.063 143.557C456.351 125.005 493.395 193.027 538.579 195.719C593.018 198.964 651.596 128.962 696.211 160.312C740.246 191.255 681.218 275.854 713.691 318.768C755.644 374.213 907.803 352.37 892.929 420.291C875.579 499.514 705.622 439.453 671.181 512.883C638.116 583.376 813.723 689.751 747.399 730.56C675.392 774.864 617.04 570.92 536.266 595.894C450.984 622.262 506.213 818.443 418.045 832.39C345.533 843.861 410.431 670.897 353.28 624.84C299.866 581.795 183.69 676.403 150.199 616.54C117.205 557.564 244.568 511.438 252.276 444.3C258.334 391.537 158.132 346.423 186.377 301.441C217.343 252.127 309.265 310.31 357.188 277.224C397.656 249.285 370.207 163.713 415.063 143.557Z" stroke="#E4E7EC"/>
<path fill-rule="evenodd" clip-rule="evenodd" d="M405.094 113.152C450.65 92.6823 491.523 167.734 541.376 170.705C601.442 174.285 666.075 97.0477 715.301 131.638C763.887 165.779 698.759 259.122 734.588 306.472C780.878 367.648 948.763 343.547 932.352 418.488C913.209 505.9 725.686 439.631 687.684 520.65C651.202 598.43 844.96 715.799 771.78 760.826C692.331 809.71 627.947 584.686 538.825 612.241C444.728 641.335 505.666 857.793 408.384 873.182C328.378 885.838 399.984 694.997 336.925 644.179C277.99 596.685 149.806 701.072 112.854 635.021C76.4502 569.95 216.977 519.056 225.482 444.979C232.166 386.763 121.607 336.985 152.772 287.354C186.938 232.943 288.361 297.139 341.238 260.634C385.889 229.807 355.601 135.39 405.094 113.152Z" stroke="#E4E7EC"/>
<path fill-rule="evenodd" clip-rule="evenodd" d="M431.013 204.303C462.866 190.043 491.304 242.018 526.124 244.003C568.076 246.395 613.34 192.747 647.674 216.656C681.562 240.254 635.928 305.069 660.884 337.845C693.127 380.191 810.436 363.23 798.86 415.213C785.357 475.848 654.466 430.183 627.8 486.413C602.199 540.395 737.368 621.481 686.183 652.809C630.612 686.821 585.976 530.901 523.68 550.139C457.907 570.452 500.149 720.439 432.172 731.255C376.266 740.149 426.571 607.725 382.599 572.586C341.503 539.745 251.806 612.312 226.093 566.572C200.761 521.51 298.999 486.013 305.051 434.64C309.808 394.267 232.654 359.92 254.498 325.462C278.445 287.686 349.196 332.043 386.187 306.654C417.423 285.213 396.408 219.796 431.013 204.303Z" stroke="#E4E7EC"/>
<path fill-rule="evenodd" clip-rule="evenodd" d="M437.88 225.18C465.624 212.759 490.395 258.03 520.723 259.759C557.265 261.842 596.69 215.114 626.596 235.939C656.113 256.494 616.365 312.95 638.102 341.498C666.187 378.382 768.366 363.608 758.282 408.887C746.521 461.701 632.512 421.926 609.285 470.904C586.986 517.923 704.722 588.551 660.138 615.839C611.735 645.464 572.856 509.654 518.594 526.411C461.305 544.103 498.099 674.746 438.889 684.166C390.194 691.914 434.011 576.569 395.71 545.962C359.914 517.357 281.787 580.564 259.39 540.724C237.325 501.474 322.893 470.555 328.164 425.808C332.307 390.642 265.104 360.725 284.131 330.712C304.99 297.808 366.615 336.444 398.835 314.329C426.042 295.655 407.738 238.675 437.88 225.18Z" stroke="#E4E7EC"/>
<path fill-rule="evenodd" clip-rule="evenodd" d="M444.36 250.297C467.836 239.787 488.795 278.093 514.458 279.556C545.378 281.319 578.738 241.78 604.043 259.401C629.019 276.793 595.386 324.564 613.779 348.72C637.543 379.93 724.002 367.429 715.47 405.742C705.518 450.431 609.049 416.774 589.395 458.217C570.527 498.003 670.149 557.765 632.424 580.854C591.468 605.922 558.57 491.006 512.657 505.185C464.181 520.155 495.314 630.699 445.214 638.67C404.01 645.225 441.086 547.627 408.678 521.728C378.389 497.524 312.281 551.007 293.33 517.296C274.66 484.085 347.063 457.922 351.524 420.059C355.029 390.304 298.165 364.989 314.265 339.593C331.914 311.752 384.059 344.444 411.322 325.731C434.343 309.929 418.855 261.716 444.36 250.297Z" stroke="#E4E7EC"/>
<path fill-rule="evenodd" clip-rule="evenodd" d="M451.356 277.344C470.563 268.745 487.712 300.086 508.709 301.283C534.006 302.726 561.301 270.375 582.005 284.793C602.44 299.023 574.922 338.107 589.971 357.872C609.414 383.407 680.153 373.179 673.173 404.526C665.03 441.089 586.101 413.552 570.021 447.46C554.583 480.012 636.092 528.908 605.227 547.8C571.717 568.31 544.8 474.287 507.235 485.888C467.573 498.137 493.046 588.582 452.054 595.103C418.342 600.467 448.677 520.613 422.161 499.424C397.379 479.62 343.291 523.379 327.786 495.797C312.51 468.625 371.749 447.219 375.399 416.24C378.267 391.895 331.742 371.183 344.914 350.404C359.355 327.625 402.019 354.373 424.324 339.063C443.16 326.134 430.488 286.686 451.356 277.344Z" stroke="#E4E7EC"/>
</svg>
