<svg width="24" height="24" viewBox="0 0 24 24" fill="none" xmlns="http://www.w3.org/2000/svg">
<path d="M12.5 10.25C11.9033 10.25 11.331 10.4871 10.909 10.909C10.4871 11.331 10.25 11.9033 10.25 12.5C10.25 13.0967 10.4871 13.669 10.909 14.091C11.331 14.5129 11.9033 14.75 12.5 14.75C13.0967 14.75 13.669 14.5129 14.091 14.091C14.5129 13.669 14.75 13.0967 14.75 12.5C14.75 11.9033 14.5129 11.331 14.091 10.909C13.669 10.4871 13.0967 10.25 12.5 10.25ZM12.5 8.75C13.4946 8.75 14.4484 9.14509 15.1517 9.84835C15.8549 10.5516 16.25 11.5054 16.25 12.5C16.25 13.4946 15.8549 14.4484 15.1517 15.1517C14.4484 15.8549 13.4946 16.25 12.5 16.25C11.5054 16.25 10.5516 15.8549 9.84835 15.1517C9.14509 14.4484 8.75 13.4946 8.75 12.5C8.75 11.5054 9.14509 10.5516 9.84835 9.84835C10.5516 9.14509 11.5054 8.75 12.5 8.75ZM17.375 8.5625C17.375 8.81114 17.2762 9.0496 17.1004 9.22541C16.9246 9.40123 16.6861 9.5 16.4375 9.5C16.1889 9.5 15.9504 9.40123 15.7746 9.22541C15.5988 9.0496 15.5 8.81114 15.5 8.5625C15.5 8.31386 15.5988 8.0754 15.7746 7.89959C15.9504 7.72377 16.1889 7.625 16.4375 7.625C16.6861 7.625 16.9246 7.72377 17.1004 7.89959C17.2762 8.0754 17.375 8.31386 17.375 8.5625ZM12.5 6.5C10.6445 6.5 10.3415 6.50525 9.47825 6.5435C8.89025 6.57125 8.49575 6.65 8.12975 6.7925C7.80425 6.9185 7.5695 7.06925 7.31975 7.31975C7.08501 7.54655 6.90451 7.82344 6.79175 8.12975C6.64925 8.49725 6.5705 8.891 6.5435 9.47825C6.5045 10.3063 6.5 10.5957 6.5 12.5C6.5 14.3555 6.50525 14.6585 6.5435 15.5217C6.57125 16.109 6.65 16.5043 6.79175 16.8695C6.91925 17.1958 7.06925 17.4305 7.31825 17.6795C7.571 17.9315 7.80575 18.0822 8.12825 18.2067C8.49875 18.35 8.89325 18.4295 9.47825 18.4565C10.3063 18.4955 10.5957 18.5 12.5 18.5C14.3555 18.5 14.6585 18.4948 15.5217 18.4565C16.1082 18.4288 16.5035 18.35 16.8695 18.2083C17.1943 18.0815 17.4305 17.9307 17.6795 17.6818C17.9323 17.429 18.083 17.1943 18.2075 16.8717C18.35 16.502 18.4295 16.1067 18.4565 15.5217C18.4955 14.6937 18.5 14.4043 18.5 12.5C18.5 10.6445 18.4948 10.3415 18.4565 9.47825C18.4288 8.89175 18.35 8.49575 18.2075 8.12975C18.0945 7.82375 17.9143 7.54697 17.6803 7.31975C17.4536 7.08488 17.1766 6.90438 16.8702 6.79175C16.5027 6.64925 16.1082 6.5705 15.5217 6.5435C14.6937 6.5045 14.4043 6.5 12.5 6.5ZM12.5 5C14.5378 5 14.792 5.0075 15.5915 5.045C16.3903 5.0825 16.934 5.20775 17.4125 5.39375C17.9075 5.58425 18.3245 5.84225 18.7415 6.2585C19.1229 6.63342 19.418 7.08694 19.6063 7.5875C19.7915 8.06525 19.9175 8.60975 19.955 9.4085C19.9903 10.208 20 10.4622 20 12.5C20 14.5378 19.9925 14.792 19.955 15.5915C19.9175 16.3903 19.7915 16.934 19.6063 17.4125C19.4185 17.9133 19.1233 18.367 18.7415 18.7415C18.3665 19.1227 17.913 19.4178 17.4125 19.6063C16.9347 19.7915 16.3903 19.9175 15.5915 19.955C14.792 19.9903 14.5378 20 12.5 20C10.4622 20 10.208 19.9925 9.4085 19.955C8.60975 19.9175 8.066 19.7915 7.5875 19.6063C7.08674 19.4184 6.63315 19.1232 6.2585 18.7415C5.87705 18.3666 5.58195 17.9131 5.39375 17.4125C5.20775 16.9347 5.0825 16.3903 5.045 15.5915C5.00975 14.792 5 14.5378 5 12.5C5 10.4622 5.0075 10.208 5.045 9.4085C5.0825 8.609 5.20775 8.066 5.39375 7.5875C5.58143 7.08663 5.8766 6.63299 6.2585 6.2585C6.63325 5.87692 7.08682 5.5818 7.5875 5.39375C8.066 5.20775 8.609 5.0825 9.4085 5.045C10.208 5.00975 10.4622 5 12.5 5Z" fill="#98A2B3"/>
</svg>
