<svg width="24" height="24" viewBox="0 0 24 24" fill="none" xmlns="http://www.w3.org/2000/svg">
<path d="M16.5012 16.5043H14.5025V13.3715C14.5025 12.6245 14.4875 11.663 13.46 11.663C12.4182 11.663 12.2592 12.476 12.2592 13.3167V16.5043H10.2597V10.0625H12.1797V10.94H12.206C12.4745 10.4345 13.127 9.89975 14.102 9.89975C16.127 9.89975 16.502 11.2332 16.502 12.968V16.5043H16.5012ZM8.00225 9.18125C7.84967 9.18145 7.69854 9.15153 7.55755 9.0932C7.41655 9.03488 7.28845 8.9493 7.18059 8.84138C7.07273 8.73345 6.98724 8.60529 6.92901 8.46426C6.87078 8.32322 6.84095 8.17208 6.84125 8.0195C6.8414 7.78988 6.90963 7.56545 7.03733 7.37461C7.16503 7.18377 7.34645 7.03508 7.55865 6.94734C7.77085 6.8596 8.0043 6.83676 8.22949 6.88171C8.45467 6.92665 8.66147 7.03736 8.82373 7.19983C8.98599 7.3623 9.09644 7.56925 9.14109 7.79449C9.18574 8.01973 9.1626 8.25315 9.07459 8.46524C8.98658 8.67733 8.83765 8.85855 8.64664 8.986C8.45564 9.11345 8.23187 9.1814 8.00225 9.18125ZM9.00425 16.5043H6.9995V10.0625H9.005V16.5043H9.00425ZM17.5025 5H5.99675C5.44475 5 5 5.435 5 5.97275V17.5272C5 18.065 5.4455 18.5 5.996 18.5H17.4995C18.05 18.5 18.5 18.065 18.5 17.5272V5.97275C18.5 5.435 18.05 5 17.4995 5H17.5025Z" fill="#98A2B3"/>
</svg>
