<svg width="132" height="88" viewBox="0 0 132 88" fill="none" xmlns="http://www.w3.org/2000/svg">
<path fill-rule="evenodd" clip-rule="evenodd" d="M62.9572 32.475L65.6139 16.5601C56.0407 16.7361 48.3099 24.5505 48.3099 34.1703C48.3099 37.1638 49.1308 40.0476 50.4911 42.6891L62.9572 32.475ZM65.8913 37.582L50.8104 43.2392C53.9452 48.5003 59.7981 51.7583 65.911 51.7583C72.0549 51.7583 77.8311 48.5003 81.003 43.2392L65.8913 37.582ZM68.8476 32.475L81.331 42.6891C82.7309 40.0694 83.5344 37.1638 83.5344 34.1703C83.5344 24.4628 75.8366 16.8461 66.2325 16.5379L68.8476 32.475ZM85.4119 34.1703C85.4119 44.8904 76.627 53.6733 65.911 53.6733C55.2041 53.6733 46.4102 44.8904 46.4102 34.1703C46.4102 23.4498 55.1955 14.667 65.911 14.667C76.6336 14.667 85.4119 23.4498 85.4119 34.1703Z" fill="white"/>
<path d="M26.6771 64.1952L26.3293 71.9878C26.2964 72.7361 26.8444 72.8903 27.5223 72.9344V73.1981C27.0422 73.1763 26.5622 73.1322 26.0804 73.1322C25.6003 73.1322 25.1359 73.1763 24.6562 73.1981V72.9344C25.3362 72.8903 25.8163 72.7366 25.8492 71.9878L26.2148 64.6134C26.263 63.821 25.6997 63.711 25.0218 63.6891V63.4027C25.4355 63.4027 25.8336 63.425 26.2477 63.425C26.6108 63.425 26.9586 63.4027 27.3068 63.359L30.0583 71.1294L32.8581 63.3586L33.1729 63.4027C33.4218 63.4027 33.688 63.425 33.9522 63.425C34.3506 63.425 34.7491 63.4027 35.1452 63.4027V63.6891C34.4673 63.711 33.9369 63.8433 33.9522 64.6134L34.1195 71.9878C34.1524 72.7361 34.6148 72.8903 35.3281 72.9344V73.1981L34.7162 73.1544C34.3506 73.1326 34.0028 73.1103 33.6373 73.1103C33.2743 73.1103 32.9087 73.1326 32.5432 73.1544L31.9469 73.1985V72.9344C32.6446 72.8903 33.1577 72.7366 33.1399 71.9878L33.0254 64.1952L29.9083 72.8903H29.7278L26.6771 64.1952ZM43.2831 67.2549V72.4501C43.2831 72.9344 42.6031 72.9562 42.2553 72.9784V73.1985C42.7527 73.1762 43.2481 73.1326 43.7455 73.1326C44.2429 73.1326 44.7407 73.1762 45.238 73.1985V72.9784C44.6743 72.9344 44.1946 72.8684 44.1946 72.2078V69.2804C44.1946 68.4438 44.3265 66.7707 45.4536 66.6825C45.6518 66.6607 45.9514 66.7707 45.9666 67.013C45.9666 67.1449 45.9007 67.2549 45.9007 67.3872C45.9007 67.6732 46.1644 67.8714 46.431 67.8933C46.8295 67.8933 47.01 67.5413 47.01 67.189C47.01 66.5725 46.4467 66.1106 45.8343 66.1106C45.0048 66.1106 44.3595 66.6825 44.1262 67.4532C44.1262 66.9689 44.078 66.4847 44.0273 66.0224C43.4483 66.1765 42.8516 66.3306 42.2553 66.3525V66.5725C42.8516 66.5948 43.2831 66.5725 43.2831 67.2549ZM51.569 65.9783L51.1857 66.7048C50.805 66.3525 50.3756 66.1106 49.8122 66.1106C47.9059 66.1106 47.01 68.0033 47.01 69.6986C47.01 71.3717 47.7889 73.3304 49.7438 73.3304C51.1375 73.3304 51.8331 72.1642 51.965 70.9312H51.4017C51.2364 71.8555 50.9039 72.868 49.7793 72.868C48.203 72.868 48.0378 70.8653 48.0378 69.6986C48.0378 68.5979 48.3044 66.4625 49.7945 66.4625C50.8379 66.4625 51.3357 67.365 51.5183 68.2456H51.7997V65.9783H51.569ZM57.7149 70.9089H58.2959C58.08 72.3842 57.2195 73.3304 55.694 73.3304C53.739 73.3304 52.9602 71.5036 52.9602 69.8087C52.9602 68.1137 53.7061 66.1106 55.694 66.1106C57.6003 66.1106 58.2782 67.8273 58.263 69.4782H53.8536C53.889 70.843 54.0695 72.8684 55.8592 72.8684C57.0036 72.8684 57.5673 71.9219 57.7149 70.9093V70.9089ZM57.3671 68.9721V68.7743C57.2682 67.7391 56.9377 66.4847 55.661 66.4847C54.4503 66.4847 53.955 67.9596 53.9043 68.9721H57.3671ZM65.4391 72.7584V72.9562C64.8424 73.0444 64.279 73.1103 63.6976 73.2867C63.6139 72.8684 63.548 72.4501 63.5327 72.0096C63.1849 72.7802 62.5223 73.2867 61.6594 73.2867C59.8038 73.2867 59.1081 71.2394 59.1081 69.6986C59.1081 68.1574 59.8211 66.1547 61.6594 66.1547C62.5553 66.1547 63.0683 66.7048 63.4821 67.4532V64.6139C63.4821 63.931 63.0856 63.8433 62.456 63.8433V63.645L62.6369 63.6009C63.2332 63.535 63.8146 63.4691 64.3932 63.2927V71.7455C64.3932 72.5161 64.6598 72.7584 65.4391 72.7584ZM63.4821 69.7423C63.4821 68.5761 63.2843 66.5507 61.7253 66.5507C60.2352 66.5507 60.0852 68.5757 60.0852 69.6545C60.0852 70.7548 60.2175 72.8903 61.776 72.8903C63.3502 72.8903 63.4821 70.8875 63.4821 69.7423ZM70.9574 70.9089H71.5364C71.4045 72.3842 70.4093 73.3304 68.9344 73.3304C66.9951 73.3304 66.1829 71.5036 66.1829 69.8087C66.1829 68.1137 66.9469 66.1106 68.9344 66.1106C70.8564 66.1106 71.5186 67.8273 71.5186 69.4782H67.1117C67.0944 70.843 67.3429 72.8684 69.0997 72.8684C70.2267 72.8684 70.8407 71.9219 70.9574 70.9093V70.9089ZM70.6252 68.9721C70.5263 67.8933 70.2597 66.4847 68.9171 66.4847C67.7085 66.4847 67.2947 67.8496 67.1624 68.8398L67.1451 68.9717L70.6252 68.9721ZM72.7293 73.3304L73.0598 72.7143C73.542 73.1103 74.1712 73.2867 74.7832 73.2867C75.9609 73.2867 77.088 72.5161 77.088 71.2394C77.088 70.271 76.4254 69.7864 75.5798 69.4563L74.9175 69.1922C74.3208 68.9721 73.359 68.642 73.359 67.8496C73.359 67.0571 73.9887 66.5066 74.7832 66.5066C75.8114 66.5066 76.2255 67.3431 76.3265 68.2456H76.6079V66.0224H76.3747L76.1769 66.5725C75.745 66.3088 75.2653 66.1542 74.7502 66.1542C73.6409 66.1542 72.6127 66.8808 72.6127 68.0474C72.6127 70.381 76.3265 69.6986 76.3265 71.4595C76.3265 72.3179 75.5625 72.8903 74.7502 72.8903C73.542 72.8903 73.0112 71.9878 72.7627 70.9312L72.4631 70.953L72.4809 73.3308L72.7293 73.3304ZM77.7177 69.4122H80.3678V68.9499H77.7177V69.4122ZM93.1109 70.9089H93.6919C93.56 72.3401 92.5475 73.3967 91.0751 73.3304C89.1507 73.2203 88.3389 71.5695 88.3389 69.8087C88.3389 68.1137 89.1025 66.1106 91.0751 66.1106C92.9963 66.1106 93.6746 67.8273 93.6746 69.5004H89.25C89.2343 70.843 89.4989 72.8684 91.24 72.8684C92.4 72.8684 92.946 71.9219 93.1109 70.9093V70.9089ZM92.7631 68.9721C92.7478 67.8933 92.3671 66.4847 91.057 66.4847C89.864 66.4847 89.4326 67.8714 89.3007 68.8398L89.283 68.9717L92.7631 68.9721ZM95.3827 67.2772V72.2301C95.3827 72.8903 94.9006 72.9344 94.3216 72.9784V73.2203C94.8346 73.1763 95.332 73.1326 95.8298 73.1326C96.3268 73.1326 96.8246 73.1763 97.3373 73.2203V72.9784C96.7739 72.9344 96.2765 72.8684 96.2765 72.2301V68.7298C96.2765 67.6955 96.8069 66.7707 97.9846 66.7707C99.1117 66.7707 99.3252 67.7614 99.3252 68.6857V72.4501C99.3252 72.9562 98.6296 72.9562 98.2661 72.9784V73.2203C98.7614 73.1763 99.2592 73.1326 99.7744 73.1326C100.287 73.1326 100.784 73.1763 101.297 73.2203V72.9784C100.718 72.9344 100.238 72.8903 100.238 72.2301V68.642C100.238 67.3431 99.5914 66.1542 98.1165 66.1542C97.289 66.1542 96.6573 66.5948 96.2102 67.2772V67.1008C96.1957 66.7252 96.1627 66.3506 96.1113 65.9783C95.548 66.1983 94.9513 66.3306 94.3546 66.4184V66.6389C94.9356 66.6389 95.3827 66.6166 95.3827 67.2772ZM106.867 73.1762L107.215 71.1953H106.981C106.651 72.1197 106.252 72.8462 105.191 72.8462H103.221L107.346 66.2647H102.64L102.326 68.0696H102.574C102.889 67.2331 103.221 66.6166 104.199 66.6166H106.088L101.978 73.1762H106.867ZM40.9457 70.9089H41.5268C41.3924 72.3842 40.3997 73.3304 38.9248 73.3304C36.9678 73.3304 36.191 71.5254 36.191 69.8087C36.191 68.1137 36.9349 66.1106 38.9248 66.1106C40.8464 66.1106 41.5091 67.8273 41.5091 69.4782H37.1022C37.0844 70.843 37.3329 72.8684 39.0897 72.8684C40.1994 72.8684 40.8617 71.9219 40.9457 70.9093V70.9089ZM40.6152 68.9721C40.5472 67.8933 40.232 66.4847 38.8919 66.4847C37.6305 66.4847 37.2674 67.9596 37.1351 68.9721H40.6152ZM87.3721 70.3811C87.3721 72.1419 86.1441 73.1762 84.0152 73.1762H80.4404V72.8903C81.4224 72.8243 81.6379 72.6702 81.6379 71.9219V64.6575C81.6379 63.931 81.4244 63.7551 80.4404 63.711V63.425H84.1187C85.8952 63.425 86.899 64.2834 86.899 65.7801C86.899 66.8148 86.4103 67.5191 85.3471 67.9815C86.5974 68.2015 87.3721 69.1262 87.3721 70.3811ZM83.6938 67.8714C85.1843 67.8714 85.8449 67.2327 85.8449 65.8242C85.8449 64.4375 85.268 63.8214 83.9757 63.8214H82.6067V67.8714H83.6938ZM82.6067 71.9437C82.6067 72.6261 82.7608 72.7584 83.6015 72.7584H84.1409C85.4967 72.7584 86.3155 71.8778 86.3155 70.4466C86.3155 68.9721 85.6113 68.2674 84.1343 68.2674H82.6067V71.9437ZM85.413 34.1704C85.413 44.8904 76.6281 53.6733 65.9122 53.6733C55.2052 53.6733 46.4113 44.8904 46.4113 34.1704C46.4113 23.4499 55.1966 14.667 65.9122 14.667C76.6347 14.667 85.413 23.4499 85.413 34.1704ZM61.591 36.3495L61.5671 36.3936L61.6289 36.3713L65.3641 34.1704L64.7014 33.7958L61.591 36.3495ZM78.6445 41.3683H78.7145L78.675 41.3024L67.3429 33.6857L66.4825 34.1704L78.6445 41.3683ZM65.7951 20.5224L65.7642 20.4783L65.7312 20.5224L64.9433 33.2675L65.6455 33.6857L65.7951 20.5224ZM77.6114 20.4123L77.6361 20.4783C78.5579 21.3367 79.432 22.2614 80.2224 23.2516C82.6834 26.3341 83.9666 30.23 83.9666 34.1704C83.9666 37.2738 83.1367 40.2676 81.6531 42.9751L81.8555 43.3492L81.4331 43.3715C78.1904 48.7863 72.234 52.1984 65.9117 52.1984C59.5808 52.1984 53.6574 48.8086 50.4131 43.3715L50.0142 43.3492L50.1794 42.9751C49.2328 41.236 48.5834 39.387 48.2006 37.4502L48.1635 37.4061L48.1387 37.472C48.3901 39.5193 49.0371 41.5224 50.0142 43.3492C53.2037 49.3369 59.1518 52.859 65.9208 52.859C76.1963 52.859 84.5761 44.4277 84.5761 34.1704C84.5761 28.9092 81.8645 23.6044 77.6752 20.4123H77.6114ZM65.615 16.5601C56.0418 16.7361 48.311 24.5505 48.311 34.1704C48.311 37.1638 49.1319 40.0476 50.4922 42.6891L62.7073 32.6732L63.7087 33.2456L50.3669 43.041L50.3117 43.1733H50.4617L65.6303 34.6327L65.5994 37.6925L50.8116 43.2392C53.9463 48.5003 59.7992 51.7583 65.9122 51.7583C72.056 51.7583 77.8322 48.5003 81.0041 43.2392L66.2249 37.6925L66.1854 34.6323L81.3956 43.1733H81.5279L81.4661 43.0632L68.1156 33.2456L69.1087 32.6732L81.3317 42.6891C82.7316 40.0694 83.5351 37.1638 83.5351 34.1704C83.5351 24.4628 75.8373 16.8461 66.2332 16.5379L68.7955 32.1449L66.1784 33.6861L65.9888 16.2519L65.9117 16.1637L65.8417 16.2519L63.9968 32.6955L63.0127 32.1449L65.615 16.5601ZM53.4621 48.5003C49.6713 44.6922 47.4897 39.5852 47.4897 34.1704C47.4897 24.0222 55.7665 15.7458 65.9122 15.7458C74.7989 15.7458 82.371 22.1732 84.5922 30.6041L84.6383 30.626L84.6626 30.5823C82.8882 21.6672 75.0651 15.1071 65.9126 15.1071C55.4319 15.1071 46.8427 23.6922 46.8427 34.1704C46.8427 39.6952 49.2971 44.9123 53.4221 48.5663H53.4774L53.4621 48.5003Z" fill="#231F20"/>
</svg>
