<svg width="24" height="24" viewBox="0 0 24 24" fill="none" xmlns="http://www.w3.org/2000/svg">
<path d="M16.0233 14.9628L19.2355 18.1742L18.1742 19.2355L14.9628 16.0233C13.7678 16.9812 12.2815 17.5022 10.75 17.5C7.024 17.5 4 14.476 4 10.75C4 7.024 7.024 4 10.75 4C14.476 4 17.5 7.024 17.5 10.75C17.5022 12.2815 16.9812 13.7678 16.0233 14.9628ZM14.5187 14.4062C15.4706 13.4274 16.0022 12.1153 16 10.75C16 7.849 13.6503 5.5 10.75 5.5C7.849 5.5 5.5 7.849 5.5 10.75C5.5 13.6503 7.849 16 10.75 16C12.1153 16.0022 13.4274 15.4706 14.4062 14.5187L14.5187 14.4062Z" fill="#98A2B3"/>
</svg>
