<svg width="132" height="88" viewBox="0 0 132 88" fill="none" xmlns="http://www.w3.org/2000/svg">
<path d="M82.0709 69.7598V73.3263H83.2146V70.9518H87.3774V73.3263H88.5203V69.766L82.0709 69.7598ZM83.0872 68.6061H87.4851C88.096 68.4847 88.5502 67.9456 88.6783 67.4242H81.8941C82.0209 67.9458 82.4819 68.4847 83.0872 68.6061ZM78.6069 73.3286C79.1836 73.0841 79.4938 72.6613 79.6127 72.1665H74.4828L74.4861 67.4271L73.3361 67.4303V73.3286H78.6069ZM64.7848 68.5902H68.8464C69.4587 68.4123 69.9729 67.9458 70.0982 67.4287H63.6462V70.9143H68.927V72.1375L64.7848 72.1408C64.1357 72.3217 63.5852 72.7576 63.3106 73.3333L63.6462 73.3271H70.0616V69.7554H64.7848V68.5902ZM54.758 68.6014H59.1544C59.7661 68.4795 60.2207 67.9409 60.3481 67.4189H53.5642C53.6909 67.9409 54.1522 68.4795 54.758 68.6014ZM54.758 70.9325H59.1544C59.7661 70.8119 60.2207 70.2729 60.3481 69.7505H53.5642C53.6909 70.273 54.1522 70.8119 54.758 70.9325ZM54.758 73.328H59.1544C59.7661 73.2064 60.2207 72.6675 60.3481 72.1458H53.5642C53.6909 72.6676 54.1522 73.2064 54.758 73.328ZM43.3203 67.4333C43.4525 67.9487 43.8988 68.4756 44.5111 68.6076H46.3617L46.4561 68.6449V73.3148H47.6118V68.6449L47.7168 68.6076H49.569C50.1882 68.4481 50.6249 67.9487 50.7548 67.4333V67.4219H43.3203V67.4333Z" fill="#E82127"/>
<path d="M66.0038 55.7654L71.778 23.2907C77.2819 23.2907 79.018 23.8942 79.2686 26.3576C79.2686 26.3576 82.9608 24.981 84.823 22.185C77.5562 18.8177 70.2547 18.6659 70.2547 18.6659L65.9942 23.8551L66.0038 23.8545L61.7432 18.665C61.7432 18.665 54.4416 18.8171 47.1758 22.1843C49.0363 24.9803 52.73 26.357 52.73 26.357C52.9821 23.8934 54.716 23.2898 60.183 23.2859L66.0038 55.7654Z" fill="#E82127"/>
<path d="M66.0006 17.1671C71.8748 17.1221 78.5984 18.0758 85.4814 21.0757C86.4014 19.4199 86.6379 18.6881 86.6379 18.6881C79.1137 15.7113 72.0675 14.6925 65.9998 14.667C59.9324 14.6925 52.8864 15.7115 45.3633 18.6881C45.3633 18.6881 45.6989 19.5895 46.5189 21.0757C53.4006 18.0758 60.1254 17.1221 65.9998 17.1671H66.0006Z" fill="#E82127"/>
</svg>
