<svg width="24" height="24" viewBox="0 0 24 24" fill="none" xmlns="http://www.w3.org/2000/svg">
<path d="M19.2873 7.47559C18.7147 7.72886 18.1075 7.89519 17.4858 7.96909C18.1411 7.57716 18.6315 6.96035 18.8658 6.23359C18.2508 6.59959 17.5765 6.85609 16.8738 6.99484C16.4017 6.48977 15.776 6.15481 15.094 6.04203C14.4119 5.92924 13.7117 6.04496 13.1022 6.37118C12.4927 6.6974 12.008 7.21585 11.7236 7.84593C11.4391 8.47601 11.3708 9.18242 11.5292 9.85534C10.2821 9.79283 9.062 9.46873 7.94822 8.90409C6.83443 8.33944 5.85185 7.54687 5.06425 6.57784C4.78547 7.05668 4.63897 7.60101 4.63975 8.15509C4.63975 9.24259 5.19325 10.2033 6.03475 10.7658C5.53676 10.7502 5.04972 10.6157 4.61425 10.3736V10.4126C4.6144 11.1369 4.86503 11.8388 5.32364 12.3994C5.78224 12.96 6.42061 13.3447 7.1305 13.4883C6.66821 13.6136 6.18348 13.6321 5.713 13.5423C5.91315 14.1658 6.30326 14.711 6.82869 15.1017C7.35413 15.4924 7.9886 15.7089 8.64325 15.7211C7.99261 16.2321 7.24763 16.6098 6.45091 16.8327C5.65419 17.0556 4.82135 17.1193 4 17.0201C5.43377 17.9422 7.10282 18.4317 8.8075 18.4301C14.5772 18.4301 17.7325 13.6503 17.7325 9.50509C17.7325 9.37009 17.7288 9.23359 17.7228 9.10009C18.3369 8.65621 18.867 8.10635 19.288 7.47634L19.2873 7.47559Z" fill="#98A2B3"/>
</svg>
