<svg width="24" height="24" viewBox="0 0 24 24" fill="none" xmlns="http://www.w3.org/2000/svg">
<path d="M6 19.75C6 18.1587 6.63214 16.6326 7.75736 15.5074C8.88258 14.3821 10.4087 13.75 12 13.75C13.5913 13.75 15.1174 14.3821 16.2426 15.5074C17.3679 16.6326 18 18.1587 18 19.75H16.5C16.5 18.5565 16.0259 17.4119 15.182 16.568C14.3381 15.7241 13.1935 15.25 12 15.25C10.8065 15.25 9.66193 15.7241 8.81802 16.568C7.97411 17.4119 7.5 18.5565 7.5 19.75H6ZM12 13C9.51375 13 7.5 10.9862 7.5 8.5C7.5 6.01375 9.51375 4 12 4C14.4862 4 16.5 6.01375 16.5 8.5C16.5 10.9862 14.4862 13 12 13ZM12 11.5C13.6575 11.5 15 10.1575 15 8.5C15 6.8425 13.6575 5.5 12 5.5C10.3425 5.5 9 6.8425 9 8.5C9 10.1575 10.3425 11.5 12 11.5Z" fill="white"/>
</svg>
