<svg width="24" height="24" viewBox="0 0 24 24" fill="none" xmlns="http://www.w3.org/2000/svg">
<path d="M19.6572 7.8735C20 9.21 20 12 20 12C20 12 20 14.79 19.6572 16.1265C19.4667 16.8653 18.9095 17.4465 18.2037 17.643C16.922 18 12.5 18 12.5 18C12.5 18 8.08025 18 6.79625 17.643C6.0875 17.4435 5.531 16.863 5.34275 16.1265C5 14.79 5 12 5 12C5 12 5 9.21 5.34275 7.8735C5.53325 7.13475 6.0905 6.5535 6.79625 6.357C8.08025 6 12.5 6 12.5 6C12.5 6 16.922 6 18.2037 6.357C18.9125 6.5565 19.469 7.137 19.6572 7.8735ZM11 14.625L15.5 12L11 9.375V14.625Z" fill="#98A2B3"/>
</svg>
